<svg width="27" height="27" viewBox="0 0 27 27" fill="none" xmlns="http://www.w3.org/2000/svg">
<path fill-rule="evenodd" clip-rule="evenodd" d="M23.757 0.0181497C23.757 0.0304148 23.721 0.0404498 23.677 0.0404498C23.633 0.0404498 23.597 0.0498159 23.597 0.0612559C23.597 0.0726958 23.5776 0.0880383 23.554 0.095375C23.5303 0.102712 23.4583 0.157169 23.394 0.216398C23.3297 0.275627 23.277 0.3347 23.277 0.347656C23.277 0.360635 23.2689 0.374573 23.259 0.378676C23.249 0.382757 23.2212 0.441294 23.197 0.508752C23.1582 0.61722 23.1517 0.719087 23.1408 1.38961C23.1285 2.14781 23.1285 2.14781 22.3571 2.15368C21.8692 2.1574 21.5858 2.16764 21.5858 2.18155C21.5858 2.19366 21.5506 2.20356 21.5077 2.20356C21.4647 2.20356 21.3979 2.22111 21.3592 2.24259C21.3206 2.26404 21.2889 2.28915 21.2888 2.29834C21.2888 2.30752 21.2778 2.31506 21.2646 2.31506C21.2513 2.31506 21.1896 2.3639 21.1274 2.42357C21.0653 2.48327 21.0144 2.5485 21.0144 2.56853C21.0144 2.58857 21.0042 2.60496 20.9916 2.60496C20.979 2.60496 20.9687 2.63005 20.9687 2.66071C20.9687 2.69138 20.9592 2.71646 20.9475 2.71646C20.9359 2.71646 20.9194 2.77063 20.9109 2.83686C20.9018 2.90767 20.9065 3.00182 20.9223 3.06544C20.9371 3.12494 20.9548 3.20122 20.9616 3.23494C20.9684 3.26866 20.983 3.29627 20.9942 3.29627C21.0053 3.29627 21.0144 3.31119 21.0144 3.32943C21.0144 3.34767 21.0647 3.41183 21.126 3.47204C21.1874 3.53225 21.2594 3.58824 21.286 3.59649C21.3126 3.60472 21.3344 3.62082 21.3344 3.63226C21.3344 3.6437 21.3601 3.65307 21.3915 3.65307C21.423 3.65307 21.4487 3.6631 21.4487 3.67537C21.4487 3.68982 21.7412 3.69767 22.2804 3.69767C23.0178 3.69767 23.1137 3.70166 23.126 3.73295C23.1337 3.75235 23.1399 4.07537 23.1399 4.45079C23.1399 4.89485 23.1495 5.17862 23.1673 5.26291C23.1824 5.33416 23.203 5.39248 23.213 5.39248C23.2231 5.39248 23.2313 5.41757 23.2313 5.44823C23.2313 5.47889 23.2416 5.50398 23.2542 5.50398C23.2667 5.50398 23.277 5.51783 23.277 5.53473C23.277 5.55166 23.3182 5.60685 23.3684 5.65738C23.4187 5.70794 23.4752 5.74928 23.4941 5.74928C23.513 5.74928 23.5284 5.75822 23.5284 5.76917C23.5284 5.7801 23.5541 5.79535 23.5856 5.80305C23.617 5.81074 23.6427 5.82688 23.6427 5.8389C23.6427 5.85095 23.6787 5.86078 23.7227 5.86078C23.7667 5.86078 23.8027 5.87082 23.8027 5.88308C23.8027 5.89548 23.8636 5.90538 23.9398 5.90538C24.016 5.90538 24.0769 5.89548 24.0769 5.88308C24.0769 5.87082 24.1018 5.86078 24.1322 5.86078C24.1626 5.86078 24.2191 5.84321 24.2578 5.82176C24.2964 5.8003 24.3281 5.77522 24.3282 5.76601C24.3283 5.7568 24.3496 5.74928 24.3757 5.74928C24.4017 5.74928 24.4377 5.73494 24.4557 5.71741C24.4736 5.69991 24.4883 5.67937 24.4883 5.67181C24.4883 5.66425 24.5115 5.6339 24.5397 5.6044C24.568 5.57487 24.604 5.53562 24.6197 5.51714C24.6355 5.49867 24.6483 5.46391 24.6483 5.43989C24.6483 5.41585 24.6612 5.39201 24.6769 5.38693C24.6988 5.37979 24.7072 5.19057 24.7129 4.56775C24.7189 3.92513 24.7268 3.75166 24.7513 3.72777C24.7761 3.70362 24.9449 3.69767 25.6066 3.69767C26.1409 3.69767 26.4309 3.68982 26.4309 3.67537C26.4309 3.6631 26.4522 3.65307 26.4783 3.65307C26.5043 3.65307 26.54 3.64051 26.5575 3.62519C26.575 3.60987 26.6047 3.58479 26.6234 3.56944C26.6422 3.55412 26.6639 3.54157 26.6716 3.54157C26.6793 3.54157 26.7003 3.52723 26.7182 3.5097C26.7362 3.4922 26.7509 3.47257 26.7509 3.46613C26.7509 3.45968 26.7766 3.42931 26.808 3.39865C26.8395 3.36798 26.8652 3.32738 26.8652 3.30842C26.8652 3.28947 26.8755 3.27397 26.888 3.27397C26.9006 3.27397 26.9109 3.25089 26.9109 3.22268C26.9109 3.19447 26.922 3.16057 26.9355 3.14737C26.951 3.13225 26.9561 3.05422 26.9493 2.93663C26.9434 2.83394 26.9311 2.71731 26.9221 2.67744C26.9131 2.63759 26.8966 2.60496 26.8854 2.60496C26.8743 2.60496 26.8652 2.58917 26.8652 2.56986C26.8652 2.55057 26.814 2.48535 26.7514 2.42491C26.6888 2.3645 26.6271 2.31506 26.6143 2.31506C26.6014 2.31506 26.5909 2.30697 26.5909 2.29704C26.5909 2.28714 26.5515 2.26205 26.5033 2.24129C26.455 2.22055 26.383 2.20356 26.3433 2.20356C26.3035 2.20356 26.271 2.19366 26.271 2.18155C26.271 2.16764 25.9876 2.1574 25.4996 2.15368C24.7283 2.14781 24.7283 2.14781 24.7169 1.33571C24.7081 0.713869 24.6987 0.521419 24.6769 0.514305C24.6612 0.509198 24.6483 0.480788 24.6483 0.451151C24.6483 0.421492 24.638 0.397252 24.6254 0.397252C24.6129 0.397252 24.6026 0.382601 24.6026 0.364694C24.6026 0.346809 24.5619 0.291616 24.5121 0.242043C24.4623 0.192492 24.4109 0.15195 24.3978 0.15195C24.3847 0.15195 24.374 0.141915 24.374 0.12965C24.374 0.117385 24.3535 0.10735 24.3283 0.10735C24.3029 0.10735 24.2826 0.092476 24.2826 0.0739C24.2826 0.0505295 24.2585 0.0404498 24.2026 0.0404498C24.1586 0.0404498 24.1226 0.0304148 24.1226 0.0181497C24.1226 0.00514876 24.0465 -0.00415039 23.9398 -0.00415039C23.8331 -0.00415039 23.757 0.00514876 23.757 0.0181497ZM12.8211 3.31841C12.7583 3.3286 12.622 3.33783 12.5183 3.33891C12.4092 3.34004 12.3298 3.35026 12.3298 3.36317C12.3298 3.37557 12.2688 3.38547 12.1926 3.38547C12.1172 3.38547 12.0555 3.3941 12.0555 3.40467C12.0555 3.41522 12.0023 3.43 11.9373 3.43752C11.8722 3.44503 11.8085 3.46149 11.7956 3.47407C11.7827 3.48667 11.7433 3.49697 11.7081 3.49697C11.6729 3.49697 11.6441 3.507 11.6441 3.51927C11.6441 3.53153 11.6081 3.54157 11.5641 3.54157C11.5201 3.54157 11.4841 3.5516 11.4841 3.56387C11.4841 3.57613 11.461 3.58653 11.4327 3.58695C11.4044 3.5874 11.3556 3.60209 11.3242 3.61962C11.2927 3.63715 11.2439 3.65184 11.2156 3.65229C11.1873 3.65271 11.1642 3.6631 11.1642 3.67537C11.1642 3.68763 11.1385 3.69767 11.107 3.69767C11.0756 3.69767 11.0499 3.7077 11.0499 3.71997C11.0499 3.73223 11.0348 3.74227 11.0164 3.74227C10.998 3.74227 10.944 3.75982 10.8964 3.78129C10.8489 3.80277 10.8065 3.82786 10.8023 3.83704C10.7981 3.84623 10.775 3.85377 10.7509 3.85377C10.7268 3.85377 10.7071 3.8616 10.7071 3.87119C10.7071 3.88075 10.6788 3.90013 10.6442 3.91423C10.6097 3.92832 10.5505 3.95811 10.5128 3.98043C10.4751 4.00276 10.4391 4.02606 10.4328 4.03222C10.4266 4.03835 10.3906 4.05842 10.3529 4.07682C10.3151 4.09519 10.2707 4.12278 10.2541 4.1381C10.2375 4.15344 10.2139 4.16597 10.2016 4.16597C10.1894 4.16597 10.1537 4.19106 10.1222 4.22172C10.0908 4.25238 10.0568 4.27747 10.0467 4.27747C10.0365 4.27747 9.99596 4.30758 9.95649 4.34437C9.91704 4.38117 9.87908 4.41127 9.87216 4.41127C9.86523 4.41127 9.84407 4.42383 9.82514 4.43915C9.8062 4.45449 9.76597 4.48961 9.73572 4.5172C9.70548 4.54481 9.67437 4.56737 9.66663 4.56737C9.65888 4.56737 9.63783 4.58171 9.61989 4.59924C9.60192 4.61675 9.58723 4.63753 9.58723 4.64542C9.58723 4.65332 9.57254 4.6741 9.55457 4.69161C9.53663 4.70914 9.51558 4.72347 9.50783 4.72347C9.50009 4.72347 9.4685 4.74812 9.43765 4.77822C9.40679 4.80833 9.38154 4.84345 9.38154 4.85627C9.38154 4.86909 9.3708 4.87958 9.35766 4.87958C9.34452 4.87958 9.30852 4.90422 9.27767 4.93432C9.24681 4.96443 9.22156 4.99525 9.22156 5.00281C9.22156 5.01037 9.20686 5.0309 9.1889 5.04841C9.17096 5.06594 9.14525 5.08028 9.13176 5.08028C9.1183 5.08028 9.10729 5.09074 9.10729 5.10351C9.10729 5.11629 9.09444 5.14234 9.07872 5.16138C9.06302 5.18045 9.02702 5.22061 8.99873 5.25067C8.97044 5.28071 8.94731 5.31267 8.94731 5.32168C8.94731 5.33066 8.92674 5.35249 8.9016 5.37018C8.87646 5.38786 8.85589 5.41877 8.85589 5.43888C8.85589 5.45898 8.83018 5.49428 8.79875 5.51729C8.76733 5.54033 8.74162 5.57686 8.74162 5.59846C8.74162 5.6201 8.73133 5.63778 8.71876 5.63778C8.70619 5.63778 8.69591 5.65283 8.69591 5.67123C8.69591 5.68963 8.68821 5.70475 8.67877 5.70481C8.66933 5.7049 8.64362 5.73581 8.62163 5.77352C8.59964 5.81123 8.58164 5.85634 8.58164 5.87374C8.58164 5.89113 8.57345 5.90538 8.56347 5.90538C8.55348 5.90538 8.52621 5.95054 8.50288 6.00573C8.47957 6.06092 8.45173 6.10608 8.44106 6.10608C8.43038 6.10608 8.42165 6.12615 8.42165 6.15068C8.42165 6.17521 8.41137 6.19528 8.3988 6.19528C8.38623 6.19528 8.37595 6.22037 8.37595 6.25103C8.37595 6.2817 8.36792 6.30678 8.35812 6.30678C8.34831 6.30678 8.32034 6.35696 8.29595 6.41828C8.27157 6.47961 8.2436 6.52978 8.23379 6.52978C8.22399 6.52978 8.21596 6.56491 8.21596 6.60783C8.21596 6.65076 8.20568 6.68588 8.19311 6.68588C8.18054 6.68588 8.16994 6.71349 8.16952 6.74721C8.16914 6.78093 8.15371 6.82803 8.13524 6.85182C8.1168 6.87564 8.10169 6.91769 8.10169 6.94528C8.10169 6.97289 8.09141 7.00165 8.07884 7.00924C8.06627 7.01682 8.05598 7.06256 8.05598 7.1109C8.05598 7.15925 8.04668 7.19879 8.03535 7.19879C8.02399 7.19879 8.00929 7.24644 8.00271 7.30471C7.99613 7.36298 7.97318 7.49594 7.95172 7.60019C7.92345 7.73754 7.9101 7.94174 7.90322 8.34167C7.89555 8.78966 7.88787 8.8936 7.86245 8.8936C7.84524 8.8936 7.79951 8.87605 7.76086 8.85457C7.72222 8.83312 7.69054 8.80803 7.69045 8.79882C7.69038 8.78961 7.65432 8.7821 7.61032 8.7821C7.56633 8.7821 7.53033 8.77206 7.53033 8.7598C7.53033 8.74753 7.51573 8.7375 7.4979 8.7375C7.48007 8.7375 7.43121 8.72075 7.38934 8.70028C7.34747 8.67981 7.29537 8.65472 7.27354 8.64453C7.25171 8.63434 7.20799 8.626 7.17641 8.626C7.1448 8.626 7.11895 8.61701 7.11895 8.60604C7.11895 8.59507 7.0804 8.5807 7.03325 8.57415C6.98612 8.56759 6.89422 8.5522 6.82909 8.53994C6.76393 8.52767 6.69004 8.50691 6.66488 8.49378C6.63974 8.48064 6.54135 8.46989 6.44626 8.46989C6.34622 8.46989 6.27334 8.46051 6.27334 8.44759C6.27334 8.43366 6.13621 8.42529 5.90767 8.42529C5.67912 8.42529 5.542 8.43366 5.542 8.44759C5.542 8.46022 5.4751 8.47005 5.38773 8.47023C5.30287 8.47041 5.19232 8.48504 5.14204 8.5027C5.09176 8.52038 5.01719 8.53528 4.97635 8.53581C4.93551 8.53635 4.90207 8.54683 4.90207 8.5591C4.90207 8.57136 4.86093 8.5814 4.81066 8.5814C4.76038 8.5814 4.71924 8.59143 4.71924 8.60369C4.71924 8.61596 4.69382 8.626 4.66276 8.626C4.63168 8.626 4.54813 8.65108 4.47707 8.68175C4.40602 8.71241 4.32859 8.7375 4.30502 8.7375C4.28144 8.7375 4.26215 8.74753 4.26215 8.7598C4.26215 8.77206 4.24158 8.7821 4.21644 8.7821C4.1913 8.7821 4.17073 8.79104 4.17073 8.80199C4.17073 8.81291 4.14502 8.82817 4.1136 8.83586C4.08217 8.84356 4.05646 8.8597 4.05646 8.87172C4.05646 8.88376 4.03075 8.8936 3.99932 8.8936C3.9679 8.8936 3.94219 8.90363 3.94219 8.9159C3.94219 8.92816 3.92162 8.9382 3.89648 8.9382C3.87134 8.9382 3.85077 8.94823 3.85077 8.9605C3.85077 8.97276 3.83781 8.9828 3.82197 8.9828C3.80613 8.9828 3.76543 9.00788 3.73154 9.03855C3.69767 9.06921 3.65406 9.0943 3.63466 9.0943C3.61525 9.0943 3.59937 9.10433 3.59937 9.1166C3.59937 9.12886 3.58835 9.1389 3.57489 9.1389C3.56141 9.1389 3.53606 9.15145 3.51853 9.16677C3.50103 9.18212 3.47134 9.2072 3.45258 9.22252C3.43381 9.23787 3.41279 9.2504 3.40586 9.2504C3.39894 9.2504 3.36098 9.2805 3.32153 9.3173C3.28206 9.35409 3.24147 9.3842 3.23132 9.3842C3.22115 9.3842 3.11726 9.47773 3.00045 9.59201C2.88362 9.70632 2.76491 9.82683 2.73662 9.85979C2.70835 9.89278 2.68519 9.92536 2.68519 9.93223C2.68519 9.93909 2.6492 9.97783 2.6052 10.0183C2.56121 10.0588 2.52521 10.1083 2.52521 10.1283C2.52521 10.1483 2.51493 10.1647 2.50236 10.1647C2.48979 10.1647 2.4795 10.1755 2.4795 10.1886C2.4795 10.2017 2.46666 10.2265 2.45094 10.2436C2.43523 10.2607 2.4095 10.2896 2.3938 10.3079C2.37808 10.3262 2.36523 10.3517 2.36523 10.3645C2.36523 10.3772 2.35495 10.3877 2.34238 10.3877C2.32981 10.3877 2.31952 10.4078 2.31952 10.4323C2.31952 10.4568 2.31036 10.4769 2.29914 10.4769C2.28794 10.4769 2.27231 10.502 2.26442 10.5327C2.25654 10.5633 2.23999 10.5884 2.22767 10.5884C2.21533 10.5884 2.20525 10.6085 2.20525 10.633C2.20525 10.6575 2.19497 10.6776 2.1824 10.6776C2.16983 10.6776 2.15954 10.7027 2.15954 10.7334C2.15954 10.764 2.14926 10.7891 2.13669 10.7891C2.12412 10.7891 2.11383 10.8027 2.11383 10.8192C2.11383 10.8358 2.08812 10.8965 2.0567 10.9542C2.02527 11.0119 1.99956 11.0786 1.99956 11.1025C1.99956 11.1264 1.98928 11.1459 1.97671 11.1459C1.96414 11.1459 1.95385 11.181 1.95385 11.224C1.95385 11.2669 1.94473 11.302 1.9336 11.302C1.92245 11.302 1.90638 11.3472 1.8979 11.4024C1.88943 11.4576 1.87283 11.5027 1.86104 11.5027C1.84922 11.5027 1.83958 11.5529 1.83958 11.6142C1.83958 11.6755 1.83012 11.7257 1.81853 11.7257C1.80694 11.7257 1.79079 11.8035 1.7826 11.8985C1.77442 11.9936 1.76773 12.257 1.76773 12.4839C1.76773 12.7108 1.77442 12.9742 1.7826 13.0693C1.79079 13.1644 1.80694 13.2421 1.81853 13.2421C1.83012 13.2421 1.83958 13.2923 1.83958 13.3536C1.83958 13.4149 1.8487 13.4651 1.85983 13.4651C1.87098 13.4651 1.88705 13.5103 1.89553 13.5655C1.90401 13.6207 1.9206 13.6658 1.93239 13.6658C1.94421 13.6658 1.95385 13.7009 1.95385 13.7439C1.95385 13.7868 1.96414 13.8219 1.97671 13.8219C1.98928 13.8219 1.99956 13.843 1.99956 13.8688C1.99956 13.8945 2.02742 13.9748 2.06145 14.0472C2.0955 14.1195 2.1315 14.1787 2.14144 14.1787C2.15141 14.1787 2.15954 14.2038 2.15954 14.2345C2.15954 14.2651 2.16983 14.2902 2.1824 14.2902C2.19497 14.2902 2.20525 14.3091 2.20525 14.3321C2.20525 14.3551 2.22068 14.3865 2.23953 14.4017C2.25839 14.417 2.27381 14.4433 2.27381 14.4602C2.27381 14.4771 2.2841 14.4909 2.29667 14.4909C2.30924 14.4909 2.31952 14.511 2.31952 14.5355C2.31952 14.5601 2.32981 14.5801 2.34238 14.5801C2.35495 14.5801 2.36523 14.5952 2.36523 14.6136C2.36523 14.632 2.37319 14.647 2.3829 14.647C2.39261 14.647 2.41992 14.6821 2.44362 14.7251C2.46732 14.768 2.49536 14.8031 2.50595 14.8031C2.51655 14.8031 2.52521 14.8195 2.52521 14.8395C2.52521 14.8595 2.56121 14.909 2.6052 14.9495C2.6492 14.99 2.68519 15.0339 2.68519 15.0471C2.68519 15.0602 2.73147 15.1155 2.78804 15.1699C2.8446 15.2243 2.89088 15.2795 2.89088 15.2924C2.89088 15.3054 2.90162 15.316 2.91477 15.316C2.92791 15.316 2.9639 15.3407 2.99476 15.3708C3.02561 15.4009 3.05086 15.436 3.05086 15.4488C3.05086 15.4617 3.0303 15.4721 3.00516 15.4721C2.98002 15.4721 2.95945 15.4822 2.95945 15.4944C2.95945 15.5067 2.93374 15.5167 2.90231 15.5167C2.87089 15.5167 2.84511 15.5242 2.84504 15.5335C2.84495 15.5427 2.81327 15.5678 2.77462 15.5892C2.73598 15.6107 2.68974 15.6282 2.67192 15.6282C2.65409 15.6282 2.63948 15.6383 2.63948 15.6505C2.63948 15.6628 2.62406 15.6728 2.6052 15.6728C2.58635 15.6728 2.57092 15.6829 2.57092 15.6951C2.57092 15.7074 2.55035 15.7174 2.52521 15.7174C2.50007 15.7174 2.4795 15.7252 2.4795 15.7347C2.4795 15.7441 2.44351 15.7708 2.39951 15.7939C2.35552 15.817 2.31952 15.8444 2.31952 15.8547C2.31952 15.8651 2.30362 15.8735 2.28414 15.8735C2.2647 15.8735 2.22495 15.8986 2.19583 15.9293C2.1667 15.9599 2.1312 15.985 2.11692 15.985C2.10266 15.985 2.09098 15.9951 2.09098 16.0073C2.09098 16.0196 2.07487 16.0296 2.05517 16.0296C2.03547 16.0296 1.98539 16.0648 1.94391 16.1077C1.90241 16.1506 1.85768 16.1857 1.84452 16.1857C1.83135 16.1857 1.69628 16.3053 1.54439 16.4515C1.3925 16.5977 1.26822 16.7235 1.26822 16.7312C1.26822 16.7388 1.25796 16.7572 1.24543 16.7721C1.23291 16.7869 1.19435 16.8301 1.15973 16.868C1.12513 16.906 1.07624 16.9648 1.0511 16.9987C1.02596 17.0326 0.992549 17.0736 0.976825 17.0898C0.961124 17.1059 0.948257 17.1256 0.948257 17.1335C0.948257 17.1414 0.935413 17.1618 0.919689 17.1789C0.903988 17.196 0.878277 17.225 0.862553 17.2433C0.846852 17.2616 0.833985 17.287 0.833985 17.2998C0.833985 17.3126 0.823701 17.323 0.811131 17.323C0.798561 17.323 0.788276 17.3431 0.788276 17.3676C0.788276 17.3922 0.777992 17.4122 0.765422 17.4122C0.752852 17.4122 0.742567 17.423 0.742567 17.4361C0.742567 17.4493 0.729723 17.474 0.713999 17.4911C0.698298 17.5082 0.672587 17.5372 0.656863 17.5555C0.641162 17.5738 0.628295 17.6093 0.628295 17.6343C0.628295 17.6593 0.618011 17.6798 0.605441 17.6798C0.592871 17.6798 0.582586 17.6999 0.582586 17.7244C0.582586 17.749 0.573422 17.769 0.5622 17.769C0.551002 17.769 0.535369 17.7941 0.527484 17.8248C0.5196 17.8555 0.503053 17.8805 0.490735 17.8805C0.478393 17.8805 0.468314 17.9056 0.468314 17.9363C0.468314 17.967 0.45803 17.992 0.44546 17.992C0.43289 17.992 0.422606 18.0171 0.422606 18.0478C0.422606 18.0785 0.414835 18.1035 0.40535 18.1035C0.395843 18.1035 0.37452 18.1412 0.357927 18.1872C0.341358 18.2332 0.322229 18.2984 0.315464 18.3321C0.308699 18.3659 0.294027 18.3934 0.282896 18.3934C0.271743 18.3934 0.262625 18.4185 0.262625 18.4492C0.262625 18.4799 0.25234 18.5049 0.23977 18.5049C0.2272 18.5049 0.21655 18.5375 0.216116 18.5774C0.215659 18.6173 0.200598 18.675 0.182634 18.7056C0.16467 18.7363 0.149609 18.794 0.149152 18.8339C0.148718 18.8737 0.138068 18.9064 0.125498 18.9064C0.112928 18.9064 0.102644 18.9615 0.102644 19.029C0.102644 19.0965 0.0931818 19.1517 0.0815946 19.1517C0.0700075 19.1517 0.0551064 19.2244 0.0484786 19.3133C0.0418279 19.4023 0.0264012 19.6255 0.0141969 19.8095C0.00199268 19.9935 -0.00790329 21.1575 -0.00781187 22.3963C-0.00772045 23.6351 0.00142132 24.7339 0.0125057 24.8382C0.0235901 24.9424 0.0391997 25.0704 0.0471987 25.1225C0.0551978 25.1746 0.0709445 25.2173 0.0821889 25.2173C0.0934332 25.2173 0.102644 25.2474 0.102644 25.2842C0.102644 25.321 0.112928 25.3511 0.125498 25.3511C0.138068 25.3511 0.148352 25.3704 0.148352 25.3941C0.148352 25.4177 0.163779 25.4522 0.182634 25.4705C0.201489 25.4889 0.216916 25.5147 0.216916 25.5279C0.216916 25.541 0.2272 25.5518 0.23977 25.5518C0.25234 25.5518 0.262625 25.5683 0.262625 25.5886C0.262625 25.6088 0.29862 25.6595 0.342615 25.7011C0.38661 25.7428 0.422606 25.7893 0.422606 25.8045C0.422606 25.8197 0.456019 25.8511 0.496882 25.8743C0.537723 25.8975 0.587797 25.9348 0.608115 25.9572C0.628455 25.9795 0.652315 25.9978 0.661183 25.9978C0.670027 25.9978 0.691602 26.0103 0.709131 26.0257C0.726638 26.041 0.756326 26.0661 0.775089 26.0814C0.793853 26.0967 0.81993 26.1093 0.833025 26.1093C0.846121 26.1093 0.85684 26.1193 0.85684 26.1316C0.85684 26.1439 0.871969 26.1539 0.890458 26.1539C0.908971 26.1539 0.982242 26.179 1.0533 26.2096C1.12435 26.2403 1.21207 26.2654 1.2482 26.2654C1.28435 26.2654 1.31393 26.2754 1.31393 26.2877C1.31393 26.3025 4.28882 26.31 10.1929 26.31C16.0969 26.31 19.0718 26.3025 19.0718 26.2877C19.0718 26.2754 19.1181 26.2654 19.1747 26.2654C19.2312 26.2654 19.2775 26.2558 19.2775 26.2441C19.2775 26.2324 19.3135 26.2162 19.3575 26.2082C19.4015 26.2001 19.4375 26.1846 19.4375 26.1737C19.4375 26.1628 19.4632 26.1539 19.4946 26.1539C19.526 26.1539 19.5518 26.1439 19.5518 26.1316C19.5518 26.1193 19.5664 26.1093 19.5842 26.1093C19.602 26.1093 19.6483 26.0917 19.6869 26.0703C19.7255 26.0488 19.7572 26.0237 19.7573 26.0145C19.7574 26.0053 19.778 25.9978 19.8032 25.9978C19.8283 25.9978 19.8489 25.9894 19.8489 25.9793C19.8489 25.9691 19.8746 25.9473 19.906 25.9309C19.9374 25.9145 19.9631 25.892 19.9631 25.8809C19.9631 25.8699 19.9778 25.8465 19.9958 25.829C20.0137 25.8114 20.0348 25.7971 20.0425 25.7971C20.0503 25.7971 20.0819 25.7724 20.1127 25.7423C20.1436 25.7122 20.1688 25.6795 20.1688 25.6696C20.1688 25.6597 20.1945 25.6327 20.226 25.6097C20.2574 25.5867 20.2831 25.5542 20.2831 25.5375C20.2831 25.5208 20.2934 25.5072 20.306 25.5072C20.3185 25.5072 20.3288 25.4921 20.3288 25.4737C20.3288 25.4553 20.338 25.4403 20.3492 25.4403C20.3604 25.4403 20.376 25.4152 20.3839 25.3845C20.3918 25.3539 20.4083 25.3288 20.4207 25.3288C20.433 25.3288 20.4431 25.3087 20.4431 25.2842C20.4431 25.2597 20.4534 25.2396 20.4659 25.2396C20.4785 25.2396 20.4888 25.2145 20.4888 25.1838C20.4888 25.1532 20.497 25.1281 20.5071 25.1281C20.5172 25.1281 20.5387 25.0754 20.5548 25.011C20.571 24.9466 20.5894 24.8413 20.5957 24.7769C20.6021 24.7125 20.6166 24.6598 20.628 24.6598C20.6404 24.6598 20.6488 23.3069 20.6488 21.3259C20.6488 19.1182 20.641 17.992 20.6259 17.992C20.6125 17.992 20.6031 17.9146 20.6031 17.8045C20.6031 17.7013 20.5876 17.5382 20.5688 17.4421C20.5499 17.3459 20.5345 17.2347 20.5345 17.1948C20.5345 17.1549 20.5242 17.1223 20.5116 17.1223C20.4991 17.1223 20.4888 17.0722 20.4888 17.0108C20.4888 16.9495 20.4785 16.8993 20.4659 16.8993C20.4534 16.8993 20.4431 16.8542 20.4431 16.799C20.4431 16.7438 20.4334 16.6986 20.4216 16.6986C20.4098 16.6986 20.3932 16.6535 20.3848 16.5983C20.3763 16.5431 20.3602 16.4979 20.3491 16.4979C20.3379 16.4979 20.3288 16.4628 20.3288 16.4199C20.3288 16.377 20.3185 16.3418 20.306 16.3418C20.2934 16.3418 20.2831 16.3067 20.2831 16.2638C20.2831 16.2209 20.274 16.1857 20.2628 16.1857C20.2516 16.1857 20.2357 16.1506 20.2275 16.1077C20.2192 16.0648 20.2027 16.0296 20.1907 16.0296C20.1787 16.0296 20.1688 16.0045 20.1688 15.9739C20.1688 15.9432 20.1585 15.9181 20.146 15.9181C20.1334 15.9181 20.1231 15.888 20.1231 15.8512C20.1231 15.8144 20.114 15.7843 20.1027 15.7843C20.0915 15.7843 20.0759 15.7592 20.068 15.7286C20.0601 15.6979 20.0436 15.6728 20.0313 15.6728C20.0189 15.6728 20.0088 15.6477 20.0088 15.6171C20.0088 15.5864 19.9986 15.5613 19.986 15.5613C19.9734 15.5613 19.9631 15.5421 19.9631 15.5186C19.9631 15.4951 19.9554 15.4725 19.946 15.4684C19.9366 15.4643 19.9006 15.4056 19.866 15.338C19.8314 15.2703 19.8032 15.2026 19.8032 15.1874C19.8032 15.1723 19.7945 15.1599 19.7839 15.1599C19.7733 15.1599 19.7453 15.1248 19.7216 15.0819C19.6979 15.039 19.6706 15.0038 19.6608 15.0038C19.6511 15.0038 19.6432 14.9838 19.6432 14.9592C19.6432 14.9347 19.6329 14.9146 19.6203 14.9146C19.6078 14.9146 19.5975 14.9039 19.5975 14.8907C19.5975 14.8776 19.5846 14.8529 19.5689 14.8358C19.5532 14.8187 19.5275 14.7897 19.5118 14.7714C19.4961 14.7531 19.4832 14.7276 19.4832 14.7149C19.4832 14.7021 19.4729 14.6916 19.4603 14.6916C19.4478 14.6916 19.4375 14.6787 19.4375 14.6628C19.4375 14.647 19.4015 14.5968 19.3575 14.5513C19.3135 14.5058 19.2775 14.4585 19.2775 14.4463C19.2775 14.434 19.2672 14.424 19.2547 14.424C19.2421 14.424 19.2318 14.404 19.2318 14.3794C19.2318 14.3549 19.2208 14.3348 19.2073 14.3348C19.1938 14.3348 19.1681 14.3205 19.1502 14.303C19.1322 14.2855 19.1175 14.2654 19.1175 14.2584C19.1175 14.2514 19.0815 14.2085 19.0375 14.163C18.9935 14.1175 18.9575 14.0716 18.9575 14.061C18.9575 14.0504 18.9428 14.0274 18.9249 14.0099C18.9069 13.9924 18.8856 13.978 18.8776 13.978C18.8695 13.978 18.8482 13.9637 18.8302 13.9462C18.8123 13.9287 18.7976 13.9079 18.7976 13.9C18.7976 13.8921 18.7829 13.8713 18.7649 13.8538C18.747 13.8363 18.7259 13.8219 18.7182 13.8219C18.7104 13.8219 18.6788 13.7973 18.648 13.7672C18.6171 13.7371 18.5919 13.7019 18.5919 13.6891C18.5919 13.6763 18.5817 13.6658 18.5692 13.6658C18.5567 13.6658 18.5192 13.6432 18.4859 13.6156C18.4525 13.5881 18.4014 13.5429 18.3724 13.5153C18.3434 13.4877 18.3114 13.4651 18.3012 13.4651C18.2911 13.4651 18.2635 13.44 18.2398 13.4094C18.2163 13.3787 18.183 13.3536 18.1659 13.3536C18.1488 13.3536 18.1348 13.3436 18.1348 13.3313C18.1348 13.3191 18.1238 13.309 18.1104 13.309C18.097 13.309 18.0521 13.2739 18.0106 13.231C17.9691 13.188 17.9183 13.1529 17.8978 13.1529C17.8773 13.1529 17.8605 13.1429 17.8605 13.1306C17.8605 13.1184 17.8495 13.1083 17.8361 13.1083C17.8226 13.1083 17.7972 13.0958 17.7797 13.0804C17.7622 13.0651 17.7325 13.04 17.7137 13.0247C17.695 13.0094 17.6689 12.9968 17.6558 12.9968C17.6427 12.9968 17.632 12.9868 17.632 12.9745C17.632 12.9623 17.6158 12.9522 17.5961 12.9522C17.5763 12.9522 17.5458 12.9397 17.5283 12.9243C17.5108 12.909 17.4811 12.8839 17.4623 12.8686C17.4436 12.8533 17.4175 12.8407 17.4044 12.8407C17.3913 12.8407 17.3806 12.8307 17.3806 12.8184C17.3806 12.8062 17.3549 12.7961 17.3235 12.7961C17.292 12.7961 17.2663 12.7861 17.2663 12.7738C17.2663 12.7616 17.2457 12.7515 17.2206 12.7515C17.1952 12.7515 17.1749 12.7366 17.1749 12.7181C17.1749 12.6973 17.1533 12.6846 17.1178 12.6846C17.0863 12.6846 17.0606 12.6746 17.0606 12.6623C17.0606 12.6501 17.0401 12.64 17.0149 12.64C16.9898 12.64 16.9692 12.63 16.9692 12.6177C16.9692 12.6055 16.9435 12.5954 16.9121 12.5954C16.8806 12.5954 16.8549 12.5856 16.8549 12.5735C16.8549 12.5615 16.8292 12.5454 16.7978 12.5377C16.7664 12.53 16.7407 12.5147 16.7407 12.5038C16.7407 12.4929 16.7098 12.4839 16.6721 12.4839C16.6344 12.4839 16.6035 12.4739 16.6035 12.4616C16.6035 12.4494 16.5778 12.4393 16.5464 12.4393C16.515 12.4393 16.4893 12.4304 16.4893 12.4194C16.4893 12.4085 16.4636 12.3932 16.4321 12.3855C16.4007 12.3779 16.375 12.3617 16.375 12.3497C16.375 12.3377 16.3856 12.3278 16.3986 12.3278C16.4116 12.3278 16.4573 12.2952 16.5002 12.2553C16.5431 12.2155 16.5938 12.1703 16.6127 12.155C16.6318 12.1397 16.658 12.1271 16.6711 12.1271C16.6842 12.1271 16.695 12.1164 16.695 12.1032C16.695 12.0901 16.7097 12.065 16.7276 12.0475C16.7456 12.03 16.7669 12.0156 16.7749 12.0156C16.783 12.0156 16.8043 12.0013 16.8223 11.9837C16.8402 11.9662 16.8549 11.9459 16.8549 11.9385C16.8549 11.9312 16.8883 11.8901 16.9292 11.8472C16.9701 11.8044 17.0421 11.7294 17.0892 11.6806C17.1363 11.6318 17.1749 11.5864 17.1749 11.5798C17.1749 11.5731 17.198 11.5434 17.2263 11.5139C17.2546 11.4844 17.2906 11.4452 17.3063 11.4267C17.322 11.4082 17.3349 11.3849 17.3349 11.3748C17.3349 11.3647 17.3554 11.342 17.3806 11.3243C17.4057 11.3066 17.4263 11.2798 17.4263 11.2647C17.4263 11.2495 17.452 11.2121 17.4834 11.1814C17.5149 11.1507 17.5406 11.1094 17.5406 11.0896C17.5406 11.0698 17.5534 11.0395 17.5691 11.0224C17.5849 11.0054 17.6106 10.9764 17.6263 10.9581C17.642 10.9398 17.6548 10.9143 17.6548 10.9015C17.6548 10.8888 17.6651 10.8783 17.6777 10.8783C17.6903 10.8783 17.7006 10.8582 17.7006 10.8337C17.7006 10.8092 17.7108 10.7891 17.7234 10.7891C17.736 10.7891 17.7463 10.764 17.7463 10.7334C17.7463 10.7027 17.754 10.6775 17.7634 10.6775C17.7728 10.6774 17.7985 10.6465 17.8205 10.6088C17.8425 10.5711 17.8605 10.5259 17.8605 10.5085C17.8605 10.4912 17.8708 10.4769 17.8834 10.4769C17.896 10.4769 17.9062 10.4574 17.9062 10.4335C17.9062 10.4096 17.932 10.3429 17.9634 10.2852C17.9948 10.2275 18.0205 10.1568 18.0205 10.1279C18.0205 10.0991 18.0308 10.0755 18.0434 10.0755C18.0559 10.0755 18.0662 10.0404 18.0662 9.99745C18.0662 9.95452 18.0765 9.9194 18.0891 9.9194C18.1016 9.9194 18.1123 9.89683 18.1127 9.86923C18.1132 9.84162 18.1282 9.79396 18.1462 9.7633C18.1642 9.73264 18.1792 9.67495 18.1797 9.63508C18.1801 9.5952 18.1908 9.5626 18.2033 9.5626C18.2159 9.5626 18.2262 9.51243 18.2262 9.4511C18.2262 9.38977 18.2356 9.3396 18.2472 9.3396C18.2587 9.3396 18.2736 9.27187 18.2801 9.18907C18.2867 9.1063 18.3023 8.95827 18.3147 8.86015C18.3271 8.76203 18.3371 8.55129 18.337 8.39184C18.3369 8.2324 18.3269 8.01664 18.3147 7.91239C18.3026 7.80814 18.2871 7.66013 18.2803 7.58347C18.2736 7.50682 18.2596 7.44409 18.2493 7.44409C18.239 7.44409 18.2253 7.39643 18.2188 7.33816C18.2123 7.27989 18.1966 7.18708 18.1838 7.13189C18.1711 7.07669 18.1475 6.98888 18.1316 6.93676C18.1156 6.88465 18.0943 6.84199 18.0843 6.84199C18.0744 6.84199 18.0662 6.80686 18.0662 6.76394C18.0662 6.72101 18.0559 6.68588 18.0434 6.68588C18.0308 6.68588 18.0205 6.66151 18.0205 6.63172C18.0205 6.60195 18.0051 6.56252 17.9862 6.54412C17.9674 6.52573 17.9519 6.48989 17.9519 6.46447C17.9519 6.43907 17.9417 6.41828 17.9291 6.41828C17.9165 6.41828 17.9062 6.3932 17.9062 6.36253C17.9062 6.33187 17.896 6.30678 17.8834 6.30678C17.8708 6.30678 17.8605 6.29441 17.8605 6.27926C17.8605 6.26412 17.8323 6.1964 17.7977 6.12874C17.7631 6.06108 17.7271 6.00239 17.7177 5.99831C17.7083 5.9942 17.7006 5.97163 17.7006 5.94813C17.7006 5.92463 17.6903 5.90538 17.6777 5.90538C17.6651 5.90538 17.6548 5.89156 17.6548 5.87465C17.6548 5.85777 17.6394 5.83146 17.6206 5.81618C17.6017 5.8009 17.5863 5.76957 17.5863 5.74656C17.5863 5.72352 17.576 5.70468 17.5634 5.70468C17.5509 5.70468 17.5406 5.69422 17.5406 5.68144C17.5406 5.66866 17.5277 5.64309 17.512 5.62462C17.4963 5.60614 17.4603 5.56689 17.432 5.53736C17.4037 5.50786 17.3806 5.4732 17.3806 5.46038C17.3806 5.44756 17.3703 5.43708 17.3577 5.43708C17.3452 5.43708 17.3349 5.42071 17.3349 5.40068C17.3349 5.38068 17.2989 5.33118 17.2549 5.29068C17.2109 5.2502 17.1749 5.20708 17.1749 5.19488C17.1749 5.18266 17.1286 5.12552 17.0721 5.06792C17.0155 5.01032 16.9692 4.95441 16.9692 4.94369C16.9692 4.93296 16.9582 4.92418 16.9447 4.92418C16.9312 4.92418 16.9055 4.90984 16.8876 4.89231C16.8696 4.8748 16.8549 4.85426 16.8549 4.84671C16.8549 4.83915 16.8297 4.80833 16.7988 4.77822C16.768 4.74812 16.7378 4.72347 16.7318 4.72347C16.7258 4.72347 16.6586 4.66326 16.5825 4.58967C16.5064 4.51608 16.4352 4.45587 16.4244 4.45587C16.4135 4.45587 16.3723 4.42577 16.3329 4.38897C16.2934 4.35218 16.2552 4.32207 16.2479 4.32207C16.2406 4.32207 16.2203 4.30954 16.2027 4.2942C16.1852 4.27888 16.1555 4.25379 16.1368 4.23845C16.118 4.22313 16.0964 4.21057 16.0887 4.21057C16.0809 4.21057 16.0603 4.19804 16.0428 4.1827C16.0253 4.16738 15.9956 4.14229 15.9768 4.12695C15.958 4.11163 15.932 4.09907 15.9189 4.09907C15.9058 4.09907 15.8951 4.08904 15.8951 4.07677C15.8951 4.06451 15.8745 4.05447 15.8493 4.05447C15.8242 4.05447 15.8036 4.04689 15.8036 4.03761C15.8036 4.02834 15.7702 4.00639 15.7294 3.98882C15.6885 3.97125 15.6415 3.94371 15.6249 3.92761C15.6083 3.91153 15.58 3.89837 15.562 3.89837C15.5441 3.89837 15.5294 3.88834 15.5294 3.87607C15.5294 3.86381 15.515 3.85377 15.4974 3.85377C15.4799 3.85377 15.4207 3.82879 15.366 3.79829C15.3113 3.76778 15.2485 3.74269 15.2266 3.74254C15.2046 3.74238 15.1866 3.73223 15.1866 3.71997C15.1866 3.7077 15.1609 3.69767 15.1294 3.69767C15.098 3.69767 15.0723 3.68763 15.0723 3.67537C15.0723 3.6631 15.0521 3.65307 15.0274 3.65307C15.0027 3.65307 14.9435 3.63552 14.8959 3.61404C14.8484 3.59257 14.806 3.56748 14.8019 3.55829C14.7976 3.54911 14.7488 3.54157 14.6933 3.54157C14.6378 3.54157 14.5923 3.53153 14.5923 3.51927C14.5923 3.507 14.5564 3.49697 14.5124 3.49697C14.4684 3.49697 14.4324 3.48756 14.4324 3.47603C14.4324 3.46452 14.3835 3.44896 14.3238 3.44144C14.2641 3.43393 14.1974 3.41827 14.1756 3.40663C14.1537 3.39499 14.0843 3.38547 14.0213 3.38547C13.9583 3.38547 13.9067 3.3767 13.9067 3.36598C13.9067 3.35525 13.791 3.34015 13.6496 3.33242C13.5082 3.32468 13.2896 3.3142 13.1639 3.30911C13.0382 3.30401 12.884 3.3082 12.8211 3.31841ZM13.3125 4.85728C13.3125 4.87057 13.4001 4.87958 13.5296 4.87958C13.649 4.87958 13.7467 4.88865 13.7467 4.89971C13.7467 4.9108 13.7956 4.92478 13.8553 4.93078C13.915 4.93678 14.0153 4.95386 14.0781 4.96873C14.141 4.98361 14.2022 5.00475 14.2141 5.01572C14.226 5.02669 14.2646 5.03568 14.2998 5.03568C14.335 5.03568 14.3638 5.04571 14.3638 5.05798C14.3638 5.07024 14.3886 5.08028 14.419 5.08028C14.4494 5.08028 14.4777 5.08781 14.4819 5.097C14.4861 5.10619 14.5284 5.13128 14.576 5.15275C14.6235 5.17423 14.6775 5.19178 14.696 5.19178C14.7144 5.19178 14.7295 5.20181 14.7295 5.21408C14.7295 5.22634 14.745 5.23638 14.7641 5.23638C14.7831 5.23638 14.8211 5.24893 14.8486 5.26425C14.8761 5.27959 14.9123 5.30216 14.9291 5.31443C14.9459 5.32669 14.9739 5.34928 14.9915 5.3646C15.009 5.37995 15.04 5.39248 15.0603 5.39248C15.0806 5.39248 15.1229 5.41757 15.1544 5.44823C15.1858 5.47889 15.2187 5.504 15.2276 5.504C15.2365 5.50402 15.2714 5.52726 15.3052 5.55565C15.339 5.58401 15.3947 5.62665 15.4288 5.65038C15.463 5.67411 15.5406 5.74119 15.6013 5.79946C15.662 5.85773 15.722 5.90538 15.7348 5.90538C15.7475 5.90538 15.7579 5.91575 15.7579 5.92842C15.7579 5.94111 15.7913 5.98571 15.8322 6.02756C15.8731 6.06942 15.9193 6.11884 15.935 6.13737C15.9508 6.15592 15.9636 6.17934 15.9636 6.18942C15.9636 6.1995 15.9842 6.2222 16.0093 6.23988C16.0345 6.25757 16.055 6.28245 16.055 6.29521C16.055 6.30796 16.0807 6.34545 16.1122 6.37852C16.1436 6.41157 16.1693 6.4491 16.1693 6.4619C16.1693 6.4747 16.1796 6.48518 16.1922 6.48518C16.2047 6.48518 16.215 6.50066 16.215 6.51957C16.215 6.53848 16.2279 6.56894 16.2436 6.58725C16.2593 6.60556 16.285 6.63453 16.3007 6.65161C16.3164 6.66871 16.3293 6.70348 16.3293 6.7289C16.3293 6.7543 16.337 6.77513 16.3464 6.77517C16.3559 6.77522 16.3826 6.82038 16.4058 6.87553C16.4291 6.93067 16.4574 6.97579 16.4687 6.97579C16.48 6.97579 16.4893 7.00087 16.4893 7.03154C16.4893 7.0622 16.4995 7.08729 16.5121 7.08729C16.5247 7.08729 16.535 7.12241 16.535 7.16534C16.535 7.20827 16.5431 7.24339 16.5531 7.24339C16.5631 7.24339 16.5888 7.29898 16.6103 7.36693C16.6317 7.43486 16.6492 7.51514 16.6492 7.54533C16.6492 7.5755 16.6595 7.60019 16.6721 7.60019C16.6847 7.60019 16.695 7.65338 16.695 7.71838C16.695 7.78339 16.7065 7.84779 16.7205 7.86148C16.7377 7.87832 16.746 8.04499 16.746 8.37543C16.746 8.69296 16.7371 8.8808 16.7205 8.91101C16.7065 8.93661 16.695 9.0084 16.695 9.07053C16.695 9.13265 16.6847 9.1835 16.6721 9.1835C16.6595 9.1835 16.6492 9.21802 16.6492 9.26023C16.6492 9.30245 16.6399 9.34263 16.6284 9.34955C16.6169 9.35648 16.6006 9.40222 16.5921 9.45121C16.5836 9.50021 16.5673 9.5403 16.5558 9.5403C16.5443 9.5403 16.535 9.56539 16.535 9.59605C16.535 9.62671 16.5247 9.6518 16.5121 9.6518C16.4995 9.6518 16.4893 9.68692 16.4893 9.72985C16.4893 9.77278 16.4792 9.8079 16.4668 9.8079C16.4545 9.8079 16.438 9.83299 16.4301 9.86365C16.4222 9.89431 16.4066 9.9194 16.3954 9.9194C16.3842 9.9194 16.375 9.93947 16.375 9.964C16.375 9.98853 16.3647 10.0086 16.3521 10.0086C16.3396 10.0086 16.3293 10.0337 16.3293 10.0644C16.3293 10.095 16.3206 10.1201 16.31 10.1201C16.2994 10.1201 16.2714 10.1552 16.2477 10.1982C16.224 10.2411 16.1967 10.2762 16.187 10.2762C16.1773 10.2762 16.1693 10.2963 16.1693 10.3208C16.1693 10.3453 16.159 10.3654 16.1465 10.3654C16.1339 10.3654 16.1236 10.3805 16.1236 10.3989C16.1236 10.4173 16.109 10.4323 16.0912 10.4323C16.0734 10.4323 16.0452 10.4624 16.0285 10.4992C16.0118 10.536 15.9904 10.5661 15.9809 10.5661C15.9714 10.5661 15.9636 10.5764 15.9636 10.5889C15.9636 10.6015 15.8404 10.7319 15.6898 10.8788C15.5392 11.0257 15.4102 11.1459 15.4031 11.1459C15.3961 11.1459 15.375 11.1585 15.3562 11.1738C15.3374 11.1891 15.3078 11.2142 15.2903 11.2295C15.2727 11.2449 15.2474 11.2574 15.2339 11.2574C15.2204 11.2574 15.2094 11.2674 15.2094 11.2797C15.2094 11.292 15.1935 11.302 15.1741 11.302C15.1547 11.302 15.1111 11.3271 15.0773 11.3578C15.0434 11.3884 15.0027 11.4135 14.9868 11.4135C14.971 11.4135 14.958 11.4235 14.958 11.4358C14.958 11.4481 14.9375 11.4581 14.9123 11.4581C14.8872 11.4581 14.8666 11.4681 14.8666 11.4804C14.8666 11.4927 14.852 11.5027 14.8342 11.5027C14.8164 11.5027 14.7984 11.5102 14.7942 11.5194C14.79 11.5286 14.7524 11.5537 14.7105 11.5752C14.6686 11.5966 14.6146 11.6142 14.5905 11.6142C14.5664 11.6142 14.5466 11.6242 14.5466 11.6365C14.5466 11.6488 14.5209 11.6588 14.4895 11.6588C14.4581 11.6588 14.4324 11.6677 14.4324 11.6786C14.4324 11.6895 14.3964 11.705 14.3524 11.7131C14.3084 11.7211 14.2724 11.7373 14.2724 11.749C14.2724 11.7607 14.2364 11.7703 14.1924 11.7703C14.1484 11.7703 14.1124 11.7803 14.1124 11.7926C14.1124 11.8049 14.0661 11.8149 14.0096 11.8149C13.953 11.8149 13.9067 11.8249 13.9067 11.8372C13.9067 11.8495 13.8677 11.8595 13.8201 11.8595C13.7725 11.8595 13.6743 11.8746 13.6019 11.893C13.5106 11.9162 13.3546 11.9264 13.0928 11.9264C12.8756 11.9264 12.6965 11.9166 12.671 11.9033C12.6466 11.8905 12.5598 11.874 12.4782 11.8666C12.3966 11.8592 12.3298 11.8445 12.3298 11.834C12.3298 11.8235 12.2835 11.8149 12.2269 11.8149C12.1704 11.8149 12.1241 11.8049 12.1241 11.7926C12.1241 11.7803 12.0881 11.7703 12.0441 11.7703C12.0001 11.7703 11.9641 11.7603 11.9641 11.748C11.9641 11.7357 11.9391 11.7257 11.9086 11.7257C11.8781 11.7257 11.8377 11.7107 11.8188 11.6923C11.7999 11.6739 11.7632 11.6588 11.7372 11.6588C11.7111 11.6588 11.6898 11.6488 11.6898 11.6365C11.6898 11.6242 11.6727 11.6142 11.6518 11.6142C11.6309 11.6142 11.5743 11.5972 11.5261 11.5765C11.4779 11.5557 11.4384 11.5306 11.4384 11.5207C11.4384 11.5108 11.423 11.5027 11.4042 11.5027C11.3853 11.5027 11.3699 11.4927 11.3699 11.4804C11.3699 11.4681 11.3493 11.4581 11.3242 11.4581C11.299 11.4581 11.2785 11.4492 11.2785 11.4382C11.2785 11.4273 11.2527 11.412 11.2213 11.4043C11.1899 11.3967 11.1642 11.3805 11.1642 11.3685C11.1642 11.3564 11.1488 11.3466 11.1299 11.3466C11.111 11.3466 11.0956 11.3366 11.0956 11.3243C11.0956 11.312 11.0797 11.302 11.0603 11.302C11.0409 11.302 11.0002 11.2794 10.97 11.2518C10.9397 11.2242 10.8995 11.1891 10.8806 11.1738C10.8616 11.1585 10.8393 11.1459 10.8309 11.1459C10.8226 11.1459 10.6833 11.0153 10.5215 10.8558C10.3596 10.6962 10.2272 10.5562 10.2272 10.5446C10.2272 10.533 10.2014 10.4984 10.17 10.4678C10.1386 10.4371 10.1129 10.4015 10.1129 10.3887C10.1129 10.3759 10.1026 10.3654 10.09 10.3654C10.0775 10.3654 10.0672 10.3453 10.0672 10.3208C10.0672 10.296 10.0519 10.2762 10.0329 10.2762C10.0139 10.2762 9.99861 10.2564 9.99861 10.2316C9.99861 10.2071 9.98833 10.187 9.97576 10.187C9.96319 10.187 9.9529 10.172 9.9529 10.1536C9.9529 10.1352 9.94262 10.1201 9.93005 10.1201C9.91748 10.1201 9.90719 10.1059 9.90719 10.0885C9.90719 10.0711 9.88918 10.026 9.8672 9.98824C9.84521 9.95053 9.8195 9.91963 9.81006 9.91954C9.80062 9.91947 9.79292 9.89431 9.79292 9.86365C9.79292 9.83299 9.78264 9.8079 9.77007 9.8079C9.7575 9.8079 9.74721 9.7778 9.74721 9.741C9.74721 9.70421 9.73693 9.6741 9.72436 9.6741C9.71179 9.6741 9.70118 9.65153 9.70077 9.62393C9.70038 9.59632 9.68496 9.55426 9.66649 9.53047C9.64805 9.50665 9.63294 9.45899 9.63294 9.42454C9.63294 9.39009 9.62265 9.3619 9.61008 9.3619C9.59752 9.3619 9.58723 9.32176 9.58723 9.2727C9.58723 9.22364 9.57695 9.1835 9.56438 9.1835C9.55181 9.1835 9.54152 9.15446 9.54152 9.11898C9.54152 9.0835 9.52543 8.97854 9.50575 8.88573C9.47883 8.75866 9.47211 8.62171 9.47863 8.33141C9.48338 8.11934 9.50178 7.86806 9.51954 7.77302C9.53729 7.67797 9.55978 7.60019 9.56952 7.60019C9.57925 7.60019 9.58723 7.55503 9.58723 7.49984C9.58723 7.44465 9.59752 7.39949 9.61008 7.39949C9.62265 7.39949 9.63294 7.36867 9.63294 7.33101C9.63294 7.29332 9.64837 7.24745 9.66722 7.22905C9.68608 7.21065 9.7015 7.17122 9.7015 7.14145C9.7015 7.11166 9.71179 7.08729 9.72436 7.08729C9.73693 7.08729 9.74721 7.0622 9.74721 7.03154C9.74721 7.00087 9.7575 6.97579 9.77007 6.97579C9.78264 6.97579 9.79292 6.96341 9.79292 6.94827C9.79292 6.93313 9.82121 6.8654 9.85577 6.79774C9.89033 6.73008 9.92632 6.67139 9.93576 6.66731C9.9452 6.66321 9.9529 6.64494 9.9529 6.62668C9.9529 6.60844 9.96577 6.57951 9.98147 6.56241C9.99719 6.54533 10.0229 6.51636 10.0386 6.49805C10.0543 6.47974 10.0672 6.4543 10.0672 6.44152C10.0672 6.42874 10.0775 6.41828 10.09 6.41828C10.1026 6.41828 10.1129 6.39821 10.1129 6.37368C10.1129 6.34915 10.1232 6.32908 10.1357 6.32908C10.1483 6.32908 10.1586 6.31403 10.1586 6.29563C10.1586 6.27724 10.1696 6.26218 10.1831 6.26218C10.1966 6.26218 10.2223 6.24784 10.2402 6.23032C10.2582 6.21281 10.2729 6.19232 10.2729 6.18478C10.2729 6.17726 10.2857 6.15592 10.3014 6.13737C10.3172 6.11884 10.3634 6.06942 10.4043 6.02756C10.4451 5.98571 10.4786 5.94541 10.4786 5.93798C10.4786 5.93056 10.4932 5.91015 10.5112 5.89265C10.5292 5.87512 10.5505 5.86078 10.5585 5.86078C10.5666 5.86078 10.5879 5.84644 10.6059 5.82891C10.6238 5.81141 10.6385 5.78632 10.6385 5.77316C10.6385 5.76003 10.6493 5.74928 10.6623 5.74928C10.6754 5.74928 10.7017 5.73675 10.7206 5.72141C10.7395 5.70608 10.7798 5.67096 10.81 5.64335C10.8402 5.61575 10.8735 5.59318 10.8839 5.59318C10.8942 5.59318 10.9175 5.57311 10.9356 5.54858C10.9538 5.52405 10.9793 5.50398 10.9923 5.50398C11.0054 5.50398 11.0438 5.47889 11.0777 5.44823C11.1116 5.41757 11.1552 5.39248 11.1746 5.39248C11.194 5.39248 11.2099 5.38244 11.2099 5.37018C11.2099 5.35791 11.2246 5.34788 11.2426 5.34788C11.2605 5.34788 11.2888 5.33472 11.3054 5.31864C11.322 5.30254 11.369 5.275 11.4099 5.25743C11.4507 5.23986 11.4841 5.21791 11.4841 5.20864C11.4841 5.19936 11.5042 5.19178 11.5286 5.19178C11.5531 5.19178 11.6215 5.16669 11.6806 5.13603C11.7397 5.10536 11.802 5.08028 11.8189 5.08028C11.8359 5.08028 11.8498 5.07024 11.8498 5.05798C11.8498 5.04571 11.8858 5.03568 11.9298 5.03568C11.9738 5.03568 12.0098 5.02763 12.0098 5.01777C12.0098 5.00794 12.0638 4.987 12.1298 4.97125C12.1958 4.95548 12.3038 4.93753 12.3698 4.93133C12.4358 4.92511 12.4897 4.91095 12.4897 4.8998C12.4897 4.88867 12.5874 4.87958 12.7069 4.87958C12.8364 4.87958 12.924 4.87057 12.924 4.85728C12.924 4.84416 13.004 4.83498 13.1182 4.83498C13.2325 4.83498 13.3125 4.84416 13.3125 4.85728ZM6.19138 9.9832C6.19808 9.99375 6.27162 10.0077 6.35481 10.0142C6.43803 10.0208 6.51749 10.0372 6.53141 10.0508C6.54535 10.0644 6.59067 10.0755 6.63215 10.0755C6.67363 10.0755 6.70757 10.0855 6.70757 10.0978C6.70757 10.1101 6.73843 10.1201 6.77614 10.1201C6.81385 10.1201 6.8447 10.1301 6.8447 10.1424C6.8447 10.1547 6.86968 10.1647 6.90021 10.1647C6.93072 10.1647 6.97113 10.1798 6.98998 10.1982C7.00884 10.2166 7.04042 10.2316 7.06019 10.2316C7.07994 10.2316 7.0961 10.2416 7.0961 10.2539C7.0961 10.2662 7.12181 10.2762 7.15323 10.2762C7.18466 10.2762 7.21037 10.2847 7.21037 10.295C7.21037 10.3053 7.24637 10.3327 7.29036 10.3558C7.33436 10.3789 7.37035 10.4056 7.37035 10.4151C7.37035 10.4245 7.38107 10.4323 7.39417 10.4323C7.40726 10.4323 7.43348 10.4449 7.4524 10.4602C7.47134 10.4755 7.51157 10.5106 7.54183 10.5382C7.57206 10.5658 7.60244 10.5884 7.60929 10.5884C7.61615 10.5884 7.68346 10.6486 7.75888 10.7222C7.8343 10.7958 7.896 10.8614 7.896 10.8681C7.896 10.8747 7.90887 10.8953 7.92457 10.9138C7.94029 10.9323 7.97627 10.9715 8.00456 11.001C8.03286 11.0305 8.05598 11.0652 8.05598 11.078C8.05598 11.0908 8.06627 11.1013 8.07884 11.1013C8.09141 11.1013 8.10169 11.1151 8.10169 11.132C8.10169 11.1489 8.11712 11.1752 8.13597 11.1905C8.15483 11.2058 8.17026 11.2371 8.17026 11.2601C8.17026 11.2832 8.18054 11.302 8.19311 11.302C8.20568 11.302 8.21596 11.3213 8.21596 11.3448C8.21596 11.3683 8.22367 11.3908 8.23311 11.3949C8.24254 11.399 8.26826 11.4358 8.29024 11.4766C8.31223 11.5175 8.33024 11.5652 8.33024 11.5826C8.33024 11.6 8.34052 11.6142 8.35309 11.6142C8.36566 11.6142 8.37595 11.6493 8.37595 11.6923C8.37595 11.7352 8.38623 11.7703 8.3988 11.7703C8.41137 11.7703 8.42165 11.8011 8.42165 11.8387C8.42165 11.8763 8.43137 11.9247 8.44323 11.9464C8.45509 11.968 8.47538 12.1045 8.4883 12.2497C8.50411 12.4274 8.50434 12.5871 8.48901 12.7385C8.47646 12.8622 8.45404 12.9935 8.43918 13.0303C8.42433 13.0671 8.3996 13.1097 8.38426 13.125C8.36891 13.1404 8.34534 13.1529 8.33186 13.1529C8.3184 13.1529 8.30738 13.163 8.30738 13.1752C8.30738 13.1875 8.28681 13.1975 8.26167 13.1975C8.23653 13.1975 8.21596 13.2083 8.21596 13.2214C8.21596 13.2346 8.20127 13.2596 8.18331 13.2772C8.16537 13.2947 8.14406 13.309 8.13597 13.309C8.12788 13.309 8.10773 13.3216 8.09116 13.3369C8.07461 13.3522 8.03269 13.3848 7.99802 13.4094C7.96335 13.4339 7.8928 13.4916 7.84124 13.5376C7.78966 13.5836 7.7405 13.6212 7.73195 13.6212C7.72343 13.6212 7.63 13.705 7.52432 13.8074C7.41867 13.9098 7.30227 14.0327 7.26566 14.0806C7.22904 14.1284 7.15534 14.2099 7.10188 14.2615C7.04842 14.3132 7.00468 14.3659 7.00468 14.3786C7.00468 14.3913 6.9944 14.4017 6.98183 14.4017C6.96926 14.4017 6.95897 14.4218 6.95897 14.4463C6.95897 14.4709 6.94528 14.4909 6.92855 14.4909C6.91182 14.4909 6.88437 14.516 6.86755 14.5467C6.85073 14.5773 6.82843 14.6024 6.81798 14.6024C6.80754 14.6024 6.79899 14.6179 6.79899 14.6369C6.79899 14.6558 6.77328 14.6983 6.74185 14.7314C6.71043 14.7645 6.68472 14.7999 6.68472 14.8101C6.68472 14.8203 6.66966 14.8433 6.65124 14.8613C6.63282 14.8793 6.58174 14.9086 6.5377 14.9266C6.49368 14.9445 6.41618 14.9592 6.36549 14.9592C6.3148 14.9592 6.27334 14.9693 6.27334 14.9815C6.27334 14.9954 6.14003 15.0038 5.9191 15.0038C5.69816 15.0038 5.56485 14.9954 5.56485 14.9815C5.56485 14.9693 5.52115 14.9588 5.46772 14.9582C5.41429 14.9577 5.32945 14.9428 5.27917 14.9251C5.22889 14.9075 5.16977 14.8928 5.14776 14.8927C5.12575 14.8925 5.10776 14.8823 5.10776 14.87C5.10776 14.8578 5.07177 14.8477 5.02777 14.8477C4.98378 14.8477 4.94778 14.8377 4.94778 14.8254C4.94778 14.8132 4.93215 14.8031 4.91304 14.8031C4.89394 14.8031 4.83758 14.778 4.7878 14.7474C4.73802 14.7167 4.68166 14.6916 4.66256 14.6916C4.64345 14.6916 4.62782 14.6816 4.62782 14.6693C4.62782 14.6571 4.61194 14.647 4.59253 14.647C4.57313 14.647 4.52952 14.6219 4.49565 14.5913C4.46176 14.5606 4.42631 14.5355 4.41692 14.5355C4.4075 14.5355 4.37775 14.518 4.35078 14.4965C4.32381 14.475 4.27191 14.4299 4.23546 14.3962C4.19898 14.3624 4.16419 14.3348 4.15812 14.3348C4.15204 14.3348 4.11138 14.2972 4.06775 14.2512C4.02412 14.2052 3.96774 14.1454 3.94246 14.1182C3.91716 14.091 3.89648 14.0621 3.89648 14.0539C3.89648 14.0457 3.87776 14.0228 3.85486 14.0029C3.83196 13.9831 3.79375 13.9343 3.76993 13.8944C3.74612 13.8545 3.71858 13.8219 3.70871 13.8219C3.69886 13.8219 3.69079 13.8077 3.69079 13.7903C3.69079 13.7729 3.6728 13.7278 3.65079 13.6901C3.62878 13.6524 3.60307 13.6214 3.59366 13.6214C3.58424 13.6213 3.57652 13.5961 3.57652 13.5655C3.57652 13.5348 3.56623 13.5097 3.55366 13.5097C3.54109 13.5097 3.53081 13.4945 3.53081 13.476C3.53081 13.4574 3.52226 13.4248 3.51182 13.4035C3.50137 13.3822 3.47566 13.3313 3.45468 13.2905C3.4337 13.2496 3.41654 13.1819 3.41654 13.14C3.41654 13.098 3.40625 13.0637 3.39368 13.0637C3.38097 13.0637 3.37083 13.0042 3.37083 12.9299C3.37083 12.8556 3.36068 12.7961 3.34797 12.7961C3.33382 12.7961 3.32512 12.6772 3.32512 12.4839C3.32512 12.2906 3.33382 12.1717 3.34797 12.1717C3.36068 12.1717 3.37083 12.1122 3.37083 12.0379C3.37083 11.9636 3.38097 11.9041 3.39368 11.9041C3.40625 11.9041 3.41654 11.864 3.41654 11.8149C3.41654 11.7659 3.42636 11.7257 3.43836 11.7257C3.45036 11.7257 3.46693 11.6906 3.47518 11.6477C3.48343 11.6047 3.49934 11.5696 3.51049 11.5696C3.52167 11.5696 3.53081 11.5445 3.53081 11.5139C3.53081 11.4832 3.54109 11.4581 3.55366 11.4581C3.56623 11.4581 3.57652 11.4439 3.57652 11.4265C3.57652 11.4091 3.5945 11.364 3.61651 11.3263C3.63852 11.2885 3.66423 11.2576 3.67365 11.2575C3.68306 11.2575 3.69079 11.236 3.69079 11.2098C3.69079 11.1837 3.70951 11.1461 3.73241 11.1262C3.75531 11.1064 3.79352 11.0576 3.81733 11.0177C3.84115 10.9778 3.86869 10.9452 3.87856 10.9452C3.88841 10.9452 3.89648 10.9347 3.89648 10.9219C3.89648 10.9091 3.92173 10.874 3.95259 10.8439C3.98344 10.8137 4.01943 10.7891 4.03258 10.7891C4.04572 10.7891 4.05646 10.7786 4.05646 10.7658C4.05646 10.753 4.08171 10.7179 4.11257 10.6878C4.14342 10.6576 4.17496 10.633 4.18266 10.633C4.19036 10.633 4.23061 10.5979 4.27209 10.555C4.31359 10.512 4.35928 10.4769 4.37361 10.4769C4.38796 10.4769 4.43223 10.4466 4.47202 10.4094C4.51181 10.3724 4.56828 10.3361 4.59751 10.329C4.62675 10.3218 4.65067 10.307 4.65067 10.2961C4.65067 10.2851 4.67124 10.2762 4.69638 10.2762C4.72152 10.2762 4.74209 10.2662 4.74209 10.2539C4.74209 10.2416 4.76008 10.2313 4.78209 10.2309C4.8041 10.2305 4.84206 10.2155 4.86644 10.1974C4.89085 10.1794 4.92941 10.1647 4.95215 10.1647C4.97489 10.1647 4.99349 10.1547 4.99349 10.1424C4.99349 10.1301 5.0192 10.1201 5.05063 10.1201C5.08205 10.1201 5.10776 10.1101 5.10776 10.0978C5.10776 10.0855 5.13736 10.0755 5.17354 10.0755C5.20972 10.0755 5.27622 10.0605 5.32136 10.0421C5.36647 10.0237 5.45515 10.0086 5.51841 10.0086C5.58167 10.0086 5.63341 9.99857 5.63341 9.9863C5.63341 9.97268 5.73962 9.964 5.90632 9.964C6.05643 9.964 6.18469 9.97263 6.19138 9.9832ZM14.8552 13.5774C14.9055 13.5923 15.0006 13.6091 15.0666 13.6149C15.1326 13.6206 15.1866 13.6344 15.1866 13.6456C15.1866 13.6567 15.238 13.6658 15.3008 13.6658C15.3637 13.6658 15.4151 13.6736 15.4151 13.6831C15.4151 13.6925 15.464 13.7131 15.5237 13.7287C15.5834 13.7443 15.6605 13.7627 15.6951 13.7697C15.7297 13.7767 15.7579 13.7913 15.7579 13.8021C15.7579 13.813 15.7888 13.8219 15.8265 13.8219C15.8642 13.8219 15.8951 13.832 15.8951 13.8442C15.8951 13.8565 15.9182 13.8668 15.9465 13.8672C15.9747 13.8676 16.0179 13.8827 16.0423 13.9007C16.0667 13.9187 16.1052 13.9334 16.128 13.9334C16.1507 13.9334 16.1693 13.9435 16.1693 13.9557C16.1693 13.968 16.195 13.978 16.2264 13.978C16.2579 13.978 16.2836 13.9881 16.2836 14.0003C16.2836 14.0126 16.3041 14.0226 16.3293 14.0226C16.3544 14.0226 16.375 14.0325 16.375 14.0445C16.375 14.0565 16.4007 14.0727 16.4321 14.0804C16.4636 14.0881 16.4893 14.1033 16.4893 14.1142C16.4893 14.1252 16.5098 14.1341 16.535 14.1341C16.5601 14.1341 16.5807 14.1442 16.5807 14.1564C16.5807 14.1687 16.5961 14.1787 16.615 14.1787C16.6338 14.1787 16.6492 14.1888 16.6492 14.201C16.6492 14.2133 16.6634 14.2233 16.6807 14.2233C16.698 14.2233 16.725 14.2384 16.7407 14.2568C16.7563 14.2752 16.7861 14.2902 16.807 14.2902C16.8278 14.2902 16.8597 14.3103 16.8778 14.3348C16.8959 14.3594 16.9192 14.3794 16.9295 14.3794C16.9398 14.3794 16.9636 14.392 16.9824 14.4073C17.0012 14.4226 17.0308 14.4477 17.0484 14.4631C17.0659 14.4784 17.0866 14.4909 17.0943 14.4909C17.1021 14.4909 17.1332 14.5135 17.1634 14.5411C17.1937 14.5687 17.2339 14.6038 17.2528 14.6192C17.2718 14.6345 17.2934 14.647 17.3009 14.647C17.3085 14.647 17.4477 14.7769 17.6104 14.9357C17.7731 15.0944 17.9062 15.2303 17.9062 15.2377C17.9062 15.245 17.9191 15.2661 17.9348 15.2846C17.9505 15.3031 17.9865 15.3423 18.0148 15.3718C18.0431 15.4014 18.0662 15.4314 18.0662 15.4386C18.0662 15.4458 18.0791 15.4667 18.0948 15.485C18.1105 15.5033 18.1362 15.5323 18.1519 15.5494C18.1676 15.5665 18.1805 15.589 18.1805 15.5994C18.1805 15.6099 18.2011 15.6328 18.2262 15.6505C18.2513 15.6682 18.2719 15.7005 18.2719 15.7224C18.2719 15.7442 18.2811 15.762 18.2923 15.762C18.3035 15.762 18.3191 15.7871 18.327 15.8178C18.3349 15.8484 18.3514 15.8735 18.3638 15.8735C18.3761 15.8735 18.3862 15.8886 18.3862 15.907C18.3862 15.9254 18.3965 15.9404 18.409 15.9404C18.4216 15.9404 18.4319 15.9605 18.4319 15.985C18.4319 16.0096 18.442 16.0296 18.4543 16.0296C18.4666 16.0296 18.4832 16.0547 18.4911 16.0854C18.4989 16.116 18.5146 16.1411 18.5258 16.1411C18.537 16.1411 18.5462 16.1612 18.5462 16.1857C18.5462 16.2103 18.5564 16.2303 18.569 16.2303C18.5816 16.2303 18.5919 16.2554 18.5919 16.2861C18.5919 16.3167 18.6022 16.3418 18.6147 16.3418C18.6273 16.3418 18.6379 16.3594 18.6383 16.3809C18.6387 16.4023 18.6541 16.4394 18.6726 16.4632C18.691 16.487 18.7061 16.5246 18.7061 16.5468C18.7061 16.569 18.7164 16.5871 18.729 16.5871C18.7416 16.5871 18.7519 16.6223 18.7519 16.6652C18.7519 16.7081 18.761 16.7432 18.7721 16.7432C18.7833 16.7432 18.7975 16.7708 18.8038 16.8046C18.8101 16.8383 18.828 16.901 18.8437 16.9439C18.8594 16.9869 18.8812 17.0394 18.892 17.0607C18.9029 17.082 18.9118 17.1397 18.9118 17.1889C18.9118 17.2382 18.9212 17.2784 18.9327 17.2784C18.9441 17.2784 18.9586 17.3361 18.9649 17.4067C18.9711 17.4772 18.989 17.5851 19.0046 17.6464C19.0263 17.7318 19.0351 18.5439 19.0422 21.1141C19.0472 22.96 19.0452 24.5028 19.0377 24.5427C19.0302 24.5826 18.9993 24.6377 18.969 24.6654C18.9388 24.6929 18.8986 24.7281 18.8796 24.7434C18.8523 24.7656 17.6641 24.7713 13.1078 24.7713C9.95219 24.7713 7.37035 24.7635 7.37035 24.754C7.37035 24.7446 7.33436 24.7179 7.29036 24.6948C7.23396 24.6652 7.21037 24.6373 7.21037 24.6005C7.21037 24.5718 7.20009 24.5483 7.18752 24.5483C7.17239 24.5483 7.16466 23.4481 7.16466 21.2925C7.16466 19.1368 7.17239 18.0366 7.18752 18.0366C7.20089 18.0366 7.21053 17.9602 7.21076 17.8527C7.21096 17.7515 7.22945 17.5812 7.25187 17.4743C7.27427 17.3674 7.2998 17.273 7.30862 17.2643C7.31742 17.2557 7.32464 17.2052 7.32464 17.1521C7.32464 17.0989 7.33493 17.0554 7.3475 17.0554C7.36007 17.0554 7.37035 17.0211 7.37035 16.9792C7.37035 16.9373 7.37805 16.8997 7.38749 16.8956C7.39693 16.8915 7.42262 16.8367 7.44463 16.7737C7.46661 16.7107 7.48462 16.643 7.48462 16.6232C7.48462 16.6034 7.49491 16.5871 7.50748 16.5871C7.52005 16.5871 7.53033 16.5689 7.53033 16.5467C7.53033 16.5245 7.55604 16.4543 7.58747 16.3907C7.61889 16.3272 7.6446 16.2651 7.6446 16.2527C7.6446 16.2404 7.65489 16.2303 7.66746 16.2303C7.68003 16.2303 7.69031 16.2103 7.69031 16.1857C7.69031 16.1612 7.7006 16.1411 7.71317 16.1411C7.72574 16.1411 7.73602 16.116 7.73602 16.0854C7.73602 16.0507 7.74898 16.0296 7.7703 16.0296C7.78934 16.0296 7.80458 16.0098 7.80458 15.985C7.80458 15.9605 7.81487 15.9404 7.82744 15.9404C7.84001 15.9404 7.85029 15.9254 7.85029 15.907C7.85029 15.8886 7.86058 15.8735 7.87315 15.8735C7.88572 15.8735 7.896 15.8581 7.896 15.8393C7.896 15.8205 7.91374 15.7778 7.9354 15.7445C7.95709 15.7112 7.99309 15.6677 8.01539 15.6479C8.03772 15.6281 8.05598 15.6009 8.05598 15.5876C8.05598 15.5743 8.08169 15.5383 8.11312 15.5076C8.14454 15.4769 8.17026 15.4436 8.17026 15.4335C8.17026 15.4234 8.19082 15.4006 8.21596 15.3829C8.2411 15.3652 8.26172 15.3404 8.26176 15.3278C8.26183 15.3152 8.30811 15.2551 8.36461 15.1943C8.42113 15.1335 8.46736 15.0758 8.46736 15.0661C8.46736 15.0564 8.47838 15.0484 8.49184 15.0484C8.50533 15.0484 8.53104 15.0341 8.54898 15.0166C8.56694 14.9991 8.58164 14.974 8.58164 14.9608C8.58164 14.9477 8.59105 14.9369 8.60255 14.9369C8.61404 14.9369 8.70132 14.8617 8.79654 14.7697C8.89172 14.6777 8.97756 14.6024 8.98726 14.6024C8.99697 14.6024 9.03265 14.5773 9.06654 14.5467C9.10041 14.516 9.13416 14.4909 9.14155 14.4909C9.1489 14.4909 9.17041 14.4784 9.18933 14.4631C9.20828 14.4477 9.2485 14.4126 9.27876 14.385C9.309 14.3574 9.34452 14.3348 9.35766 14.3348C9.3708 14.3348 9.38154 14.3248 9.38154 14.3125C9.38154 14.3003 9.40101 14.2902 9.4248 14.2902C9.4486 14.2902 9.47399 14.2752 9.48123 14.2568C9.48845 14.2384 9.51526 14.2233 9.54081 14.2233C9.56634 14.2233 9.58723 14.2133 9.58723 14.201C9.58723 14.1888 9.60266 14.1787 9.62151 14.1787C9.64037 14.1787 9.65579 14.1687 9.65579 14.1564C9.65579 14.1442 9.67636 14.1341 9.7015 14.1341C9.72664 14.1341 9.74721 14.1243 9.74721 14.1122C9.74721 14.1002 9.77292 14.0841 9.80435 14.0764C9.83577 14.0687 9.86148 14.0534 9.86148 14.0425C9.86148 14.0316 9.88205 14.0226 9.90719 14.0226C9.93233 14.0226 9.9529 14.0126 9.9529 14.0003C9.9529 13.9881 9.97861 13.978 10.01 13.978C10.0415 13.978 10.0672 13.968 10.0672 13.9557C10.0672 13.9435 10.0858 13.9334 10.1085 13.9334C10.1313 13.9334 10.1698 13.9187 10.1942 13.9007C10.2186 13.8827 10.2566 13.8676 10.2786 13.8672C10.3006 13.8668 10.3186 13.8565 10.3186 13.8442C10.3186 13.832 10.3546 13.8219 10.3986 13.8219C10.4426 13.8219 10.4786 13.8119 10.4786 13.7996C10.4786 13.7874 10.5017 13.777 10.53 13.7765C10.5583 13.7761 10.6071 13.7614 10.6385 13.7439C10.67 13.7263 10.7188 13.7116 10.7471 13.7112C10.7754 13.7108 10.7985 13.7004 10.7985 13.6881C10.7985 13.6759 10.8551 13.6658 10.9242 13.6658C10.9933 13.6658 11.0499 13.6558 11.0499 13.6435C11.0499 13.6313 11.0957 13.6212 11.1517 13.6212C11.2077 13.6212 11.2771 13.6109 11.306 13.5983C11.3348 13.5857 11.487 13.5664 11.6441 13.5555C11.8013 13.5447 12.5674 13.539 13.3468 13.5431C14.371 13.5484 14.7891 13.5579 14.8552 13.5774ZM5.8391 16.6317C5.8391 16.6685 5.82882 16.6986 5.81625 16.6986C5.80368 16.6986 5.7934 16.7438 5.7934 16.799C5.7934 16.8542 5.78311 16.8993 5.77054 16.8993C5.75797 16.8993 5.74769 16.9351 5.74769 16.9789C5.74769 17.0226 5.73699 17.0779 5.72392 17.1017C5.71085 17.1255 5.68909 17.2127 5.67554 17.2954C5.66201 17.378 5.6464 17.5686 5.64086 17.7189C5.63533 17.8691 5.6211 17.992 5.60926 17.992C5.59586 17.992 5.58771 19.2529 5.58771 21.3259C5.58771 23.5336 5.59543 24.6598 5.61056 24.6598C5.62313 24.6598 5.63341 24.6849 5.63341 24.7155C5.63341 24.7713 5.63341 24.7713 3.6108 24.7713C1.58818 24.7713 1.58818 24.7713 1.58818 22.1956C1.58818 20.4934 1.59593 19.62 1.61104 19.62C1.62425 19.62 1.63389 19.5493 1.63389 19.4527C1.63389 19.3561 1.64353 19.2855 1.65674 19.2855C1.66931 19.2855 1.67996 19.2478 1.6804 19.2018C1.68086 19.1558 1.69592 19.0931 1.71388 19.0625C1.73184 19.0318 1.74691 18.9841 1.74736 18.9565C1.7478 18.9289 1.75845 18.9064 1.77102 18.9064C1.78359 18.9064 1.79387 18.8762 1.79387 18.8394C1.79387 18.8027 1.80416 18.7725 1.81673 18.7725C1.8293 18.7725 1.83958 18.7475 1.83958 18.7168C1.83958 18.6861 1.8476 18.661 1.85741 18.661C1.86721 18.661 1.89518 18.6109 1.91957 18.5495C1.94396 18.4882 1.97193 18.438 1.98173 18.438C1.99154 18.438 1.99956 18.418 1.99956 18.3934C1.99956 18.3689 2.00985 18.3488 2.02242 18.3488C2.03499 18.3488 2.04527 18.3342 2.04527 18.3164C2.04527 18.2986 2.07098 18.2589 2.10241 18.2282C2.13383 18.1976 2.15954 18.1565 2.15954 18.137C2.15954 18.1175 2.18525 18.0764 2.21668 18.0458C2.2481 18.0151 2.27381 17.9817 2.27381 17.9715C2.27381 17.9614 2.32009 17.9059 2.37666 17.8483C2.43322 17.7907 2.4795 17.7345 2.4795 17.7233C2.4795 17.7122 2.53591 17.6502 2.60484 17.5855C2.67379 17.5209 2.74535 17.4555 2.76386 17.4401C2.78237 17.4248 2.8031 17.4122 2.80989 17.4122C2.81668 17.4122 2.86595 17.372 2.91941 17.3228C2.97286 17.2736 3.03457 17.2278 3.05658 17.221C3.07859 17.2141 3.09657 17.1992 3.09657 17.1877C3.09657 17.1763 3.10759 17.1669 3.12105 17.1669C3.13453 17.1669 3.15988 17.1544 3.17741 17.1391C3.19492 17.1237 3.2246 17.0987 3.24337 17.0833C3.26213 17.068 3.29849 17.0554 3.32416 17.0554C3.34982 17.0554 3.37083 17.0466 3.37083 17.0359C3.37083 17.0251 3.42997 16.9875 3.50224 16.9523C3.5745 16.917 3.63708 16.8807 3.64126 16.8715C3.64547 16.8623 3.67888 16.8547 3.71554 16.8547C3.75222 16.8547 3.78221 16.8459 3.78221 16.8351C3.78221 16.8243 3.84382 16.7966 3.91913 16.7737C3.99445 16.7508 4.05616 16.7246 4.05625 16.7154C4.05637 16.7062 4.10274 16.6986 4.1593 16.6986C4.21587 16.6986 4.26215 16.6886 4.26215 16.6763C4.26215 16.6641 4.30397 16.654 4.35507 16.654C4.40618 16.654 4.47044 16.6416 4.49791 16.6263C4.52598 16.6108 4.67293 16.593 4.83351 16.5857C4.99063 16.5786 5.28118 16.571 5.47915 16.5689C5.8391 16.5648 5.8391 16.5648 5.8391 16.6317Z" fill="black"/>
</svg>
