<svg width="25" height="24" viewBox="0 0 25 24" fill="none" xmlns="http://www.w3.org/2000/svg">
<path fill-rule="evenodd" clip-rule="evenodd" d="M18.2733 0.545719C18.2733 0.557734 18.2058 0.566506 18.1134 0.566506C18.021 0.566506 17.9535 0.575277 17.9535 0.587292C17.9535 0.598724 17.9198 0.608078 17.8786 0.608078C17.8374 0.608078 17.7343 0.628012 17.6494 0.652353C17.5645 0.676715 17.4591 0.701076 17.4151 0.706502C17.3712 0.711927 17.3352 0.724752 17.3352 0.734979C17.3352 0.745206 17.3064 0.753583 17.2712 0.753583C17.2361 0.753583 17.2073 0.762937 17.2073 0.774369C17.2073 0.785802 17.1785 0.795155 17.1433 0.795155C17.1081 0.795155 17.0793 0.804509 17.0793 0.815942C17.0793 0.827374 17.0559 0.836728 17.0273 0.836728C16.9987 0.836728 16.9698 0.845355 16.9631 0.855914C16.9564 0.866473 16.9222 0.881253 16.8872 0.888756C16.8522 0.89626 16.8235 0.910998 16.8235 0.921516C16.8235 0.932054 16.8043 0.94066 16.7808 0.94066C16.7574 0.94066 16.7382 0.950014 16.7382 0.961446C16.7382 0.972879 16.719 0.982233 16.6956 0.982233C16.6721 0.982233 16.6529 0.991587 16.6529 1.00302C16.6529 1.01445 16.6289 1.02381 16.5996 1.02381C16.5703 1.02381 16.5463 1.03316 16.5463 1.04459C16.5463 1.05602 16.5271 1.06538 16.5037 1.06538C16.4802 1.06538 16.461 1.07473 16.461 1.08616C16.461 1.0976 16.4512 1.10695 16.4393 1.10695C16.4273 1.10695 16.3769 1.13266 16.3273 1.16411C16.2777 1.19554 16.234 1.22828 16.2301 1.23687C16.2261 1.24545 16.2046 1.25246 16.1821 1.25246C16.1596 1.25246 16.1412 1.26181 16.1412 1.27324C16.1412 1.28467 16.1312 1.29403 16.119 1.29403C16.1068 1.29403 16.0823 1.30571 16.0647 1.32001C16.047 1.33431 16.0095 1.36705 15.9812 1.39276C15.953 1.41848 15.9199 1.43953 15.9076 1.43953C15.8954 1.43953 15.8854 1.44889 15.8854 1.46032C15.8854 1.47175 15.871 1.48111 15.8534 1.48111C15.8358 1.48111 15.8214 1.49046 15.8214 1.50189C15.8214 1.51332 15.812 1.52268 15.8006 1.52268C15.7891 1.52268 15.7244 1.57412 15.6567 1.637C15.5891 1.69988 15.5266 1.75133 15.5179 1.75133C15.5092 1.75133 15.4444 1.8081 15.3739 1.87746C15.3034 1.94684 15.2457 2.01272 15.2457 2.02388C15.2457 2.03502 15.193 2.09439 15.1285 2.15577C15.064 2.21715 15.0112 2.27756 15.0112 2.28996C15.0112 2.30239 15.0016 2.31256 14.9899 2.31256C14.9781 2.31256 14.9686 2.32659 14.9686 2.34374C14.9686 2.36089 14.959 2.37492 14.9472 2.37492C14.9355 2.37492 14.9259 2.38469 14.9259 2.39664C14.9259 2.40859 14.9043 2.44089 14.8779 2.46839C14.8516 2.49592 14.818 2.5325 14.8033 2.54973C14.7887 2.56694 14.7767 2.59078 14.7767 2.6027C14.7767 2.61461 14.7671 2.62435 14.7553 2.62435C14.7436 2.62435 14.734 2.64306 14.734 2.66593C14.734 2.68879 14.7244 2.7075 14.7127 2.7075C14.701 2.7075 14.6914 2.72621 14.6914 2.74907C14.6914 2.77194 14.6833 2.79065 14.6734 2.79065C14.6635 2.79065 14.6374 2.82338 14.6153 2.8634C14.5932 2.90341 14.5677 2.93615 14.5586 2.93615C14.5496 2.93615 14.5421 2.95486 14.5421 2.97772C14.5421 3.00059 14.5325 3.0193 14.5208 3.0193C14.5091 3.0193 14.4995 3.038 14.4995 3.06087C14.4995 3.08373 14.4899 3.10244 14.4782 3.10244C14.4664 3.10244 14.4568 3.12583 14.4568 3.15441C14.4568 3.18299 14.4473 3.20637 14.4355 3.20637C14.4238 3.20637 14.4142 3.22508 14.4142 3.24795C14.4142 3.27081 14.4046 3.28952 14.3929 3.28952C14.3812 3.28952 14.3716 3.30293 14.3716 3.31933C14.3716 3.33573 14.3467 3.40821 14.3163 3.48042C14.286 3.55263 14.2524 3.62794 14.2417 3.64779C14.231 3.66764 14.2223 3.70741 14.2223 3.73613C14.2223 3.76488 14.2127 3.78839 14.201 3.78839C14.1893 3.78839 14.1797 3.82581 14.1797 3.87154C14.1797 3.91727 14.1701 3.95468 14.1584 3.95468C14.1466 3.95468 14.137 3.98231 14.137 4.01606C14.137 4.04982 14.1284 4.09894 14.1178 4.12519C14.1072 4.15144 14.0833 4.2618 14.0646 4.37041C14.046 4.47902 14.021 4.64076 14.0093 4.72983C13.9974 4.81889 13.9878 5.00023 13.9878 5.13281C13.9878 5.26536 13.9979 5.45907 14.0102 5.56327C14.0226 5.66746 14.043 5.79947 14.0557 5.85663C14.0684 5.91379 14.0868 6.00733 14.0967 6.0645C14.1065 6.12166 14.1207 6.20352 14.1281 6.24638C14.1356 6.28924 14.1503 6.32433 14.1607 6.32433C14.1711 6.32433 14.1797 6.36642 14.1797 6.41786C14.1797 6.46931 14.1893 6.5114 14.201 6.5114C14.2127 6.5114 14.2223 6.53946 14.2223 6.57376C14.2223 6.60806 14.2319 6.63612 14.2436 6.63612C14.2554 6.63612 14.265 6.65951 14.265 6.68809C14.265 6.71667 14.2722 6.74005 14.2811 6.74005C14.2899 6.74005 14.3078 6.77044 14.3208 6.80761C14.3337 6.84475 14.3625 6.92193 14.3846 6.9791C14.4068 7.03626 14.4321 7.08615 14.4409 7.08995C14.4497 7.09377 14.4568 7.11404 14.4568 7.13499C14.4568 7.15595 14.464 7.17621 14.4728 7.18004C14.4816 7.18384 14.5263 7.25946 14.5721 7.34805C14.6179 7.43665 14.6635 7.50915 14.6734 7.50915C14.6833 7.50915 14.6914 7.52786 14.6914 7.55072C14.6914 7.57359 14.701 7.59229 14.7127 7.59229C14.7244 7.59229 14.734 7.60204 14.734 7.61395C14.734 7.62586 14.7438 7.64692 14.7557 7.66072C14.7677 7.67452 14.7962 7.70799 14.8191 7.73507C14.8419 7.76216 14.8664 7.8019 14.8734 7.82342C14.8804 7.84491 14.8951 7.86252 14.906 7.86252C14.917 7.86252 14.9259 7.87218 14.9259 7.88399C14.9259 7.89582 14.9571 7.93666 14.9952 7.97476C15.0333 8.01288 15.0837 8.07065 15.1071 8.10312C15.1306 8.13561 15.2338 8.24498 15.3365 8.34621C15.4842 8.49176 15.5177 8.53543 15.4964 8.55495C15.4817 8.56852 15.4216 8.59729 15.363 8.61889C15.3044 8.64047 15.2252 8.66849 15.1871 8.68112C15.149 8.69378 15.1178 8.7112 15.1178 8.71985C15.1178 8.72848 15.0986 8.73554 15.0752 8.73554C15.0517 8.73554 15.0325 8.7449 15.0325 8.75633C15.0325 8.76776 15.0085 8.77712 14.9792 8.77712C14.9499 8.77712 14.9259 8.78647 14.9259 8.7979C14.9259 8.80933 14.9075 8.81869 14.885 8.81869C14.8626 8.81869 14.841 8.82569 14.8371 8.83428C14.8332 8.84284 14.7702 8.87793 14.6971 8.91223C14.624 8.94652 14.564 8.98159 14.5638 8.99018C14.5636 8.99876 14.5395 9.00576 14.5101 9.00576C14.4808 9.00576 14.4568 9.01512 14.4568 9.02655C14.4568 9.03798 14.447 9.04734 14.4351 9.04734C14.4231 9.04734 14.3727 9.07307 14.3231 9.1045C14.2736 9.13595 14.2298 9.16867 14.2259 9.17725C14.222 9.18582 14.2004 9.19284 14.1779 9.19284C14.1554 9.19284 14.137 9.2022 14.137 9.21363C14.137 9.22506 14.1226 9.23442 14.105 9.23442C14.0875 9.23442 14.0731 9.24377 14.0731 9.2552C14.0731 9.26663 14.0539 9.27599 14.0304 9.27599C14.007 9.27599 13.9878 9.28472 13.9878 9.29538C13.9878 9.30605 13.9701 9.32022 13.9486 9.32687C13.9271 9.33355 13.8774 9.36693 13.8382 9.40104C13.799 9.43515 13.7563 9.46307 13.7435 9.46307C13.7306 9.46307 13.7062 9.48177 13.6893 9.50464C13.6724 9.5275 13.6415 9.54621 13.6206 9.54621C13.5998 9.54621 13.5827 9.55556 13.5827 9.567C13.5827 9.57843 13.5587 9.58778 13.5294 9.58778C13.4903 9.58778 13.4761 9.5767 13.4761 9.54621C13.4761 9.52335 13.4665 9.50464 13.4548 9.50464C13.443 9.50464 13.4334 9.48125 13.4334 9.45267C13.4334 9.42409 13.4238 9.40071 13.4121 9.40071C13.4004 9.40071 13.3908 9.382 13.3908 9.35913C13.3908 9.33627 13.3812 9.31756 13.3695 9.31756C13.3577 9.31756 13.3482 9.29885 13.3482 9.27599C13.3482 9.25312 13.341 9.23433 13.3322 9.23423C13.3234 9.2341 13.2972 9.19201 13.2741 9.14069C13.2509 9.08935 13.2246 9.04734 13.2154 9.04734C13.2063 9.04734 13.1989 9.02863 13.1989 9.00576C13.1989 8.9829 13.1893 8.96419 13.1776 8.96419C13.1659 8.96419 13.1563 8.95016 13.1563 8.93301C13.1563 8.91586 13.1467 8.90183 13.1349 8.90183C13.1232 8.90183 13.1136 8.89015 13.1136 8.87585C13.1136 8.86157 13.0898 8.82181 13.0607 8.78751C13.0316 8.75321 12.9981 8.71384 12.9861 8.70004C12.9742 8.68624 12.9644 8.66518 12.9644 8.65327C12.9644 8.64136 12.9548 8.63161 12.943 8.63161C12.9313 8.63161 12.9217 8.61727 12.9217 8.59975C12.9217 8.5822 12.8906 8.53687 12.8524 8.49899C12.8143 8.46112 12.7615 8.40523 12.7352 8.37482C12.7088 8.34439 12.6872 8.31391 12.6872 8.30707C12.6872 8.30023 12.5752 8.18807 12.4383 8.0578C12.3014 7.92754 12.1806 7.82094 12.1697 7.82094C12.1588 7.82094 12.1231 7.79288 12.0902 7.75858C12.0574 7.72429 12.0243 7.69623 12.0168 7.69623C12.0093 7.69623 11.9887 7.68452 11.971 7.67024C11.9533 7.65596 11.9158 7.62322 11.8876 7.59749C11.8594 7.57178 11.8263 7.55072 11.814 7.55072C11.8017 7.55072 11.7917 7.54137 11.7917 7.52993C11.7917 7.5185 11.7773 7.50915 11.7597 7.50915C11.7421 7.50915 11.7277 7.49979 11.7277 7.48836C11.7277 7.47693 11.7134 7.46758 11.6958 7.46758C11.6782 7.46758 11.6638 7.45822 11.6638 7.44679C11.6638 7.43536 11.6446 7.426 11.6211 7.426C11.5977 7.426 11.5785 7.41736 11.5785 7.4068C11.5785 7.39624 11.5257 7.36154 11.4612 7.3297C11.3967 7.29785 11.344 7.26441 11.344 7.25537C11.344 7.24633 11.3254 7.23893 11.3026 7.23893C11.2798 7.23893 11.2553 7.22957 11.248 7.21814C11.2408 7.20671 11.2162 7.19735 11.1935 7.19735C11.1707 7.19735 11.1521 7.18927 11.1521 7.17939C11.1521 7.16952 11.1065 7.14489 11.0508 7.12468C10.9951 7.10448 10.9404 7.07983 10.9293 7.06991C10.9181 7.05998 10.8917 7.05185 10.8706 7.05185C10.8495 7.05185 10.8323 7.04249 10.8323 7.03106C10.8323 7.01963 10.7987 7.01028 10.7576 7.01028C10.7166 7.01028 10.683 7.00296 10.683 6.99402C10.683 6.98508 10.6375 6.96575 10.5817 6.95108C10.526 6.93638 10.449 6.91096 10.4104 6.89456C10.3719 6.87818 10.3173 6.86477 10.2891 6.86477C10.2609 6.86477 10.2319 6.85542 10.2246 6.84398C10.2174 6.83255 10.164 6.8232 10.1061 6.8232C10.0481 6.8232 10.0007 6.81384 10.0007 6.80241C10.0007 6.79054 9.93678 6.78163 9.85149 6.78163C9.76621 6.78163 9.70224 6.77271 9.70224 6.76084C9.70224 6.74747 9.48903 6.74005 9.10525 6.74005C8.72147 6.74005 8.50826 6.74747 8.50826 6.76084C8.50826 6.77256 8.44786 6.78163 8.36968 6.78163C8.29149 6.78163 8.23109 6.79069 8.23109 6.80241C8.23109 6.81384 8.18791 6.8232 8.13514 6.8232C8.08237 6.8232 8.0392 6.83255 8.0392 6.84398C8.0392 6.85542 8.00803 6.8651 7.96991 6.8655C7.93178 6.86591 7.87663 6.87961 7.84731 6.89595C7.81799 6.91229 7.76819 6.92599 7.73663 6.9264C7.70508 6.9268 7.67333 6.93648 7.66608 6.94792C7.65883 6.95935 7.6247 6.9687 7.5902 6.9687C7.5557 6.9687 7.52749 6.97806 7.52749 6.98949C7.52749 7.00092 7.50351 7.01028 7.47419 7.01028C7.44487 7.01028 7.42089 7.01963 7.42089 7.03106C7.42089 7.04249 7.3921 7.05185 7.35692 7.05185C7.32174 7.05185 7.29296 7.0612 7.29296 7.07263C7.29296 7.08407 7.27377 7.09342 7.25032 7.09342C7.22687 7.09342 7.20753 7.10043 7.20736 7.10901C7.20719 7.1176 7.14017 7.15266 7.05843 7.18696C6.97668 7.22126 6.90967 7.25632 6.9095 7.26491C6.90933 7.27349 6.88999 7.2805 6.86654 7.2805C6.84309 7.2805 6.8239 7.28985 6.8239 7.30128C6.8239 7.31272 6.80471 7.32207 6.78126 7.32207C6.7578 7.32207 6.73861 7.3293 6.73861 7.33814C6.73861 7.34697 6.70503 7.37181 6.66399 7.39337C6.62295 7.41492 6.58937 7.44043 6.58937 7.45005C6.58937 7.4597 6.57018 7.46758 6.54672 7.46758C6.52327 7.46758 6.50408 7.47693 6.50408 7.48836C6.50408 7.49979 6.48969 7.50915 6.4721 7.50915C6.45451 7.50915 6.44012 7.5185 6.44012 7.52993C6.44012 7.54137 6.42984 7.55072 6.41728 7.55072C6.4047 7.55072 6.38232 7.5624 6.3675 7.5767C6.35268 7.591 6.31392 7.62139 6.28136 7.64426C6.24882 7.66712 6.20953 7.69753 6.19409 7.71181C6.17864 7.7261 6.16026 7.7378 6.15324 7.7378C6.14623 7.7378 6.09776 7.77756 6.04555 7.82614C5.99333 7.87472 5.92677 7.93552 5.89762 7.96125C5.8685 7.98696 5.83882 8.00802 5.8317 8.00802C5.82458 8.00802 5.80505 8.02139 5.78831 8.03772C5.77155 8.05404 5.75784 8.07306 5.75784 8.07998C5.75784 8.0869 5.72665 8.12492 5.68855 8.1645C5.65045 8.20408 5.58806 8.26897 5.54996 8.30872C5.51184 8.34848 5.48067 8.38635 5.48067 8.39292C5.48067 8.39949 5.45909 8.42772 5.4327 8.45563C5.4063 8.48357 5.36315 8.52959 5.33675 8.55788C5.31038 8.58619 5.28878 8.61903 5.28878 8.63086C5.28878 8.64271 5.27918 8.6524 5.26746 8.6524C5.25573 8.6524 5.24614 8.66643 5.24614 8.68358C5.24614 8.70073 5.23654 8.71476 5.22482 8.71476C5.21309 8.71476 5.2035 8.72879 5.2035 8.74594C5.2035 8.76308 5.1939 8.77712 5.18217 8.77712C5.17045 8.77712 5.16085 8.78605 5.16085 8.79699C5.16085 8.8079 5.13699 8.85234 5.10785 8.89572C5.0787 8.9391 5.04512 8.98589 5.03322 8.9997C5.02133 9.0135 5.01161 9.03923 5.01161 9.05686C5.01161 9.07448 5.00201 9.08891 4.99028 9.08891C4.97856 9.08891 4.96896 9.10294 4.96896 9.12009C4.96896 9.13724 4.95937 9.15127 4.94764 9.15127C4.93591 9.15127 4.92632 9.16998 4.92632 9.19284C4.92632 9.21571 4.91673 9.23442 4.905 9.23442C4.89327 9.23442 4.88368 9.24749 4.88368 9.26347C4.88368 9.27946 4.8598 9.33323 4.83063 9.383C4.80146 9.43276 4.77748 9.48984 4.77733 9.50983C4.77718 9.52983 4.76748 9.54621 4.75575 9.54621C4.74403 9.54621 4.73443 9.5696 4.73443 9.59818C4.73443 9.62676 4.72484 9.65014 4.71311 9.65014C4.70138 9.65014 4.69179 9.6782 4.69179 9.7125C4.69179 9.7468 4.68219 9.77486 4.67047 9.77486C4.65874 9.77486 4.64915 9.79637 4.64915 9.82267C4.64915 9.84896 4.64094 9.87935 4.63092 9.89022C4.62087 9.90108 4.59689 9.95851 4.57761 10.0178C4.55832 10.0771 4.54254 10.1496 4.54254 10.1789C4.54254 10.2082 4.53295 10.2322 4.52122 10.2322C4.50949 10.2322 4.4999 10.2696 4.4999 10.3153C4.4999 10.361 4.4903 10.3985 4.47858 10.3985C4.4664 10.3985 4.45726 10.4608 4.45726 10.544C4.45726 10.624 4.44909 10.6895 4.43911 10.6895C4.42911 10.6895 4.41319 10.7994 4.40372 10.9337C4.39423 11.068 4.3866 11.2434 4.38675 11.3234C4.3869 11.4035 4.39462 11.5882 4.40391 11.734C4.41321 11.8797 4.42903 11.999 4.43903 11.999C4.44905 11.999 4.45726 12.0598 4.45726 12.1341C4.45726 12.2103 4.46655 12.2692 4.47858 12.2692C4.4903 12.2692 4.4999 12.3113 4.4999 12.3628C4.4999 12.4142 4.50949 12.4563 4.52122 12.4563C4.53295 12.4563 4.54254 12.4767 4.54254 12.5016C4.54254 12.5265 4.55329 12.5803 4.56642 12.6211C4.57955 12.6619 4.60354 12.7261 4.61972 12.7636C4.63591 12.8011 4.64915 12.8503 4.64915 12.8727C4.64915 12.8952 4.65874 12.9136 4.67047 12.9136C4.68219 12.9136 4.69179 12.9417 4.69179 12.976C4.69179 13.0103 4.70138 13.0383 4.71311 13.0383C4.72484 13.0383 4.73443 13.0525 4.73443 13.0698C4.73443 13.0871 4.74238 13.1175 4.75208 13.1373C4.76181 13.1572 4.80731 13.2459 4.85319 13.3345C4.89907 13.4231 4.94389 13.4956 4.9528 13.4956C4.96169 13.4956 4.96896 13.519 4.96896 13.5476C4.96896 13.5762 4.97856 13.5995 4.99028 13.5995C5.00201 13.5995 5.01161 13.614 5.01161 13.6316C5.01161 13.6492 5.02137 13.675 5.03333 13.6888C5.04527 13.7026 5.07459 13.737 5.09849 13.7652C5.12239 13.7934 5.15689 13.8472 5.17516 13.8847C5.19341 13.9222 5.21686 13.9529 5.22725 13.9529C5.23763 13.9529 5.24614 13.9669 5.24614 13.9841C5.24614 14.0012 5.27972 14.0499 5.32076 14.0923C5.3618 14.1347 5.39538 14.1778 5.39538 14.1879C5.39538 14.1981 5.42417 14.2327 5.45935 14.2647C5.49453 14.2967 5.52331 14.3289 5.52331 14.3361C5.52331 14.3433 5.55723 14.384 5.5987 14.4265C5.64017 14.469 5.72172 14.5517 5.77993 14.6103C5.83814 14.669 5.88577 14.7274 5.88577 14.7403C5.88577 14.7531 5.86658 14.7636 5.84313 14.7636C5.81967 14.7636 5.80049 14.7729 5.80049 14.7844C5.80049 14.7958 5.7717 14.8052 5.73652 14.8052C5.70134 14.8052 5.67256 14.8145 5.67256 14.8259C5.67256 14.8374 5.65578 14.847 5.63525 14.8474C5.61471 14.8477 5.5793 14.8618 5.55655 14.8786C5.53378 14.8953 5.49781 14.9091 5.4766 14.9091C5.45538 14.9091 5.43803 14.9184 5.43803 14.9299C5.43803 14.9413 5.41404 14.9507 5.38472 14.9507C5.35541 14.9507 5.33142 14.96 5.33142 14.9714C5.33142 14.9829 5.31223 14.9922 5.28878 14.9922C5.26533 14.9922 5.24614 15.0016 5.24614 15.013C5.24614 15.0245 5.22695 15.0338 5.2035 15.0338C5.18004 15.0338 5.16085 15.0432 5.16085 15.0546C5.16085 15.066 5.13687 15.0754 5.10755 15.0754C5.07823 15.0754 5.05425 15.0838 5.05425 15.0941C5.05425 15.1044 5.01111 15.1301 4.95839 15.1513C4.90566 15.1724 4.86249 15.1967 4.86244 15.2053C4.8624 15.2139 4.84317 15.2209 4.81972 15.2209C4.79626 15.2209 4.77707 15.2302 4.77707 15.2417C4.77707 15.2531 4.75788 15.2625 4.73443 15.2625C4.71098 15.2625 4.69179 15.2696 4.69179 15.2783C4.69179 15.2871 4.65582 15.3096 4.61183 15.3284C4.56787 15.3472 4.51069 15.3822 4.4848 15.4061C4.4589 15.43 4.42293 15.4495 4.40485 15.4495C4.38677 15.4495 4.37197 15.4589 4.37197 15.4703C4.37197 15.4818 4.35758 15.4911 4.33999 15.4911C4.3224 15.4911 4.30801 15.5005 4.30801 15.5119C4.30801 15.5233 4.28882 15.5327 4.26537 15.5327C4.24191 15.5327 4.22272 15.542 4.22272 15.5535C4.22272 15.5649 4.21249 15.5743 4.19998 15.5743C4.18748 15.5743 4.1458 15.5976 4.10736 15.6262C4.06891 15.6548 4.02851 15.6782 4.01753 15.6782C4.00657 15.6782 3.98378 15.6969 3.96687 15.7198C3.94996 15.7426 3.92118 15.7613 3.90291 15.7613C3.88464 15.7613 3.85585 15.78 3.83895 15.8029C3.82204 15.8258 3.80033 15.8445 3.7907 15.8445C3.78106 15.8445 3.75874 15.8562 3.74108 15.8705C3.72341 15.8848 3.68588 15.9175 3.65765 15.9432C3.62944 15.9689 3.59631 15.99 3.58405 15.99C3.57179 15.99 3.56177 15.9993 3.56177 16.0108C3.56177 16.0222 3.54926 16.0316 3.53395 16.0316C3.51866 16.0316 3.46828 16.0642 3.42201 16.1042C3.37574 16.1441 3.3263 16.1862 3.31214 16.1977C3.29799 16.2092 3.28097 16.2186 3.27434 16.2186C3.26769 16.2186 3.19929 16.2794 3.1223 16.3537C3.04533 16.4281 2.97395 16.4889 2.96365 16.4889C2.95337 16.4889 2.8247 16.6064 2.67769 16.75C2.5307 16.8936 2.41043 17.0155 2.41043 17.0208C2.41043 17.0261 2.37924 17.0644 2.34114 17.1059C2.30304 17.1475 2.24065 17.2124 2.20255 17.2502C2.16445 17.288 2.13326 17.3238 2.13326 17.3298C2.13326 17.3359 2.11166 17.3657 2.08529 17.3961C2.05889 17.4265 2.00612 17.4824 1.96802 17.5203C1.92992 17.5581 1.89873 17.5988 1.89873 17.6106C1.89873 17.6224 1.88913 17.6321 1.87741 17.6321C1.86568 17.6321 1.85608 17.6465 1.85608 17.6642C1.85608 17.6819 1.83449 17.7189 1.80811 17.7464C1.78174 17.7739 1.74816 17.8105 1.73349 17.8277C1.71884 17.8449 1.70684 17.8667 1.70684 17.8761C1.70684 17.8855 1.68765 17.9066 1.66419 17.9231C1.64074 17.9396 1.62155 17.9697 1.62155 17.9901C1.62155 18.0104 1.61437 18.0273 1.60556 18.0275C1.59676 18.0278 1.56079 18.0698 1.52561 18.121C1.49043 18.1722 1.45446 18.2141 1.44565 18.2141C1.43685 18.2141 1.42966 18.2328 1.42966 18.2557C1.42966 18.2786 1.42007 18.2973 1.40834 18.2973C1.39661 18.2973 1.38702 18.3113 1.38702 18.3284C1.38702 18.3456 1.37743 18.3596 1.3657 18.3596C1.35397 18.3596 1.34438 18.3783 1.34438 18.4012C1.34438 18.4241 1.33623 18.4428 1.3263 18.4428C1.31634 18.4428 1.2909 18.4802 1.26975 18.5259C1.2486 18.5716 1.22496 18.6091 1.2172 18.6091C1.20944 18.6091 1.18991 18.6418 1.17381 18.6818C1.15771 18.7218 1.13673 18.7546 1.12718 18.7546C1.11765 18.7546 1.10985 18.7733 1.10985 18.7961C1.10985 18.819 1.10025 18.8377 1.08852 18.8377C1.0768 18.8377 1.0672 18.8492 1.0672 18.8634C1.0672 18.8775 1.04081 18.9406 1.00857 19.0037C0.976312 19.0667 0.942753 19.1214 0.933947 19.1252C0.925141 19.1291 0.917956 19.1501 0.917956 19.172C0.917956 19.1939 0.908362 19.2119 0.896635 19.2119C0.884908 19.2119 0.875314 19.2353 0.875314 19.2638C0.875314 19.2924 0.865719 19.3158 0.853993 19.3158C0.842266 19.3158 0.832672 19.3392 0.832672 19.3678C0.832672 19.3963 0.823077 19.4197 0.811351 19.4197C0.799624 19.4197 0.789731 19.4314 0.789369 19.4457C0.789006 19.46 0.765105 19.5185 0.736258 19.5756C0.70741 19.6328 0.683723 19.6959 0.683616 19.7159C0.683509 19.7359 0.67383 19.7523 0.662103 19.7523C0.650376 19.7523 0.640782 19.7804 0.640782 19.8147C0.640782 19.849 0.631187 19.877 0.619461 19.877C0.607734 19.877 0.597991 19.8934 0.59782 19.9134C0.597649 19.9334 0.585582 19.9825 0.570998 20.0225C0.556414 20.0625 0.538782 20.1046 0.53181 20.1161C0.524838 20.1275 0.502238 20.207 0.481577 20.2928C0.460896 20.3785 0.435503 20.4701 0.425119 20.4964C0.414736 20.5227 0.40625 20.7542 0.40625 21.0109C0.40625 21.3081 0.41399 21.4776 0.427571 21.4776C0.439298 21.4776 0.449041 21.5033 0.449212 21.5347C0.449383 21.5662 0.466653 21.6454 0.487569 21.7107C0.508506 21.7761 0.532343 21.8361 0.540552 21.8441C0.548781 21.8521 0.555498 21.8852 0.555498 21.9176C0.555498 21.9499 0.565092 21.9764 0.576819 21.9764C0.588545 21.9764 0.59814 21.9952 0.59814 22.018C0.59814 22.0409 0.607734 22.0596 0.619461 22.0596C0.631187 22.0596 0.640782 22.083 0.640782 22.1116C0.640782 22.1401 0.650376 22.1635 0.662103 22.1635C0.67383 22.1635 0.683424 22.1822 0.683424 22.2051C0.683424 22.228 0.691569 22.2467 0.701504 22.2467C0.711461 22.2467 0.736897 22.2841 0.758048 22.3298C0.779198 22.3755 0.804635 22.413 0.814591 22.413C0.824527 22.413 0.832672 22.427 0.832672 22.4441C0.832672 22.4613 0.842266 22.4753 0.853993 22.4753C0.865719 22.4753 0.875314 22.4897 0.875314 22.5074C0.875314 22.525 0.895207 22.5601 0.919513 22.5853C0.943819 22.6106 0.984585 22.6582 1.01013 22.6911C1.03565 22.724 1.14053 22.8339 1.24319 22.9353C1.34585 23.0367 1.43798 23.1197 1.44791 23.1197C1.45785 23.1197 1.4961 23.1478 1.53292 23.1821C1.56972 23.2164 1.61432 23.2444 1.63202 23.2444C1.64972 23.2444 1.66419 23.2538 1.66419 23.2652C1.66419 23.2766 1.674 23.286 1.68596 23.286C1.69795 23.286 1.74833 23.3117 1.7979 23.3432C1.84749 23.3746 1.89126 23.4073 1.89517 23.4159C1.89909 23.4245 1.92546 23.4315 1.9538 23.4315C1.98213 23.4315 2.00533 23.4408 2.00533 23.4523C2.00533 23.4637 2.02452 23.4731 2.04797 23.4731C2.07143 23.4731 2.09062 23.4824 2.09062 23.4939C2.09062 23.5053 2.1194 23.5146 2.15458 23.5146C2.18976 23.5146 2.21854 23.524 2.21854 23.5354C2.21854 23.5469 2.24266 23.5562 2.27214 23.5562C2.30161 23.5562 2.3424 23.5652 2.36276 23.5761C2.38312 23.587 2.45401 23.6104 2.52032 23.6281C2.58663 23.6457 2.67479 23.6601 2.71628 23.6601C2.75775 23.6601 2.79762 23.6695 2.80487 23.6809C2.81359 23.6947 4.27937 23.7017 7.13305 23.7017C9.98673 23.7017 11.4525 23.6947 11.4612 23.6809C11.4685 23.6695 11.4927 23.6601 11.5151 23.6601C11.5374 23.6601 11.5896 23.6444 11.6311 23.6251C11.6725 23.6059 11.7064 23.5825 11.7064 23.5732C11.7064 23.5638 11.7208 23.5562 11.7384 23.5562C11.756 23.5562 11.7704 23.5469 11.7704 23.5354C11.7704 23.524 11.7852 23.5146 11.8033 23.5146C11.8215 23.5146 11.8598 23.4917 11.8886 23.4636C11.9174 23.4355 11.941 23.4071 11.941 23.4004C11.941 23.3937 11.9507 23.3769 11.9627 23.3631C11.9746 23.3493 12.0037 23.3152 12.0272 23.2874C12.0508 23.2595 12.0756 23.2151 12.0824 23.1886C12.0892 23.1621 12.1034 23.1405 12.1138 23.1405C12.1243 23.1405 12.1328 23.1124 12.1328 23.0781C12.1328 23.0438 12.1424 23.0158 12.1542 23.0158C12.167 23.0158 12.1755 22.9326 12.1755 22.8079C12.1755 22.6832 12.167 22.6 12.1542 22.6C12.1424 22.6 12.1328 22.5626 12.1328 22.5169C12.1328 22.4712 12.1233 22.4338 12.1115 22.4338C12.0998 22.4338 12.0902 22.4197 12.0902 22.4026C12.0902 22.3854 12.0806 22.3714 12.0689 22.3714C12.0572 22.3714 12.0474 22.3597 12.0473 22.3454C12.0471 22.3311 12.0255 22.2929 11.9993 22.2604C11.9731 22.228 11.9324 22.1832 11.909 22.1608C11.8855 22.1384 11.8376 22.0972 11.8024 22.0691C11.7672 22.041 11.7216 22.0181 11.7011 22.018C11.6806 22.018 11.6638 22.0087 11.6638 21.9972C11.6638 21.9858 11.6446 21.9764 11.6211 21.9764C11.5977 21.9764 11.5785 21.9682 11.5785 21.958C11.5785 21.9479 11.5473 21.9323 11.5092 21.9233C11.4711 21.9144 9.5266 21.9016 7.18813 21.895C3.81449 21.8854 2.9345 21.8775 2.92747 21.8569C2.92259 21.8426 2.90212 21.8309 2.88197 21.8309C2.86184 21.8309 2.81954 21.8192 2.78796 21.805C2.75641 21.7907 2.7305 21.772 2.73042 21.7634C2.73033 21.7548 2.71596 21.7478 2.6985 21.7478C2.68106 21.7478 2.64609 21.7314 2.62085 21.7114C2.59558 21.6914 2.55949 21.6575 2.54064 21.6361C2.52179 21.6146 2.48478 21.5753 2.4584 21.5487C2.43201 21.522 2.41043 21.4905 2.41043 21.4785C2.41043 21.4666 2.40195 21.4568 2.39161 21.4568C2.38124 21.4568 2.36728 21.4404 2.36056 21.4204C2.35385 21.4004 2.32873 21.3329 2.30476 21.2705C2.27443 21.1915 2.26118 21.1073 2.26118 20.9933C2.26118 20.9033 2.27758 20.7696 2.29762 20.6963C2.31766 20.623 2.34165 20.563 2.35093 20.563C2.3602 20.563 2.36779 20.5349 2.36779 20.5006C2.36779 20.4663 2.37738 20.4383 2.38911 20.4383C2.40084 20.4383 2.41043 20.4149 2.41043 20.3863C2.41043 20.3577 2.42003 20.3343 2.43175 20.3343C2.44348 20.3343 2.45307 20.3063 2.45307 20.272C2.45307 20.2377 2.46267 20.2096 2.4744 20.2096C2.48612 20.2096 2.49572 20.1965 2.49572 20.1806C2.49572 20.1646 2.5196 20.1108 2.54876 20.061C2.57793 20.0113 2.60192 19.9542 2.60207 19.9342C2.60222 19.9142 2.61192 19.8978 2.62364 19.8978C2.63537 19.8978 2.64496 19.8791 2.64496 19.8562C2.64496 19.8334 2.65456 19.8147 2.66629 19.8147C2.67801 19.8147 2.68761 19.7913 2.68761 19.7627C2.68761 19.7341 2.6972 19.7107 2.70893 19.7107C2.72065 19.7107 2.73025 19.7018 2.73025 19.6909C2.73025 19.68 2.75411 19.6355 2.78325 19.5921C2.8124 19.5487 2.84598 19.502 2.85788 19.4882C2.86977 19.4744 2.8795 19.4486 2.8795 19.431C2.8795 19.4134 2.88909 19.3989 2.90082 19.3989C2.91254 19.3989 2.92214 19.3802 2.92214 19.3574C2.92214 19.3345 2.93173 19.3158 2.94346 19.3158C2.95519 19.3158 2.96478 19.3018 2.96478 19.2846C2.96478 19.2675 2.9722 19.2534 2.98126 19.2534C2.99032 19.2534 3.0158 19.2207 3.03791 19.1807C3.06002 19.1407 3.08618 19.1079 3.09605 19.1079C3.10595 19.1079 3.11403 19.0913 3.11403 19.071C3.11403 19.0506 3.13322 19.0205 3.15667 19.004C3.18012 18.9875 3.19931 18.9614 3.19931 18.946C3.19931 18.9305 3.21132 18.9061 3.22596 18.8916C3.24063 18.8772 3.2718 18.8392 3.29526 18.8073C3.31871 18.7754 3.35948 18.7275 3.38587 18.7009C3.41225 18.6743 3.43384 18.647 3.43384 18.6402C3.43384 18.6335 3.45542 18.6057 3.48182 18.5785C3.50821 18.5513 3.55857 18.4945 3.59375 18.4522C3.62893 18.4099 3.73447 18.2971 3.82828 18.2014C3.9221 18.1057 4.00973 18.0157 4.02299 18.0013C4.03627 17.9869 4.10147 17.926 4.16791 17.8659C4.23432 17.8059 4.29334 17.7568 4.29905 17.7568C4.30477 17.7568 4.34253 17.7264 4.38297 17.6893C4.42344 17.6521 4.48033 17.6007 4.50943 17.5749C4.53853 17.5492 4.57015 17.5282 4.57973 17.5282C4.58928 17.5282 4.61092 17.5095 4.62783 17.4866C4.64473 17.4637 4.67115 17.445 4.68654 17.445C4.70196 17.445 4.7414 17.4193 4.77424 17.3879C4.80707 17.3564 4.85481 17.3143 4.88037 17.2943C4.90592 17.2743 4.9363 17.2579 4.94788 17.2579C4.95948 17.2579 4.96896 17.2486 4.96896 17.2372C4.96896 17.2257 4.98815 17.2164 5.01161 17.2164C5.03506 17.2164 5.05425 17.209 5.05425 17.2001C5.05425 17.1911 5.08542 17.1658 5.12354 17.144C5.16164 17.122 5.21143 17.0873 5.23418 17.0667C5.2569 17.0461 5.28808 17.0293 5.30347 17.0293C5.31884 17.0293 5.33142 17.0199 5.33142 17.0085C5.33142 16.9971 5.35061 16.9877 5.37406 16.9877C5.39752 16.9877 5.41671 16.9784 5.41671 16.9669C5.41671 16.9555 5.4311 16.9462 5.44869 16.9462C5.46628 16.9462 5.48067 16.9368 5.48067 16.9254C5.48067 16.9139 5.49869 16.9046 5.52071 16.9046C5.54271 16.9046 5.57267 16.8905 5.58727 16.8734C5.60188 16.8563 5.62704 16.8422 5.64318 16.8422C5.65934 16.8422 5.67256 16.8329 5.67256 16.8214C5.67256 16.81 5.69175 16.8006 5.7152 16.8006C5.73865 16.8006 5.75784 16.7913 5.75784 16.7799C5.75784 16.7684 5.77703 16.7591 5.80049 16.7591C5.82394 16.7591 5.84313 16.7497 5.84313 16.7383C5.84313 16.7269 5.86632 16.7175 5.89466 16.7175C5.923 16.7175 5.94937 16.7093 5.95329 16.6993C5.9572 16.6893 6.03495 16.6472 6.1261 16.6058C6.21723 16.5643 6.30599 16.5304 6.32332 16.5304C6.34066 16.5304 6.35483 16.5211 6.35483 16.5096C6.35483 16.4982 6.37882 16.4889 6.40814 16.4889C6.43745 16.4889 6.46144 16.4795 6.46144 16.4681C6.46144 16.4566 6.48555 16.4473 6.51504 16.4473C6.54451 16.4473 6.58529 16.4389 6.60566 16.4286C6.62602 16.4184 6.68584 16.394 6.73861 16.3745C6.79138 16.355 6.85121 16.3307 6.87157 16.3204C6.89193 16.3102 6.93272 16.3018 6.96219 16.3018C6.99167 16.3018 7.01579 16.2924 7.01579 16.281C7.01579 16.2696 7.05417 16.2602 7.10107 16.2602C7.14798 16.2602 7.18636 16.2508 7.18636 16.2394C7.18636 16.228 7.21527 16.2186 7.25062 16.2186C7.28595 16.2186 7.33153 16.2098 7.35189 16.1989C7.37225 16.1881 7.48965 16.1588 7.61278 16.1338C7.73591 16.1088 7.89181 16.0841 7.95925 16.0789C8.02668 16.0737 8.08184 16.0609 8.08184 16.0505C8.08184 16.0401 8.16819 16.0316 8.27373 16.0316C8.38744 16.0316 8.46562 16.0231 8.46562 16.0108C8.46562 15.9974 8.68949 15.99 9.09459 15.99C9.46767 15.99 9.72357 15.9978 9.72357 16.0093C9.72357 16.0199 9.80751 16.0335 9.91012 16.0396C10.0127 16.0456 10.1543 16.0566 10.2246 16.064C10.295 16.0714 10.3573 16.0842 10.3632 16.0924C10.3691 16.1006 10.441 16.1187 10.5231 16.1327C10.6052 16.1468 10.7083 16.1634 10.7523 16.1698C10.7963 16.1762 10.8323 16.1898 10.8323 16.2C10.8323 16.2103 10.8658 16.2186 10.9069 16.2186C10.9479 16.2186 10.9815 16.228 10.9815 16.2394C10.9815 16.2508 11.0199 16.2602 11.0668 16.2602C11.1137 16.2602 11.1521 16.2696 11.1521 16.281C11.1521 16.2924 11.169 16.3018 11.1897 16.3018C11.2104 16.3018 11.2799 16.3214 11.3443 16.3454C11.4086 16.3694 11.483 16.3939 11.5095 16.3999C11.5361 16.4058 11.563 16.4189 11.5694 16.429C11.5758 16.439 11.6044 16.4473 11.6331 16.4473C11.6617 16.4473 11.6851 16.4566 11.6851 16.4681C11.6851 16.4795 11.7091 16.4889 11.7384 16.4889C11.7677 16.4889 11.7917 16.4982 11.7917 16.5096C11.7917 16.5211 11.8157 16.5304 11.845 16.5304C11.8743 16.5304 11.8983 16.5398 11.8983 16.5512C11.8983 16.5626 11.9117 16.572 11.9281 16.572C11.9445 16.572 11.9997 16.5953 12.0507 16.6237C12.1018 16.6521 12.1603 16.6755 12.1808 16.6757C12.2013 16.6758 12.2181 16.6853 12.2181 16.6967C12.2181 16.7081 12.2325 16.7175 12.2501 16.7175C12.2677 16.7175 12.2821 16.7269 12.2821 16.7383C12.2821 16.7497 12.3013 16.7591 12.3247 16.7591C12.3482 16.7591 12.3674 16.7684 12.3674 16.7799C12.3674 16.7913 12.3866 16.8006 12.41 16.8006C12.4335 16.8006 12.4527 16.809 12.4527 16.8192C12.4527 16.8294 12.4767 16.8436 12.506 16.8508C12.5353 16.8579 12.5593 16.873 12.5593 16.8842C12.5593 16.8954 12.5741 16.9046 12.5921 16.9046C12.6102 16.9046 12.6456 16.9233 12.6708 16.9462C12.696 16.969 12.7291 16.9877 12.7445 16.9877C12.7599 16.9877 12.7725 16.9971 12.7725 17.0085C12.7725 17.0199 12.7869 17.0293 12.8045 17.0293C12.8221 17.0293 12.8364 17.0387 12.8364 17.0501C12.8364 17.0615 12.8515 17.0709 12.8699 17.0709C12.8884 17.0709 12.9168 17.0826 12.9332 17.0969C12.9495 17.1112 12.9772 17.1345 12.9947 17.1488C13.0122 17.1631 13.0365 17.1748 13.0488 17.1748C13.061 17.1748 13.071 17.1842 13.071 17.1956C13.071 17.207 13.0902 17.2164 13.1136 17.2164C13.1371 17.2164 13.1563 17.2257 13.1563 17.2372C13.1563 17.2486 13.1754 17.2579 13.1989 17.2579C13.2224 17.2579 13.2415 17.2673 13.2415 17.2787C13.2415 17.2902 13.2647 17.2995 13.2931 17.2995C13.3214 17.2995 13.3482 17.3099 13.3525 17.3226C13.3575 17.3373 13.4375 17.3462 13.5728 17.3473C13.698 17.3482 13.8268 17.3369 13.8865 17.3197C13.9422 17.3036 13.9878 17.2831 13.9878 17.2742C13.9878 17.2653 14.0118 17.2579 14.0411 17.2579C14.0704 17.2579 14.0944 17.2486 14.0944 17.2372C14.0944 17.2257 14.1092 17.2164 14.1273 17.2164C14.1455 17.2164 14.1838 17.1934 14.2126 17.1653C14.2414 17.1373 14.265 17.1104 14.265 17.1056C14.265 17.1008 14.2985 17.0611 14.3396 17.0175C14.3806 16.9738 14.4142 16.9258 14.4142 16.9109C14.4142 16.896 14.4238 16.8838 14.4355 16.8838C14.4473 16.8838 14.4568 16.8651 14.4568 16.8422C14.4568 16.8194 14.4654 16.8006 14.4758 16.8006C14.4863 16.8006 14.5016 16.7656 14.5098 16.7227C14.518 16.6798 14.5293 16.5582 14.5349 16.4525C14.5417 16.3237 14.5375 16.2602 14.5223 16.2602C14.5097 16.2602 14.4995 16.2321 14.4995 16.1978C14.4995 16.1635 14.4899 16.1355 14.4782 16.1355C14.4664 16.1355 14.4568 16.1121 14.4568 16.0835C14.4568 16.0549 14.4473 16.0316 14.4355 16.0316C14.4238 16.0316 14.4142 16.0171 14.4142 15.9994C14.4142 15.9816 14.359 15.9135 14.2916 15.848C14.2242 15.7825 14.1114 15.6919 14.0411 15.6468C13.9707 15.6016 13.91 15.5575 13.9061 15.5487C13.9021 15.5399 13.8806 15.5327 13.8581 15.5327C13.8356 15.5327 13.8172 15.5233 13.8172 15.5119C13.8172 15.5005 13.8072 15.4911 13.795 15.4911C13.7828 15.4911 13.7612 15.4816 13.747 15.47C13.7329 15.4584 13.6849 15.4257 13.6404 15.3973C13.5959 15.3689 13.5503 15.3456 13.5391 15.3456C13.5279 15.3456 13.5187 15.3362 13.5187 15.3248C13.5187 15.3134 13.4995 15.304 13.4761 15.304C13.4526 15.304 13.4334 15.2947 13.4334 15.2832C13.4334 15.2718 13.4142 15.2625 13.3908 15.2625C13.3673 15.2625 13.3482 15.2531 13.3482 15.2417C13.3482 15.2302 13.3338 15.2209 13.3162 15.2209C13.2986 15.2209 13.2842 15.2115 13.2842 15.2001C13.2842 15.1887 13.265 15.1793 13.2415 15.1793C13.2181 15.1793 13.1989 15.1714 13.1989 15.1617C13.1989 15.152 13.1557 15.1266 13.103 15.1054C13.0502 15.0842 13.007 15.0594 13.007 15.0503C13.007 15.0412 12.9878 15.0338 12.9644 15.0338C12.9409 15.0338 12.9217 15.0245 12.9217 15.013C12.9217 15.0016 12.8977 14.9922 12.8684 14.9922C12.8391 14.9922 12.8151 14.9829 12.8151 14.9714C12.8151 14.96 12.8025 14.9507 12.7871 14.9507C12.7717 14.9507 12.707 14.927 12.6432 14.8982C12.5795 14.8693 12.5106 14.8365 12.4903 14.8254C12.4699 14.8143 12.438 14.8052 12.4194 14.8052C12.4009 14.8052 12.3709 14.7908 12.3529 14.7732C12.3234 14.7444 12.3246 14.7374 12.3651 14.7032C12.3898 14.6823 12.41 14.6588 12.41 14.6511C12.41 14.6433 12.4336 14.614 12.4624 14.586C12.4911 14.5579 12.5204 14.5349 12.5273 14.5349C12.5342 14.5349 12.5634 14.512 12.5922 14.4839C12.621 14.4558 12.6446 14.4279 12.6446 14.4217C12.6446 14.4156 12.6662 14.3857 12.6925 14.3554C12.7189 14.325 12.7621 14.2786 12.7885 14.2522C12.8148 14.2258 12.8364 14.1965 12.8364 14.1871C12.8364 14.1777 12.8556 14.1565 12.8791 14.14C12.9025 14.1235 12.9217 14.0954 12.9217 14.0776C12.9217 14.0598 12.9409 14.0318 12.9644 14.0153C12.9878 13.9988 13.007 13.9774 13.007 13.9677C13.007 13.9581 13.031 13.9195 13.0603 13.882C13.0896 13.8445 13.1136 13.8031 13.1136 13.7899C13.1136 13.7766 13.1232 13.7658 13.1349 13.7658C13.1467 13.7658 13.1563 13.7518 13.1563 13.7347C13.1563 13.7175 13.1659 13.7035 13.1776 13.7035C13.1893 13.7035 13.1989 13.6848 13.1989 13.6619C13.1989 13.639 13.2064 13.6203 13.2156 13.6203C13.2248 13.6203 13.2608 13.5644 13.2956 13.496C13.3303 13.4276 13.366 13.3714 13.3748 13.3712C13.3836 13.371 13.3908 13.3475 13.3908 13.3189C13.3908 13.2904 13.4004 13.267 13.4121 13.267C13.4238 13.267 13.4334 13.2436 13.4334 13.215C13.4334 13.1864 13.443 13.163 13.4548 13.163C13.4665 13.163 13.4761 13.1443 13.4761 13.1215C13.4761 13.0986 13.4833 13.0799 13.4922 13.0799C13.501 13.0799 13.5209 13.0448 13.5364 13.0019C13.5519 12.9591 13.5697 12.8983 13.576 12.8668C13.5823 12.8354 13.596 12.8097 13.6064 12.8097C13.6168 12.8097 13.6253 12.7816 13.6253 12.7473C13.6253 12.713 13.6349 12.6849 13.6466 12.6849C13.6584 12.6849 13.668 12.6522 13.668 12.6122C13.668 12.5722 13.6776 12.5394 13.6893 12.5394C13.701 12.5394 13.7106 12.4979 13.7106 12.4471C13.7106 12.3964 13.7192 12.3496 13.7297 12.3433C13.7402 12.337 13.7537 12.2967 13.7598 12.2538C13.7659 12.2108 13.7816 12.0962 13.7947 11.999C13.8078 11.9018 13.8231 11.8016 13.8287 11.7763C13.8344 11.751 13.8629 11.707 13.8921 11.6785C13.9213 11.65 13.9451 11.6185 13.9451 11.6085C13.9451 11.5985 13.9691 11.5778 13.9984 11.5625C14.0278 11.5472 14.0517 11.5269 14.0517 11.5174C14.0517 11.5079 14.0614 11.5001 14.0732 11.5001C14.085 11.5001 14.1372 11.458 14.1892 11.4066C14.2412 11.3551 14.2918 11.3131 14.3017 11.3131C14.3115 11.3131 14.3333 11.2943 14.3502 11.2715C14.3671 11.2486 14.3933 11.2299 14.4084 11.2299C14.4235 11.2299 14.466 11.2018 14.5028 11.1675C14.5397 11.1332 14.5775 11.1052 14.587 11.1052C14.5964 11.1052 14.6281 11.0818 14.6575 11.0532C14.6868 11.0246 14.7209 11.0013 14.7333 11.0013C14.7456 11.0013 14.7856 10.9735 14.822 10.9395C14.8584 10.9056 14.9063 10.8722 14.9284 10.8654C14.9505 10.8585 14.9686 10.8442 14.9686 10.8336C14.9686 10.8229 14.9877 10.8142 15.0112 10.8142C15.0346 10.8142 15.0538 10.8048 15.0538 10.7934C15.0538 10.782 15.0682 10.7726 15.0858 10.7726C15.1034 10.7726 15.1178 10.7633 15.1178 10.7518C15.1178 10.7404 15.137 10.731 15.1604 10.731C15.1839 10.731 15.2031 10.724 15.2031 10.7154C15.2032 10.7069 15.2559 10.673 15.3204 10.6401C15.3849 10.6073 15.4376 10.5722 15.4376 10.5622C15.4376 10.5522 15.4616 10.544 15.4909 10.544C15.5202 10.544 15.5442 10.5346 15.5442 10.5232C15.5442 10.5117 15.5634 10.5024 15.5869 10.5024C15.6103 10.5024 15.6295 10.493 15.6295 10.4816C15.6295 10.4702 15.6463 10.4607 15.6668 10.4606C15.6873 10.4604 15.7459 10.437 15.7969 10.4086C15.848 10.3802 15.9031 10.3569 15.9195 10.3569C15.9359 10.3569 15.9493 10.3475 15.9493 10.3361C15.9493 10.3247 15.9685 10.3153 15.992 10.3153C16.0154 10.3153 16.0346 10.306 16.0346 10.2945C16.0346 10.2831 16.0634 10.2737 16.0986 10.2737C16.1338 10.2737 16.1625 10.2644 16.1625 10.2529C16.1625 10.2415 16.1813 10.2322 16.2042 10.2322C16.2271 10.2322 16.2727 10.2216 16.3054 10.2088C16.3382 10.1959 16.3843 10.1785 16.4077 10.1701C16.4312 10.1617 16.4867 10.1395 16.531 10.1207C16.5754 10.102 16.6306 10.0867 16.6536 10.0867C16.6767 10.0867 16.6956 10.0773 16.6956 10.0659C16.6956 10.0544 16.7387 10.0451 16.7915 10.0451C16.8443 10.0451 16.8875 10.0357 16.8875 10.0243C16.8875 10.0129 16.9258 10.0035 16.9727 10.0035C17.0196 10.0035 17.058 9.99416 17.058 9.98272C17.058 9.97129 17.0917 9.96194 17.1329 9.96194C17.1741 9.96194 17.2245 9.95358 17.2449 9.94335C17.2652 9.93313 17.3538 9.91305 17.4418 9.89877C17.5297 9.88447 17.6641 9.86391 17.7403 9.8531C17.8165 9.84229 18.006 9.82911 18.1614 9.82381C18.3178 9.81849 18.4439 9.8054 18.4439 9.79453C18.4439 9.78307 18.5729 9.77486 18.753 9.77486C18.9317 9.77486 19.0622 9.78311 19.0622 9.79438C19.0622 9.80513 19.1702 9.81839 19.3021 9.82383C19.434 9.8293 19.6043 9.84229 19.6805 9.85273C19.7567 9.86316 19.8815 9.88337 19.9577 9.89765C20.0339 9.91193 20.1257 9.93223 20.1618 9.94277C20.1978 9.95331 20.2577 9.96194 20.295 9.96194C20.3323 9.96194 20.3628 9.97129 20.3628 9.98272C20.3628 9.99416 20.4012 10.0035 20.4481 10.0035C20.495 10.0035 20.5334 10.0129 20.5334 10.0243C20.5334 10.0357 20.5664 10.0451 20.6067 10.0451C20.6471 10.0451 20.686 10.0544 20.6933 10.0659C20.7005 10.0773 20.7299 10.0867 20.7586 10.0867C20.7873 10.0867 20.8605 10.11 20.9212 10.1386C20.982 10.1672 21.0491 10.1906 21.0704 10.1906C21.0916 10.1906 21.109 10.1999 21.109 10.2114C21.109 10.2228 21.1378 10.2322 21.173 10.2322C21.2082 10.2322 21.237 10.2415 21.237 10.2529C21.237 10.2644 21.2609 10.2737 21.2903 10.2737C21.3196 10.2737 21.3436 10.2831 21.3436 10.2945C21.3436 10.306 21.3612 10.3153 21.3827 10.3153C21.4042 10.3153 21.4908 10.348 21.5751 10.3881C21.6595 10.4281 21.7378 10.4608 21.7492 10.4608C21.7606 10.4608 21.77 10.4702 21.77 10.4816C21.77 10.493 21.7892 10.5024 21.8126 10.5024C21.8361 10.5024 21.8553 10.5117 21.8553 10.5232C21.8553 10.5346 21.8745 10.544 21.8979 10.544C21.9214 10.544 21.9406 10.551 21.9406 10.5595C21.9407 10.5681 21.9839 10.5924 22.0366 10.6136C22.0893 10.6347 22.1324 10.6604 22.1324 10.6707C22.1324 10.681 22.1516 10.6895 22.1751 10.6895C22.1985 10.6895 22.2177 10.6988 22.2177 10.7102C22.2177 10.7217 22.2321 10.731 22.2497 10.731C22.2673 10.731 22.2817 10.7404 22.2817 10.7518C22.2817 10.7633 22.3009 10.7726 22.3243 10.7726C22.3478 10.7726 22.367 10.7809 22.367 10.791C22.367 10.8011 22.3982 10.8248 22.4363 10.8436C22.4744 10.8623 22.5246 10.8891 22.5479 10.9031C22.5712 10.9171 22.6059 10.9449 22.625 10.9649C22.6441 10.9849 22.6747 11.0013 22.6928 11.0013C22.711 11.0013 22.7291 11.0087 22.733 11.0178C22.7369 11.0269 22.7866 11.0555 22.8435 11.0813C22.9004 11.1071 23.0011 11.138 23.0674 11.1501C23.1336 11.1621 23.2454 11.1663 23.3158 11.1594C23.3861 11.1524 23.4917 11.1304 23.5503 11.1104C23.6089 11.0904 23.6601 11.067 23.664 11.0584C23.6679 11.0498 23.6847 11.0428 23.7013 11.0428C23.7179 11.0428 23.7315 11.0335 23.7315 11.022C23.7315 11.0106 23.7459 11.0013 23.7635 11.0013C23.7811 11.0013 23.7955 10.9919 23.7955 10.9805C23.7955 10.969 23.8058 10.9597 23.8183 10.9597C23.8309 10.9597 23.8549 10.9463 23.8716 10.93C23.8884 10.9137 23.9021 10.8937 23.9021 10.8857C23.9021 10.8776 23.9194 10.8559 23.9406 10.8374C23.9618 10.8189 24.005 10.7582 24.0366 10.7024C24.0681 10.6467 24.094 10.5882 24.094 10.5725C24.094 10.5568 24.1036 10.544 24.1153 10.544C24.127 10.544 24.1366 10.4925 24.1366 10.4296C24.1366 10.3668 24.1462 10.3153 24.1579 10.3153C24.1697 10.3153 24.1793 10.2966 24.1793 10.2737C24.1793 10.2509 24.1697 10.2322 24.1579 10.2322C24.1462 10.2322 24.1366 10.1807 24.1366 10.1178C24.1366 10.055 24.127 10.0035 24.1153 10.0035C24.1036 10.0035 24.094 9.98435 24.094 9.9609C24.094 9.93747 24.0782 9.88838 24.0588 9.85177C24.0395 9.81519 24.0059 9.77012 23.9842 9.75164C23.9625 9.73314 23.9447 9.71179 23.9447 9.70417C23.9447 9.69656 23.9115 9.6579 23.8708 9.61828C23.8302 9.57864 23.7891 9.54621 23.7796 9.54621C23.77 9.54621 23.7484 9.5275 23.7315 9.50464C23.7146 9.48177 23.6881 9.46307 23.6726 9.46307C23.6571 9.46307 23.6185 9.43968 23.5869 9.4111C23.5553 9.38252 23.5194 9.35913 23.5072 9.35913C23.495 9.35913 23.4713 9.34043 23.4543 9.31756C23.4374 9.2947 23.4065 9.27599 23.3857 9.27599C23.3648 9.27599 23.3477 9.26663 23.3477 9.2552C23.3477 9.24377 23.3286 9.23442 23.3051 9.23442C23.2816 9.23442 23.2625 9.22506 23.2625 9.21363C23.2625 9.2022 23.2489 9.19284 23.2322 9.19284C23.2156 9.19284 23.1989 9.18536 23.1949 9.17619C23.191 9.16705 23.1411 9.13431 23.0839 9.10344C23.0267 9.07259 22.9667 9.04734 22.9506 9.04734C22.9345 9.04734 22.9213 9.03798 22.9213 9.02655C22.9213 9.01512 22.9069 9.00576 22.8893 9.00576C22.8717 9.00576 22.8574 8.99641 22.8574 8.98498C22.8574 8.97355 22.8382 8.96419 22.8147 8.96419C22.7913 8.96419 22.7721 8.95484 22.7721 8.94341C22.7721 8.93197 22.7529 8.92262 22.7294 8.92262C22.706 8.92262 22.6868 8.91468 22.6868 8.90497C22.6868 8.89527 22.6436 8.86995 22.5908 8.84875C22.5381 8.82752 22.4949 8.80272 22.4949 8.79364C22.4949 8.78456 22.4661 8.77712 22.4309 8.77712C22.3958 8.77712 22.367 8.76776 22.367 8.75633C22.367 8.7449 22.3478 8.73554 22.3243 8.73554C22.3009 8.73554 22.2817 8.72619 22.2817 8.71476C22.2817 8.70332 22.2618 8.69397 22.2375 8.69397C22.2132 8.69397 22.179 8.67994 22.1614 8.66279C22.1438 8.64564 22.1115 8.63161 22.0895 8.63161C22.0676 8.63161 22.0437 8.62226 22.0365 8.61082C22.0292 8.59939 22.0047 8.59004 21.9819 8.59004C21.9588 8.59004 21.9405 8.57586 21.9405 8.5579C21.9405 8.54021 22.0149 8.45289 22.1058 8.36382C22.1967 8.27475 22.2926 8.17691 22.319 8.14637C22.3454 8.11584 22.367 8.08616 22.367 8.08042C22.367 8.07468 22.3965 8.03984 22.4327 8.00297C22.4688 7.96611 22.514 7.91008 22.5332 7.87846C22.5524 7.84682 22.5756 7.82094 22.5848 7.82094C22.594 7.82094 22.6015 7.80429 22.6015 7.78396C22.6015 7.76361 22.6207 7.7335 22.6441 7.71701C22.6676 7.70053 22.6868 7.67955 22.6868 7.67041C22.6868 7.66124 22.7131 7.6142 22.7452 7.56587C22.7774 7.51752 22.8093 7.47329 22.8162 7.46758C22.8231 7.46186 22.8424 7.42679 22.8589 7.38963C22.8755 7.35248 22.8963 7.32207 22.9052 7.32207C22.9141 7.32207 22.9213 7.30336 22.9213 7.2805C22.9213 7.25763 22.9309 7.23893 22.9426 7.23893C22.9544 7.23893 22.964 7.22585 22.964 7.20987C22.964 7.19388 22.9878 7.14011 23.017 7.09034C23.0462 7.04058 23.0702 6.9835 23.0703 6.96351C23.0705 6.94351 23.0802 6.92713 23.0919 6.92713C23.1036 6.92713 23.1132 6.90375 23.1132 6.87516C23.1132 6.84658 23.1228 6.8232 23.1345 6.8232C23.1463 6.8232 23.1559 6.79514 23.1559 6.76084C23.1559 6.72654 23.1654 6.69848 23.1772 6.69848C23.1889 6.69848 23.1985 6.6751 23.1985 6.64651C23.1985 6.61793 23.207 6.59455 23.2175 6.59455C23.2279 6.59455 23.2416 6.56414 23.248 6.52699C23.2543 6.48983 23.271 6.41032 23.2851 6.35031C23.2992 6.2903 23.3191 6.24118 23.3293 6.24118C23.3394 6.24118 23.3477 6.19909 23.3477 6.14764C23.3477 6.0962 23.3573 6.0541 23.3691 6.0541C23.3811 6.0541 23.3904 5.99522 23.3904 5.91899C23.3904 5.84468 23.3992 5.78388 23.41 5.78388C23.4208 5.78388 23.4354 5.65993 23.4423 5.50846C23.4493 5.35697 23.4547 5.19095 23.4544 5.1395C23.4541 5.08806 23.4486 4.92669 23.4422 4.78094C23.4358 4.63516 23.4223 4.51591 23.4122 4.51591C23.4021 4.51591 23.3893 4.45276 23.3836 4.37561C23.378 4.29843 23.3636 4.1932 23.3518 4.14176C23.3399 4.09031 23.3082 3.97339 23.2812 3.88193C23.2543 3.79047 23.2247 3.71252 23.2154 3.70872C23.2061 3.70489 23.1985 3.6745 23.1985 3.64116C23.1985 3.60782 23.1889 3.58053 23.1772 3.58053C23.1654 3.58053 23.1559 3.55714 23.1559 3.52856C23.1559 3.49998 23.1463 3.4766 23.1345 3.4766C23.1228 3.4766 23.1132 3.4557 23.1132 3.43016C23.1132 3.40461 23.0868 3.33213 23.0546 3.26906C23.0223 3.206 22.9887 3.15129 22.98 3.14748C22.9712 3.14366 22.964 3.12262 22.964 3.10072C22.964 3.07879 22.9544 3.06087 22.9426 3.06087C22.9309 3.06087 22.9213 3.04216 22.9213 3.0193C22.9213 2.99643 22.9117 2.97772 22.9 2.97772C22.8883 2.97772 22.8787 2.95901 22.8787 2.93615C22.8787 2.91329 22.8691 2.89458 22.8574 2.89458C22.8456 2.89458 22.836 2.88121 22.836 2.86487C22.836 2.84856 22.8235 2.82282 22.8082 2.80771C22.7929 2.79262 22.7569 2.73816 22.7282 2.68671C22.6996 2.63527 22.6689 2.59006 22.6601 2.58625C22.6514 2.58243 22.6441 2.56607 22.6441 2.54988C22.6441 2.53368 22.6366 2.52042 22.6274 2.52042C22.6182 2.52042 22.595 2.49454 22.5759 2.46291C22.5567 2.43129 22.5114 2.37525 22.4753 2.3384C22.4392 2.30152 22.4096 2.26115 22.4096 2.24868C22.4096 2.23621 22.3472 2.16641 22.271 2.09353C22.1948 2.02068 22.1324 1.95566 22.1324 1.94905C22.1324 1.94244 22.0992 1.90459 22.0585 1.86497C22.0179 1.82533 21.9791 1.7929 21.9723 1.7929C21.9656 1.7929 21.9077 1.74145 21.8437 1.67858C21.7797 1.6157 21.7177 1.56425 21.706 1.56425C21.6943 1.56425 21.6847 1.5549 21.6847 1.54346C21.6847 1.53203 21.6747 1.52268 21.6624 1.52268C21.6502 1.52268 21.6161 1.49929 21.5868 1.47071C21.5575 1.44213 21.5258 1.41875 21.5163 1.41875C21.5069 1.41875 21.469 1.39068 21.4322 1.35639C21.3954 1.32209 21.3508 1.29403 21.3331 1.29403C21.3154 1.29403 21.3009 1.28467 21.3009 1.27324C21.3009 1.26181 21.2865 1.25246 21.2689 1.25246C21.2513 1.25246 21.237 1.2431 21.237 1.23167C21.237 1.22024 21.2222 1.21088 21.2041 1.21088C21.186 1.21088 21.1569 1.1992 21.1394 1.1849C21.1219 1.17062 21.0959 1.14898 21.0816 1.13686C21.0674 1.12472 21.0246 1.10138 20.9864 1.085C20.9483 1.06862 20.9171 1.04817 20.9171 1.03952C20.9171 1.03087 20.8932 1.02381 20.8638 1.02381C20.8345 1.02381 20.8105 1.01445 20.8105 1.00302C20.8105 0.991587 20.7967 0.982233 20.7799 0.982233C20.763 0.982233 20.6838 0.949536 20.604 0.909584C20.5241 0.869633 20.4371 0.836894 20.4108 0.836832C20.3844 0.83677 20.3628 0.827374 20.3628 0.815942C20.3628 0.804509 20.3388 0.795155 20.3095 0.795155C20.2802 0.795155 20.2562 0.785802 20.2562 0.774369C20.2562 0.762937 20.2274 0.753583 20.1922 0.753583C20.157 0.753583 20.1283 0.744229 20.1283 0.732796C20.1283 0.721364 20.0945 0.71201 20.0533 0.71201C20.0121 0.71201 19.9618 0.703072 19.9414 0.692138C19.921 0.681205 19.8501 0.65782 19.7838 0.640172C19.7175 0.622525 19.6294 0.608078 19.5879 0.608078C19.5464 0.608078 19.5065 0.598724 19.4993 0.587292C19.492 0.575859 19.4195 0.566506 19.3381 0.566506C19.2537 0.566506 19.1901 0.557588 19.1901 0.545719C19.1901 0.532499 19.0231 0.524933 18.7317 0.524933C18.4403 0.524933 18.2733 0.532499 18.2733 0.545719ZM19.1957 2.3722C19.2633 2.38548 19.3736 2.41129 19.4409 2.42954C19.5082 2.4478 19.5896 2.46742 19.6219 2.47315C19.6541 2.47887 19.6805 2.49186 19.6805 2.50199C19.6805 2.51213 19.7093 2.52042 19.7445 2.52042C19.7797 2.52042 19.8084 2.52978 19.8084 2.54121C19.8084 2.55264 19.8218 2.562 19.8381 2.562C19.8543 2.562 19.9383 2.59997 20.0246 2.64639C20.1109 2.6928 20.1984 2.736 20.2189 2.74236C20.2394 2.74872 20.2562 2.76219 20.2562 2.77229C20.2562 2.78237 20.2706 2.79065 20.2882 2.79065C20.3058 2.79065 20.3201 2.8 20.3201 2.81143C20.3201 2.82286 20.3321 2.83236 20.3468 2.83255C20.3615 2.83274 20.4059 2.8608 20.4456 2.89491C20.4853 2.92902 20.5256 2.95694 20.5351 2.95694C20.5446 2.95694 20.6321 3.0343 20.7294 3.12884C20.8268 3.2234 20.9348 3.33797 20.9694 3.38347C21.0039 3.42897 21.0495 3.48133 21.0706 3.49981C21.0917 3.51831 21.109 3.5487 21.109 3.56737C21.109 3.58604 21.1163 3.60131 21.1251 3.60131C21.134 3.60131 21.1548 3.63172 21.1714 3.66887C21.188 3.70601 21.2073 3.7411 21.2144 3.74682C21.2215 3.75253 21.2438 3.78261 21.2641 3.81365C21.2843 3.84468 21.3009 3.88442 21.3009 3.90199C21.3009 3.91953 21.3105 3.93389 21.3222 3.93389C21.334 3.93389 21.3436 3.9526 21.3436 3.97547C21.3436 3.99833 21.3532 4.01704 21.3649 4.01704C21.3766 4.01704 21.3862 4.0451 21.3862 4.0794C21.3862 4.1137 21.3958 4.14176 21.4075 4.14176C21.4192 4.14176 21.4288 4.16514 21.4288 4.19372C21.4288 4.22231 21.4365 4.24569 21.4459 4.24569C21.4553 4.24569 21.4802 4.31819 21.5012 4.40678C21.5222 4.49538 21.5481 4.58411 21.5588 4.60396C21.5694 4.62381 21.5781 4.72438 21.5781 4.82742C21.5781 4.93848 21.5868 5.01479 21.5994 5.01479C21.6114 5.01479 21.6207 5.07367 21.6207 5.1499C21.6207 5.22612 21.6114 5.28501 21.5994 5.28501C21.5868 5.28501 21.5781 5.36082 21.5781 5.47086C21.5781 5.57309 21.5685 5.66249 21.5568 5.66956C21.545 5.67662 21.5354 5.70687 21.5354 5.73678C21.5354 5.76669 21.5112 5.862 21.4816 5.94861C21.452 6.03521 21.4184 6.1223 21.407 6.14215C21.3955 6.162 21.3862 6.19242 21.3862 6.20971C21.3862 6.22702 21.3766 6.24118 21.3649 6.24118C21.3532 6.24118 21.3436 6.25899 21.3436 6.28078C21.3436 6.30258 21.322 6.36103 21.2956 6.41069C21.2692 6.46037 21.2365 6.51248 21.223 6.52654C21.2094 6.54057 21.1855 6.58033 21.1698 6.61488C21.1541 6.64942 21.134 6.67769 21.1251 6.67769C21.1163 6.67769 21.109 6.69093 21.109 6.70715C21.109 6.72334 21.1018 6.7397 21.093 6.74352C21.0842 6.74733 21.0489 6.78718 21.0144 6.83207C20.98 6.87697 20.9176 6.95058 20.8759 6.99562C20.8341 7.04069 20.7693 7.10685 20.732 7.14264C20.6947 7.17846 20.625 7.24283 20.5771 7.28569C20.5292 7.32856 20.485 7.36364 20.4788 7.36364C20.4726 7.36364 20.4531 7.37535 20.4355 7.38963C20.4178 7.40393 20.3803 7.43665 20.3521 7.46238C20.3239 7.48811 20.2859 7.50915 20.2678 7.50915C20.2497 7.50915 20.2349 7.51622 20.2349 7.52486C20.2349 7.53351 20.2037 7.5538 20.1656 7.56997C20.1274 7.58612 20.0915 7.60479 20.0856 7.61142C20.0798 7.61805 20.0366 7.64087 19.9897 7.66216C19.9428 7.68342 19.8877 7.70915 19.8674 7.71932C19.847 7.72948 19.8158 7.7378 19.7981 7.7378C19.7803 7.7378 19.7658 7.74715 19.7658 7.75858C19.7658 7.77002 19.737 7.77937 19.7018 7.77937C19.6667 7.77937 19.6379 7.78872 19.6379 7.80016C19.6379 7.81159 19.6049 7.82094 19.5645 7.82094C19.5241 7.82094 19.4852 7.8303 19.478 7.84173C19.4707 7.85316 19.4407 7.86252 19.4113 7.86252C19.382 7.86252 19.3392 7.87224 19.3165 7.88413C19.2937 7.89602 19.1672 7.91504 19.0354 7.92639C18.9036 7.93774 18.7669 7.94757 18.7317 7.94822C18.6965 7.94886 18.5622 7.93911 18.4332 7.92656C18.3042 7.91402 18.1459 7.88856 18.0814 7.87002C18.0169 7.85146 17.9282 7.83184 17.8842 7.82643C17.8402 7.82101 17.8043 7.8082 17.8043 7.79797C17.8043 7.78775 17.7803 7.77937 17.751 7.77937C17.7216 7.77937 17.6977 7.77002 17.6977 7.75858C17.6977 7.74715 17.6742 7.7378 17.6456 7.7378C17.617 7.7378 17.5876 7.72844 17.5804 7.71701C17.5731 7.70558 17.5486 7.69623 17.5258 7.69623C17.5031 7.69623 17.4844 7.68828 17.4844 7.67858C17.4844 7.66887 17.4413 7.64355 17.3885 7.62235C17.3357 7.60113 17.2926 7.57633 17.2926 7.56725C17.2926 7.55816 17.2734 7.55072 17.2499 7.55072C17.2265 7.55072 17.2073 7.54137 17.2073 7.52993C17.2073 7.5185 17.1973 7.50915 17.1851 7.50915C17.1728 7.50915 17.1422 7.49044 17.1171 7.46758C17.0919 7.44471 17.0587 7.426 17.0433 7.426C17.028 7.426 17.0154 7.41312 17.0154 7.39734C17.0154 7.38158 16.9866 7.35705 16.9514 7.34286C16.9162 7.32866 16.8875 7.30881 16.8875 7.29877C16.8875 7.28871 16.8774 7.2805 16.8652 7.2805C16.8529 7.2805 16.8193 7.25753 16.7905 7.22947C16.7618 7.20141 16.7382 7.17378 16.7382 7.16806C16.7382 7.16235 16.7138 7.13385 16.6839 7.10475C16.6541 7.07565 16.6246 7.05185 16.6184 7.05185C16.6123 7.05185 16.5935 7.03848 16.5768 7.02214C16.56 7.00583 16.5463 6.98244 16.5463 6.97018C16.5463 6.95794 16.5367 6.94792 16.525 6.94792C16.5133 6.94792 16.5037 6.93389 16.5037 6.91674C16.5037 6.89959 16.4941 6.88556 16.4824 6.88556C16.4706 6.88556 16.461 6.87579 16.461 6.86384C16.461 6.85188 16.4394 6.81958 16.4131 6.79208C16.3867 6.76456 16.3531 6.72798 16.3384 6.71074C16.3238 6.69353 16.3118 6.66969 16.3118 6.65778C16.3118 6.64587 16.3022 6.63612 16.2905 6.63612C16.2787 6.63612 16.2691 6.61741 16.2691 6.59455C16.2691 6.57168 16.2595 6.55298 16.2478 6.55298C16.2361 6.55298 16.2265 6.53427 16.2265 6.5114C16.2265 6.48854 16.2179 6.46983 16.2075 6.46983C16.197 6.46983 16.173 6.43476 16.1541 6.39188C16.1352 6.34902 16.1116 6.2999 16.1018 6.28275C16.0919 6.2656 16.0728 6.23066 16.0592 6.2051C16.0457 6.17953 16.0346 6.13976 16.0346 6.11675C16.0346 6.09372 16.025 6.07489 16.0133 6.07489C16.0016 6.07489 15.992 6.04215 15.992 6.00214C15.992 5.96212 15.9824 5.92939 15.9706 5.92939C15.9589 5.92939 15.9493 5.89665 15.9493 5.85663C15.9493 5.81662 15.9406 5.78388 15.9301 5.78388C15.9195 5.78388 15.9061 5.73946 15.9003 5.68515C15.8945 5.63083 15.8794 5.48817 15.8667 5.36813C15.8509 5.21857 15.8502 5.0844 15.8646 4.94201C15.8761 4.82769 15.8916 4.68505 15.8989 4.62504C15.9061 4.56503 15.9205 4.51591 15.9307 4.51591C15.9409 4.51591 15.9493 4.47382 15.9493 4.42237C15.9493 4.37093 15.9589 4.32884 15.9706 4.32884C15.9824 4.32884 15.992 4.30077 15.992 4.26648C15.992 4.23218 16.0016 4.20412 16.0133 4.20412C16.025 4.20412 16.0346 4.1861 16.0346 4.16406C16.0346 4.14203 16.0682 4.06119 16.1092 3.98443C16.1503 3.90764 16.1839 3.83215 16.1839 3.81662C16.1839 3.80109 16.1934 3.78839 16.2052 3.78839C16.2169 3.78839 16.2265 3.76968 16.2265 3.74682C16.2265 3.72395 16.2361 3.70525 16.2478 3.70525C16.2595 3.70525 16.2691 3.69121 16.2691 3.67407C16.2691 3.65692 16.2787 3.64289 16.2905 3.64289C16.3022 3.64289 16.3118 3.62931 16.3118 3.61275C16.3118 3.59616 16.3239 3.57512 16.3386 3.56598C16.3534 3.55683 16.3894 3.51434 16.4186 3.47154C16.4478 3.42875 16.4789 3.39368 16.4877 3.3936C16.4965 3.39351 16.5037 3.38347 16.5037 3.37127C16.5037 3.35907 16.5896 3.26553 16.6947 3.16341C16.7997 3.06128 16.8913 2.97772 16.8981 2.97772C16.905 2.97772 16.925 2.96604 16.9427 2.95174C16.9603 2.93746 16.9979 2.9047 17.0261 2.87899C17.0543 2.85327 17.0874 2.83222 17.0997 2.83222C17.112 2.83222 17.122 2.82286 17.122 2.81143C17.122 2.8 17.1412 2.79065 17.1646 2.79065C17.1881 2.79065 17.2073 2.78243 17.2073 2.77237C17.2073 2.76233 17.2361 2.74248 17.2712 2.72829C17.3064 2.71409 17.3352 2.69657 17.3353 2.6894C17.3353 2.6822 17.3785 2.65903 17.4312 2.63789C17.484 2.61675 17.5271 2.59101 17.5271 2.58072C17.5271 2.57041 17.5559 2.562 17.591 2.562C17.6262 2.562 17.655 2.55264 17.655 2.54121C17.655 2.52978 17.679 2.52042 17.7083 2.52042C17.7376 2.52042 17.7616 2.51107 17.7616 2.49964C17.7616 2.4882 17.7898 2.47885 17.8243 2.47885C17.8588 2.47885 17.8923 2.47054 17.8988 2.46035C17.9052 2.45019 17.9417 2.43659 17.98 2.43017C18.0182 2.42372 18.124 2.40531 18.2152 2.38926C18.3064 2.37319 18.3876 2.35363 18.3956 2.34576C18.4037 2.33788 18.5594 2.33517 18.7416 2.33973C18.9238 2.3443 19.1281 2.35889 19.1957 2.3722ZM9.68092 8.58603C9.73369 8.59879 9.82725 8.62078 9.8888 8.63492C9.95036 8.64905 10.0007 8.66811 10.0007 8.67728C10.0007 8.68647 10.0295 8.69397 10.0647 8.69397C10.0999 8.69397 10.1287 8.70332 10.1287 8.71476C10.1287 8.72619 10.1527 8.73554 10.182 8.73554C10.2113 8.73554 10.2353 8.7449 10.2353 8.75633C10.2353 8.76776 10.2545 8.77712 10.2779 8.77712C10.3014 8.77712 10.3206 8.78647 10.3206 8.7979C10.3206 8.80933 10.3359 8.81869 10.3547 8.81869C10.3735 8.81869 10.4359 8.84442 10.4933 8.87585C10.5507 8.90728 10.5977 8.94002 10.5977 8.9486C10.5977 8.95719 10.6169 8.96419 10.6404 8.96419C10.6638 8.96419 10.683 8.97355 10.683 8.98498C10.683 8.99641 10.6974 9.00576 10.715 9.00576C10.7326 9.00576 10.747 9.01277 10.7471 9.02136C10.7472 9.02994 10.783 9.06033 10.8266 9.08891C10.8703 9.11749 10.9365 9.17127 10.9739 9.20843C11.0113 9.2456 11.053 9.27599 11.0665 9.27599C11.0801 9.27599 11.1049 9.28935 11.1216 9.30569C11.1384 9.32201 11.1521 9.34105 11.1521 9.34799C11.1521 9.35493 11.1737 9.38383 11.2001 9.4122C11.2264 9.44057 11.2792 9.49603 11.3173 9.53549C11.3554 9.57492 11.3866 9.61283 11.3866 9.61975C11.3866 9.62667 11.3986 9.64445 11.4133 9.65925C11.4279 9.67407 11.4615 9.71088 11.4879 9.74108C11.5143 9.77126 11.5359 9.80993 11.5359 9.82699C11.5359 9.84404 11.5455 9.85801 11.5572 9.85801C11.5689 9.85801 11.5785 9.87204 11.5785 9.88919C11.5785 9.90633 11.5881 9.92037 11.5998 9.92037C11.6115 9.92037 11.6211 9.93907 11.6211 9.96194C11.6211 9.9848 11.6307 10.0035 11.6425 10.0035C11.6542 10.0035 11.6638 10.0214 11.6638 10.0434C11.6638 10.0653 11.671 10.0863 11.6798 10.0901C11.6886 10.0939 11.7221 10.151 11.7544 10.217C11.7867 10.283 11.813 10.3555 11.813 10.3781C11.813 10.4007 11.8226 10.4192 11.8344 10.4192C11.8461 10.4192 11.8557 10.4473 11.8557 10.4816C11.8557 10.5159 11.8653 10.544 11.877 10.544C11.8887 10.544 11.8983 10.586 11.8983 10.6375C11.8983 10.6889 11.9068 10.731 11.9171 10.731C11.9274 10.731 11.9431 10.7895 11.952 10.8609C11.961 10.9324 11.9678 11.1499 11.9671 11.3442C11.9665 11.5386 11.9595 11.7561 11.9516 11.8275C11.9437 11.899 11.9284 11.9574 11.9177 11.9574C11.9071 11.9574 11.8983 11.9948 11.8983 12.0406C11.8983 12.0863 11.8887 12.1237 11.877 12.1237C11.8653 12.1237 11.8557 12.1565 11.8557 12.1965C11.8557 12.2365 11.8482 12.2692 11.839 12.2692C11.8298 12.2692 11.8094 12.3118 11.7937 12.3639C11.7779 12.416 11.7518 12.4715 11.7357 12.4871C11.7196 12.5028 11.7064 12.5304 11.7064 12.5484C11.7064 12.5663 11.6968 12.581 11.6851 12.581C11.6734 12.581 11.6638 12.6044 11.6638 12.633C11.6638 12.6616 11.6542 12.6849 11.6425 12.6849C11.6307 12.6849 11.6211 12.7037 11.6211 12.7265C11.6211 12.7494 11.6131 12.7681 11.6032 12.7681C11.5933 12.7681 11.5671 12.8008 11.545 12.8408C11.5229 12.8809 11.4981 12.9136 11.4898 12.9136C11.4815 12.9136 11.4686 12.9326 11.461 12.9558C11.4535 12.9791 11.424 13.0207 11.3956 13.0484C11.3672 13.0761 11.344 13.1042 11.344 13.1108C11.344 13.1174 11.3115 13.1564 11.2719 13.1974C11.2322 13.2384 11.1806 13.2906 11.1572 13.3135C11.1337 13.3364 11.0801 13.3867 11.0381 13.4253C10.996 13.464 10.9562 13.4956 10.9495 13.4956C10.9428 13.4956 10.9161 13.5144 10.8901 13.5374C10.8642 13.5603 10.8141 13.6003 10.779 13.6262C10.7438 13.6521 10.6886 13.6864 10.6564 13.7023C10.6241 13.7183 10.5977 13.7391 10.5977 13.7486C10.5977 13.7581 10.5793 13.7658 10.5569 13.7658C10.5344 13.7658 10.5128 13.7728 10.5089 13.7814C10.505 13.79 10.4489 13.8227 10.3842 13.8542C10.3196 13.8856 10.2548 13.9113 10.2403 13.9113C10.2258 13.9113 10.214 13.9207 10.214 13.9321C10.214 13.9436 10.1852 13.9529 10.15 13.9529C10.1148 13.9529 10.086 13.9623 10.086 13.9737C10.086 13.9851 10.062 13.9945 10.0327 13.9945C10.0034 13.9945 9.97942 14.0038 9.97942 14.0153C9.97942 14.0267 9.94104 14.0361 9.89413 14.0361C9.84723 14.0361 9.80885 14.0445 9.80885 14.0548C9.80885 14.0652 9.76329 14.0787 9.70757 14.0849C9.65186 14.0911 9.54873 14.1052 9.47837 14.1163C9.40801 14.1274 9.24011 14.1367 9.10525 14.137C8.9704 14.1373 8.81209 14.1285 8.75346 14.1174C8.69482 14.1064 8.60107 14.0917 8.54513 14.0848C8.48918 14.0779 8.43825 14.0641 8.43193 14.0542C8.42562 14.0442 8.38746 14.0361 8.3471 14.0361C8.30674 14.0361 8.27373 14.0267 8.27373 14.0153C8.27373 14.0038 8.24015 13.9945 8.19911 13.9945C8.15806 13.9945 8.12448 13.9872 8.12448 13.9782C8.12448 13.9693 8.08169 13.9497 8.02941 13.9346C7.97711 13.9196 7.92317 13.8942 7.90952 13.8781C7.8959 13.8621 7.86671 13.849 7.84471 13.849C7.82268 13.849 7.80467 13.8396 7.80467 13.8282C7.80467 13.8168 7.78548 13.8074 7.76203 13.8074C7.73857 13.8074 7.71938 13.7981 7.71938 13.7866C7.71938 13.7752 7.70019 13.7658 7.67674 13.7658C7.65329 13.7658 7.6341 13.7565 7.6341 13.7451C7.6341 13.7336 7.6241 13.7243 7.61188 13.7243C7.59967 13.7243 7.57807 13.7148 7.56391 13.7032C7.54975 13.6916 7.49314 13.6495 7.43816 13.6096C7.38315 13.5698 7.33185 13.5372 7.32411 13.5372C7.31639 13.5372 7.20548 13.4329 7.07764 13.3055C6.94982 13.1781 6.84522 13.0663 6.84522 13.057C6.84522 13.0478 6.82364 13.0187 6.79725 12.9925C6.77085 12.9663 6.73488 12.9167 6.71729 12.8824C6.6997 12.8481 6.67572 12.808 6.66399 12.7934C6.65226 12.7787 6.63069 12.7536 6.61602 12.7377C6.60137 12.7217 6.58937 12.694 6.58937 12.676C6.58937 12.6581 6.57977 12.6434 6.56804 12.6434C6.55632 12.6434 6.54672 12.62 6.54672 12.5914C6.54672 12.5628 6.53713 12.5394 6.5254 12.5394C6.51368 12.5394 6.50408 12.5207 6.50408 12.4979C6.50408 12.475 6.49449 12.4563 6.48276 12.4563C6.47103 12.4563 6.46144 12.4421 6.46144 12.4248C6.46144 12.4075 6.45283 12.3771 6.44231 12.3573C6.43178 12.3374 6.40905 12.2838 6.3918 12.238C6.37456 12.1923 6.34957 12.1215 6.33631 12.0807C6.32304 12.0398 6.31219 11.9819 6.31219 11.952C6.31219 11.922 6.3026 11.8917 6.29087 11.8847C6.27914 11.8776 6.26955 11.7976 6.26955 11.7068C6.26955 11.6106 6.26066 11.5417 6.24823 11.5417C6.23552 11.5417 6.22691 11.462 6.22691 11.3442C6.22691 11.2356 6.2358 11.1468 6.24667 11.1468C6.25752 11.1468 6.27091 11.0696 6.27644 10.9753C6.28194 10.8809 6.2929 10.771 6.30076 10.731C6.30865 10.691 6.3226 10.6396 6.33179 10.6167C6.34095 10.5938 6.36059 10.5424 6.37541 10.5024C6.39023 10.4624 6.40713 10.4039 6.413 10.3725C6.41884 10.341 6.43214 10.3153 6.44253 10.3153C6.45293 10.3153 6.46144 10.2919 6.46144 10.2633C6.46144 10.2348 6.47103 10.2114 6.48276 10.2114C6.49449 10.2114 6.50408 10.1927 6.50408 10.1698C6.50408 10.1469 6.51248 10.1282 6.52274 10.1282C6.53299 10.1282 6.5467 10.1024 6.55318 10.0708C6.55967 10.0392 6.58485 9.99098 6.60915 9.96366C6.63344 9.93635 6.65333 9.90141 6.65333 9.886C6.65333 9.8706 6.66292 9.85801 6.67465 9.85801C6.68638 9.85801 6.69597 9.84389 6.69597 9.82664C6.69597 9.80939 6.72443 9.76623 6.75921 9.73075C6.79401 9.69527 6.83471 9.63923 6.8497 9.60622C6.86468 9.57321 6.88464 9.54621 6.89404 9.54621C6.90343 9.54621 6.93466 9.52324 6.96344 9.49518C6.99223 9.46712 7.01579 9.43875 7.01579 9.43213C7.01579 9.42552 7.04905 9.38767 7.08971 9.34805C7.13035 9.30842 7.16872 9.27599 7.17497 9.27599C7.1812 9.27599 7.22623 9.23822 7.27501 9.19205C7.32379 9.14591 7.39097 9.09244 7.42428 9.07326C7.4576 9.05407 7.48485 9.03104 7.48485 9.02206C7.48485 9.0131 7.50404 9.00576 7.52749 9.00576C7.55095 9.00576 7.57014 8.99789 7.57014 8.98824C7.57014 8.97862 7.60372 8.95311 7.64476 8.93156C7.6858 8.91 7.71938 8.88516 7.71938 8.87633C7.71938 8.86749 7.73857 8.86026 7.76203 8.86026C7.78548 8.86026 7.80467 8.85091 7.80467 8.83947C7.80467 8.82804 7.82386 8.81869 7.84731 8.81869C7.87076 8.81869 7.88995 8.80933 7.88995 8.7979C7.88995 8.78647 7.91394 8.77712 7.94325 8.77712C7.97257 8.77712 7.99656 8.76776 7.99656 8.75633C7.99656 8.7449 8.01997 8.73554 8.0486 8.73554C8.07724 8.73554 8.10657 8.72619 8.11382 8.71476C8.12107 8.70332 8.15041 8.69397 8.17904 8.69397C8.20768 8.69397 8.23109 8.6867 8.23109 8.67778C8.23109 8.66888 8.29586 8.64543 8.37501 8.62565C8.45415 8.60588 8.54474 8.58977 8.5763 8.58987C8.60785 8.58996 8.63981 8.58033 8.64734 8.56848C8.65634 8.55429 8.81844 8.54965 9.12299 8.55489C9.37708 8.55925 9.62815 8.57326 9.68092 8.58603ZM23.0439 15.1649C22.9765 15.1765 22.9213 15.1939 22.9213 15.2035C22.9213 15.213 22.9021 15.2209 22.8787 15.2209C22.8552 15.2209 22.836 15.2302 22.836 15.2417C22.836 15.2531 22.8165 15.2625 22.7926 15.2625C22.7688 15.2625 22.7254 15.2835 22.6963 15.3092C22.6672 15.3349 22.6124 15.3862 22.5745 15.4232C22.5366 15.4602 22.484 15.5136 22.4576 15.542C22.4312 15.5703 22.4096 15.6033 22.4096 15.6151C22.4096 15.6269 22.4 15.6366 22.3883 15.6366C22.3766 15.6366 22.367 15.6484 22.367 15.6628C22.367 15.6772 22.3336 15.7263 22.2928 15.772C22.2519 15.8176 22.2184 15.8645 22.2181 15.8763C22.2179 15.888 22.1985 15.9111 22.1751 15.9276C22.1516 15.9441 22.1324 15.9696 22.1324 15.9844C22.1324 15.9991 22.1037 16.0405 22.0685 16.0764C22.0333 16.1123 22.0045 16.1492 22.0045 16.1584C22.0045 16.1676 21.9805 16.1986 21.9512 16.2271C21.9219 16.2557 21.8979 16.2936 21.8979 16.3112C21.8979 16.3289 21.8883 16.3433 21.8766 16.3433C21.8649 16.3433 21.8553 16.353 21.8553 16.3649C21.8553 16.3767 21.8356 16.4071 21.8117 16.4324C21.7877 16.4578 21.7446 16.5065 21.7158 16.5408C21.687 16.5751 21.6634 16.6149 21.6634 16.6292C21.6634 16.6435 21.6538 16.6551 21.6421 16.6551C21.6303 16.6551 21.6207 16.6671 21.6207 16.6817C21.6207 16.6964 21.6015 16.7218 21.5781 16.7383C21.5546 16.7548 21.5354 16.7788 21.5354 16.7918C21.5354 16.8048 21.5115 16.8406 21.4821 16.8714C21.4528 16.9023 21.4288 16.939 21.4288 16.953C21.4288 16.9671 21.4097 16.992 21.3862 17.0085C21.3627 17.025 21.3436 17.0504 21.3436 17.0651C21.3436 17.0797 21.334 17.0917 21.3222 17.0917C21.3105 17.0917 21.3009 17.1057 21.3009 17.1228C21.3009 17.14 21.2934 17.154 21.2842 17.154C21.275 17.154 21.2493 17.1844 21.2271 17.2216C21.2049 17.2587 21.1692 17.3043 21.1479 17.3227C21.1265 17.3412 21.109 17.367 21.109 17.3799C21.109 17.3929 21.0994 17.4035 21.0877 17.4035C21.076 17.4035 21.0664 17.4179 21.0664 17.4356C21.0664 17.4532 21.0448 17.4902 21.0184 17.5177C20.992 17.5452 20.9585 17.5818 20.9438 17.5991C20.9291 17.6163 20.9171 17.638 20.9171 17.6474C20.9171 17.6568 20.8979 17.678 20.8745 17.6945C20.851 17.7109 20.8319 17.7411 20.8319 17.7614C20.8319 17.7817 20.8243 17.7984 20.8151 17.7984C20.8059 17.7984 20.7827 17.8243 20.7636 17.8559C20.7444 17.8875 20.6992 17.9436 20.663 17.9804C20.6269 18.0173 20.5973 18.0616 20.5973 18.0788C20.5973 18.0961 20.5877 18.1102 20.576 18.1102C20.5643 18.1102 20.5547 18.1199 20.5547 18.1318C20.5547 18.1438 20.5427 18.1676 20.528 18.1848C20.5134 18.202 20.4798 18.2386 20.4534 18.2661C20.427 18.2936 20.4054 18.326 20.4054 18.3379C20.4054 18.3499 20.3958 18.3596 20.3841 18.3596C20.3724 18.3596 20.3628 18.374 20.3628 18.3916C20.3628 18.4091 20.3433 18.4442 20.3194 18.4695C20.2955 18.4948 20.2428 18.5576 20.2023 18.6091C20.1618 18.6605 20.1286 18.7109 20.1285 18.721C20.1283 18.731 20.1114 18.7544 20.0908 18.7729C20.0702 18.7914 20.0406 18.8308 20.025 18.8605C20.0093 18.8902 19.9736 18.9417 19.9456 18.9749C19.9175 19.008 19.8848 19.0465 19.8728 19.0603C19.8609 19.0741 19.8511 19.0951 19.8511 19.1071C19.8511 19.119 19.8431 19.1287 19.8334 19.1287C19.8236 19.1287 19.802 19.1544 19.7854 19.1859C19.7688 19.2173 19.7376 19.2618 19.7162 19.2846C19.6948 19.3075 19.6615 19.3519 19.6423 19.3834C19.6231 19.4148 19.5998 19.4405 19.5906 19.4405C19.5814 19.4405 19.5739 19.4546 19.5739 19.4719C19.5739 19.4891 19.5451 19.5326 19.5099 19.5685C19.4748 19.6044 19.446 19.6413 19.446 19.6505C19.446 19.6597 19.422 19.6907 19.3927 19.7192C19.3634 19.7478 19.3394 19.7836 19.3394 19.7987C19.3394 19.8139 19.3202 19.8398 19.2967 19.8562C19.2733 19.8727 19.2541 19.8942 19.2541 19.9039C19.2541 19.9136 19.2421 19.9339 19.2274 19.949C19.2128 19.964 19.1816 20.0023 19.1581 20.034C19.1347 20.0658 19.1035 20.1036 19.0889 20.118C19.0742 20.1325 19.0622 20.1547 19.0622 20.1675C19.0622 20.1803 19.0382 20.2141 19.0089 20.2427C18.9796 20.2713 18.9556 20.3012 18.9556 20.3093C18.9555 20.3173 18.9267 20.3567 18.8916 20.3967C18.8565 20.4367 18.8278 20.4777 18.8277 20.4878C18.8277 20.4979 18.8101 20.5213 18.7887 20.5398C18.7673 20.5582 18.7362 20.6038 18.7196 20.6409C18.7029 20.6781 18.6784 20.7085 18.6651 20.7085C18.6518 20.7085 18.629 20.7365 18.6145 20.7708C18.5999 20.8051 18.5795 20.8332 18.5692 20.8332C18.5589 20.8332 18.5505 20.8472 18.5505 20.8644C18.5505 20.8815 18.5409 20.8956 18.5292 20.8956C18.5174 20.8956 18.5078 20.9073 18.5078 20.9215C18.5078 20.9358 18.4785 20.9803 18.4428 21.0203C18.4071 21.0603 18.3619 21.1187 18.3423 21.1502C18.3228 21.1816 18.2992 21.2074 18.29 21.2074C18.2808 21.2074 18.2733 21.2215 18.2733 21.2387C18.2733 21.256 18.2445 21.2995 18.2094 21.3353C18.1742 21.3712 18.1454 21.4081 18.1454 21.4174C18.1454 21.4266 18.1214 21.4575 18.0921 21.4861C18.0628 21.5147 18.0388 21.5525 18.0388 21.5702C18.0388 21.5879 18.0292 21.6023 18.0175 21.6023C18.0057 21.6023 17.9961 21.6121 17.9961 21.624C17.9961 21.636 17.9719 21.6711 17.9424 21.702C17.9128 21.7329 17.872 21.7758 17.8517 21.7973C17.8315 21.8187 17.7643 21.8585 17.7024 21.8856C17.6339 21.9156 17.5494 21.9349 17.4865 21.9349C17.4142 21.9349 17.352 21.9181 17.2792 21.8788C17.2221 21.8479 17.1721 21.8152 17.1682 21.806C17.1643 21.7969 17.1524 21.7894 17.1419 21.7894C17.1313 21.7894 16.9743 21.6467 16.7929 21.4724C16.6116 21.298 16.4281 21.1273 16.3854 21.093C16.3426 21.0587 16.0954 20.8262 15.8362 20.5763C15.5769 20.3265 15.332 20.0976 15.2918 20.0677C15.2517 20.0379 15.0328 19.8331 14.8053 19.6126C14.5779 19.3922 14.3881 19.2119 14.3836 19.2119C14.3792 19.2119 14.329 19.1697 14.2722 19.1181C14.2155 19.0665 14.1478 19.0057 14.1218 18.983C14.0958 18.9602 14.0646 18.9416 14.0525 18.9416C14.0404 18.9416 14.0304 18.9339 14.0304 18.9245C14.0304 18.9151 13.9748 18.8823 13.9068 18.8518C13.8389 18.8212 13.7573 18.7961 13.7256 18.7961C13.6939 18.7961 13.668 18.7868 13.668 18.7754C13.668 18.7639 13.6152 18.7546 13.5507 18.7546C13.4862 18.7546 13.4334 18.7639 13.4334 18.7754C13.4334 18.7868 13.3948 18.7961 13.3475 18.7961C13.2943 18.7961 13.213 18.8201 13.1336 18.8592C13.0612 18.8948 12.9456 18.9803 12.8677 19.0559C12.7919 19.1295 12.7298 19.204 12.7298 19.2216C12.7298 19.2391 12.7202 19.2534 12.7085 19.2534C12.6968 19.2534 12.6872 19.2721 12.6872 19.295C12.6872 19.3179 12.6776 19.3366 12.6659 19.3366C12.6541 19.3366 12.6446 19.3693 12.6446 19.4093C12.6446 19.4494 12.635 19.4821 12.6232 19.4821C12.6106 19.4821 12.6019 19.5583 12.6019 19.6692C12.6019 19.78 12.6106 19.8562 12.6232 19.8562C12.635 19.8562 12.6446 19.8937 12.6446 19.9394C12.6446 19.9851 12.6541 20.0225 12.6659 20.0225C12.6776 20.0225 12.6872 20.0321 12.6872 20.0438C12.6872 20.0554 12.7135 20.1046 12.7458 20.1529C12.778 20.2012 12.9387 20.3694 13.1029 20.5265C13.2671 20.6836 13.442 20.8497 13.4916 20.8955C13.5411 20.9412 13.5871 20.9787 13.5938 20.9787C13.6005 20.9787 13.6295 21.0017 13.6583 21.0297C13.687 21.0578 13.7106 21.0854 13.7106 21.0911C13.7106 21.0969 13.735 21.1254 13.7649 21.1545C13.7947 21.1836 13.8234 21.2074 13.8286 21.2074C13.8338 21.2074 13.9858 21.35 14.1662 21.5243C14.3467 21.6987 14.5294 21.8717 14.5723 21.9089C14.6151 21.946 14.6551 21.9764 14.6611 21.9764C14.6671 21.9764 14.6955 21.9994 14.7243 22.0275C14.7531 22.0555 14.7767 22.0883 14.7767 22.1002C14.7767 22.1122 14.785 22.122 14.7953 22.122C14.8055 22.122 14.9724 22.274 15.1662 22.4597C15.3599 22.6455 15.565 22.8381 15.6219 22.8876C15.6789 22.9372 15.7895 23.0378 15.8677 23.1111C15.946 23.1844 16.0209 23.2444 16.0341 23.2444C16.0474 23.2444 16.0889 23.2725 16.1264 23.3068C16.1639 23.3412 16.2113 23.3745 16.2318 23.381C16.2523 23.3874 16.2691 23.4014 16.2691 23.4121C16.2691 23.4228 16.2883 23.4315 16.3118 23.4315C16.3352 23.4315 16.3544 23.4408 16.3544 23.4523C16.3544 23.4637 16.3784 23.4731 16.4077 23.4731C16.437 23.4731 16.461 23.4824 16.461 23.4939C16.461 23.5053 16.4802 23.5146 16.5037 23.5146C16.5271 23.5146 16.5463 23.5221 16.5463 23.5313C16.5463 23.5405 16.621 23.5732 16.7122 23.604C16.8034 23.6349 16.8994 23.6601 16.9254 23.6601C16.9514 23.6601 16.9727 23.6695 16.9727 23.6809C16.9727 23.6927 17.0331 23.7017 17.1113 23.7017C17.1895 23.7017 17.2499 23.7108 17.2499 23.7225C17.2499 23.7353 17.3565 23.7433 17.5271 23.7433C17.6977 23.7433 17.8043 23.7353 17.8043 23.7225C17.8043 23.7111 17.857 23.7017 17.9215 23.7017C17.986 23.7017 18.0388 23.6924 18.0388 23.6809C18.0388 23.6695 18.0673 23.6601 18.102 23.6601C18.1368 23.6601 18.2016 23.645 18.2459 23.6264C18.2903 23.6079 18.3433 23.5845 18.3636 23.5745C18.384 23.5644 18.4152 23.5562 18.4329 23.5562C18.4507 23.5562 18.4652 23.5469 18.4652 23.5354C18.4652 23.524 18.4844 23.5146 18.5079 23.5146C18.5313 23.5146 18.5505 23.5053 18.5505 23.4939C18.5505 23.4824 18.5645 23.4731 18.5817 23.4731C18.5989 23.4731 18.6589 23.4482 18.715 23.4178C18.7711 23.3874 18.8325 23.3453 18.8515 23.3243C18.8705 23.3032 18.8968 23.286 18.9101 23.286C18.9234 23.286 18.9343 23.2766 18.9343 23.2652C18.9343 23.2538 18.9487 23.2444 18.9663 23.2444C18.9838 23.2444 19.075 23.1696 19.1688 23.0781C19.2626 22.9867 19.3394 22.9068 19.3394 22.9006C19.3394 22.8944 19.3491 22.878 19.3611 22.8642C19.373 22.8504 19.4018 22.8166 19.4251 22.7891C19.4483 22.7617 19.4673 22.7317 19.4673 22.7225C19.4673 22.7134 19.4913 22.6825 19.5206 22.6539C19.5499 22.6253 19.5739 22.5921 19.5739 22.5802C19.5739 22.5682 19.5829 22.5585 19.5938 22.5585C19.6047 22.5585 19.6195 22.5406 19.6266 22.5188C19.6337 22.497 19.6678 22.4479 19.7023 22.4097C19.7368 22.3715 19.7653 22.3306 19.7655 22.3188C19.7656 22.3071 19.785 22.2839 19.8084 22.2675C19.8319 22.251 19.8511 22.2249 19.8511 22.2094C19.8511 22.194 19.8631 22.1695 19.8777 22.1551C19.8924 22.1406 19.9236 22.1027 19.947 22.0708C19.9705 22.0389 20.0113 21.991 20.0376 21.9644C20.064 21.9378 20.0856 21.9015 20.0856 21.8838C20.0856 21.8662 20.0952 21.8517 20.1069 21.8517C20.1187 21.8517 20.1283 21.842 20.1283 21.83C20.1283 21.8181 20.1499 21.7858 20.1762 21.7583C20.2026 21.7307 20.2362 21.6942 20.2509 21.6769C20.2655 21.6597 20.2775 21.6359 20.2775 21.624C20.2775 21.612 20.2871 21.6023 20.2988 21.6023C20.3106 21.6023 20.3201 21.5879 20.3201 21.5702C20.3201 21.5525 20.3417 21.5169 20.3681 21.491C20.3945 21.4652 20.4401 21.4096 20.4694 21.3674C20.4987 21.3253 20.5299 21.2907 20.5387 21.2906C20.5475 21.2906 20.5547 21.2739 20.5547 21.2535C20.5547 21.2332 20.5739 21.2031 20.5973 21.1866C20.6208 21.1701 20.64 21.1446 20.64 21.13C20.64 21.1154 20.6484 21.1034 20.6587 21.1034C20.669 21.1034 20.6891 21.076 20.7033 21.0426C20.7175 21.0091 20.7427 20.9766 20.7592 20.9705C20.7757 20.9643 20.7892 20.9449 20.7892 20.9274C20.7892 20.9099 20.7988 20.8956 20.8105 20.8956C20.8223 20.8956 20.8319 20.8836 20.8319 20.869C20.8319 20.8543 20.851 20.8289 20.8745 20.8124C20.8979 20.7959 20.9171 20.7658 20.9171 20.7455C20.9171 20.7251 20.9243 20.7084 20.9331 20.7083C20.9419 20.7083 20.9731 20.6737 21.0024 20.6316C21.0317 20.5894 21.0773 20.5338 21.1037 20.5079C21.1301 20.4821 21.1517 20.4465 21.1517 20.4288C21.1517 20.4111 21.1592 20.3967 21.1684 20.3967C21.1776 20.3967 21.2033 20.3663 21.2255 20.3291C21.2477 20.292 21.2834 20.2464 21.3047 20.228C21.3261 20.2095 21.3436 20.1838 21.3436 20.1708C21.3436 20.1579 21.3532 20.1473 21.3649 20.1473C21.3766 20.1473 21.3862 20.1356 21.3862 20.1213C21.3862 20.107 21.4078 20.0703 21.4342 20.0398C21.4606 20.0093 21.5013 19.9586 21.5248 19.9272C21.5482 19.8959 21.5794 19.8583 21.5941 19.8439C21.6087 19.8294 21.6207 19.8072 21.6207 19.7944C21.6207 19.7817 21.6447 19.7478 21.674 19.7192C21.7034 19.6907 21.7273 19.6597 21.7273 19.6505C21.7273 19.6413 21.7561 19.6044 21.7913 19.5685C21.8265 19.5326 21.8553 19.4912 21.8553 19.4765C21.8553 19.4617 21.8745 19.4362 21.8979 19.4197C21.9214 19.4032 21.9407 19.3801 21.941 19.3684C21.9412 19.3566 21.9748 19.3097 22.0156 19.2641C22.0564 19.2185 22.0898 19.1693 22.0898 19.1549C22.0898 19.1405 22.0994 19.1287 22.1111 19.1287C22.1228 19.1287 22.1324 19.119 22.1324 19.1071C22.1324 19.0951 22.1424 19.0741 22.1545 19.0603C22.1666 19.0465 22.2217 18.9744 22.2769 18.9001C22.3322 18.8258 22.3942 18.7468 22.4148 18.7247C22.4354 18.7025 22.4523 18.6721 22.4523 18.6571C22.4523 18.6421 22.4598 18.6298 22.469 18.6298C22.4782 18.6298 22.5039 18.5995 22.5261 18.5623C22.5483 18.5251 22.584 18.4796 22.6053 18.4611C22.6267 18.4426 22.6441 18.4169 22.6441 18.404C22.6441 18.391 22.6537 18.3804 22.6655 18.3804C22.6772 18.3804 22.6868 18.366 22.6868 18.3483C22.6868 18.3306 22.7084 18.2936 22.7348 18.2661C22.7611 18.2386 22.7947 18.202 22.8094 18.1848C22.8241 18.1676 22.836 18.1458 22.836 18.1364C22.836 18.127 22.8552 18.1059 22.8787 18.0894C22.9021 18.0729 22.9213 18.047 22.9213 18.0319C22.9213 18.0168 22.9453 17.981 22.9746 17.9524C23.0039 17.9238 23.0279 17.8929 23.0279 17.8837C23.0279 17.8745 23.0567 17.8376 23.0919 17.8017C23.1271 17.7658 23.1559 17.7223 23.1559 17.705C23.1559 17.6878 23.1654 17.6737 23.1772 17.6737C23.1889 17.6737 23.1985 17.6639 23.1985 17.652C23.1985 17.6401 23.2105 17.6163 23.2251 17.5991C23.2398 17.5818 23.271 17.5471 23.2944 17.522C23.3179 17.4968 23.3507 17.4505 23.3673 17.419C23.384 17.3876 23.4056 17.3619 23.4153 17.3619C23.4251 17.3619 23.433 17.3521 23.433 17.3402C23.433 17.3283 23.4428 17.3073 23.4548 17.2935C23.4667 17.2796 23.4995 17.2412 23.5275 17.208C23.5556 17.1748 23.5913 17.1234 23.6069 17.0937C23.6225 17.064 23.6521 17.0246 23.6727 17.0061C23.6933 16.9876 23.7102 16.9613 23.7102 16.9478C23.7102 16.9342 23.739 16.8932 23.7742 16.8567C23.8094 16.8201 23.8436 16.7739 23.8503 16.7539C23.8569 16.7339 23.8713 16.7175 23.8822 16.7175C23.8931 16.7175 23.9021 16.7078 23.9021 16.6958C23.9021 16.6839 23.9213 16.6541 23.9447 16.6296C23.9682 16.605 23.9874 16.5727 23.9874 16.5577C23.9874 16.5427 23.9955 16.5304 24.0055 16.5304C24.0154 16.5304 24.0404 16.4907 24.061 16.4421C24.0815 16.3935 24.107 16.3375 24.1175 16.3177C24.128 16.2978 24.1366 16.2354 24.1366 16.1791C24.1366 16.1174 24.1472 16.0718 24.1633 16.0645C24.1846 16.0548 24.1846 16.0499 24.1633 16.0402C24.146 16.0324 24.1366 15.9811 24.1366 15.8947C24.1366 15.8197 24.1273 15.7613 24.1153 15.7613C24.1036 15.7613 24.094 15.7471 24.094 15.7297C24.094 15.7124 24.07 15.6611 24.0407 15.6158C24.0114 15.5706 23.9874 15.5277 23.9874 15.5205C23.9874 15.5133 23.9374 15.4617 23.8762 15.4057C23.8151 15.3498 23.7528 15.304 23.7377 15.304C23.7226 15.304 23.7102 15.2947 23.7102 15.2832C23.7102 15.2718 23.691 15.2625 23.6676 15.2625C23.6441 15.2625 23.6249 15.2531 23.6249 15.2417C23.6249 15.2302 23.6057 15.2209 23.5823 15.2209C23.5588 15.2209 23.5396 15.2129 23.5396 15.2032C23.5396 15.1934 23.473 15.1747 23.3916 15.1616C23.3102 15.1485 23.2262 15.1391 23.205 15.1408C23.1838 15.1424 23.1113 15.1533 23.0439 15.1649Z" fill="black"/>
</svg>
