<svg width="54" height="55" viewBox="0 0 54 55" fill="none" xmlns="http://www.w3.org/2000/svg">
<rect y="0.370605" width="53.9985" height="53.9985" rx="26.9993" fill="#0B0A0A"/>
<ellipse cx="27.0002" cy="26.9366" rx="11.7887" ry="13.3099" fill="white"/>
<path d="M31.6994 26.4649C31.8678 26.3206 32.0421 26.1883 32.2225 26.0681C32.4149 25.9358 32.5953 25.8036 32.7636 25.6713C33.0402 25.4909 33.2807 25.3105 33.4851 25.1302C33.7015 24.9378 33.8579 24.7935 33.9541 24.6973C34.3268 24.2884 34.4411 24.054 34.2968 23.9938C34.2006 23.9578 34.0623 24.0119 33.8819 24.1562C33.7015 24.3005 33.5152 24.4748 33.3228 24.6792C33.0582 24.9558 32.7877 25.2444 32.5111 25.545C32.2466 25.8336 31.976 26.1342 31.6994 26.4469V26.4649ZM24.7913 28.9901C24.5628 29.2546 24.2742 29.5432 23.9255 29.8559C23.5888 30.1685 23.2281 30.4571 22.8433 30.7216C22.4585 30.9742 22.0737 31.1906 21.6889 31.371C21.3041 31.5393 20.9614 31.6175 20.6608 31.6054C20.3842 31.5934 20.1738 31.5213 20.0295 31.389C19.8852 31.2567 19.8311 31.0523 19.8672 30.7757C19.9273 30.391 20.1498 29.946 20.5345 29.441C20.9193 28.936 21.4604 28.2927 22.1579 27.5111C22.7351 26.8617 23.186 26.3206 23.5107 25.8877C23.8473 25.4548 24.0638 25.0761 24.16 24.7514C24.2321 24.4748 24.178 24.2884 23.9977 24.1922C23.8173 24.084 23.6129 24.0299 23.3844 24.0299C22.9275 24.0299 22.4164 24.1682 21.8512 24.4448C21.2861 24.7093 20.751 25.0941 20.246 25.5991C19.8732 25.9599 19.5365 26.3507 19.2359 26.7715C18.9473 27.1924 18.803 27.5832 18.803 27.9439C18.803 28.1604 18.8571 28.3408 18.9653 28.485C19.0736 28.6173 19.2359 28.6835 19.4523 28.6835C19.6087 28.6955 19.7409 28.6835 19.8491 28.6474C19.9574 28.5993 20.0415 28.5512 20.1017 28.5031C20.27 28.3347 20.3602 28.2806 20.3722 28.3408C20.3963 28.3889 20.3241 28.479 20.1558 28.6113C20.0596 28.6714 19.9514 28.7255 19.8311 28.7736C19.7229 28.8217 19.5846 28.8458 19.4163 28.8458C18.8751 28.8217 18.5745 28.5271 18.5144 27.962C18.4904 27.5531 18.5986 27.1082 18.8391 26.6272C19.0916 26.1463 19.4463 25.6953 19.9033 25.2745C20.1798 25.0219 20.4744 24.8055 20.7871 24.6251C21.0997 24.4448 21.4123 24.3005 21.725 24.1922C22.0376 24.084 22.3382 24.0059 22.6268 23.9578C22.9154 23.8976 23.1679 23.8676 23.3844 23.8676C23.8053 23.8676 24.154 23.9518 24.4305 24.1201C24.7191 24.2884 24.8574 24.547 24.8454 24.8957C24.8454 25.1001 24.7973 25.3166 24.7011 25.545C24.6049 25.7615 24.4726 25.9899 24.3043 26.2304C24.148 26.4709 23.9616 26.7174 23.7451 26.9699C23.5407 27.2225 23.3243 27.475 23.0958 27.7275C22.3743 28.5211 21.8212 29.1644 21.4364 29.6575C21.0636 30.1384 20.8532 30.5292 20.8051 30.8299C20.7811 30.9742 20.7931 31.0764 20.8412 31.1365C20.9013 31.1966 20.9734 31.2387 21.0576 31.2627C21.1658 31.2748 21.2981 31.2567 21.4544 31.2086C21.6108 31.1485 21.7791 31.0704 21.9595 30.9742C22.1398 30.878 22.3202 30.7697 22.5006 30.6495C22.693 30.5292 22.8733 30.409 23.0417 30.2887C23.3183 30.0843 23.5708 29.8859 23.7992 29.6935C24.0397 29.5011 24.2682 29.3027 24.4846 29.0983C24.7011 28.8939 24.9115 28.6774 25.1159 28.449C25.3324 28.2085 25.5548 27.95 25.7833 27.6734C25.9156 27.5291 26.102 27.3367 26.3425 27.0962C26.583 26.8557 26.8475 26.5972 27.1361 26.3206C27.4367 26.032 27.7614 25.7374 28.1101 25.4368C28.4588 25.1242 28.8075 24.8296 29.1562 24.553C29.2284 24.4929 29.3246 24.4207 29.4448 24.3365C29.5771 24.2524 29.7154 24.1682 29.8597 24.084C30.004 23.9999 30.1423 23.9337 30.2745 23.8856C30.4068 23.8255 30.521 23.8014 30.6172 23.8135C30.7856 23.8375 30.8517 23.9337 30.8156 24.1021C30.7796 24.2584 30.6773 24.4327 30.509 24.6251C30.3046 24.8416 30.0761 25.052 29.8236 25.2564C29.5831 25.4488 29.3606 25.6172 29.1562 25.7615C28.8676 25.9779 28.6091 26.1703 28.3806 26.3386C28.1642 26.507 27.8756 26.7355 27.5149 27.0241C27.4427 27.1082 27.3585 27.2104 27.2623 27.3307C27.1661 27.4389 27.0639 27.5592 26.9557 27.6914C26.2342 28.485 25.6871 29.1344 25.3144 29.6394C24.9416 30.1324 24.7312 30.5292 24.6831 30.8299C24.659 30.9742 24.671 31.0764 24.7191 31.1365C24.7793 31.1966 24.8514 31.2387 24.9356 31.2627C25.0438 31.2748 25.1761 31.2567 25.3324 31.2086C25.4887 31.1485 25.6571 31.0704 25.8374 30.9742C26.0178 30.878 26.1982 30.7697 26.3785 30.6495C26.5709 30.5292 26.7513 30.409 26.9196 30.2887C27.1962 30.0843 27.4427 29.8919 27.6592 29.7116C27.8876 29.5312 28.1041 29.3448 28.3085 29.1524C28.5129 28.948 28.7173 28.7376 28.9217 28.5211C29.1262 28.2927 29.3426 28.0401 29.5711 27.7636C29.7034 27.6193 29.8837 27.4209 30.1122 27.1683C30.3407 26.9158 30.5992 26.6453 30.8878 26.3567C31.1884 26.0561 31.507 25.7494 31.8437 25.4368C32.1804 25.1242 32.5231 24.8296 32.8718 24.553C32.944 24.4929 33.0402 24.4207 33.1604 24.3365C33.2927 24.2524 33.431 24.1682 33.5753 24.084C33.7196 23.9999 33.8579 23.9337 33.9901 23.8856C34.1224 23.8255 34.2366 23.8014 34.3328 23.8135C34.5012 23.8375 34.5673 23.9337 34.5313 24.1021C34.4952 24.2584 34.393 24.4327 34.2246 24.6251C34.0202 24.8416 33.7917 25.052 33.5392 25.2564C33.2987 25.4488 33.0763 25.6172 32.8718 25.7615C32.5833 25.9779 32.3247 26.1703 32.0963 26.3386C31.8798 26.507 31.5912 26.7355 31.2305 27.0241C31.1583 27.1082 31.0681 27.2164 30.9599 27.3487C30.8637 27.469 30.7615 27.5952 30.6533 27.7275C30.4248 28.0281 30.1964 28.3347 29.9679 28.6474C29.7394 28.948 29.529 29.2426 29.3366 29.5312C29.1562 29.8198 29.0059 30.0903 28.8857 30.3429C28.7654 30.5834 28.7053 30.7818 28.7053 30.9381C28.7053 31.0463 28.7474 31.1245 28.8316 31.1726C28.9157 31.2207 28.9939 31.2447 29.066 31.2447C29.2103 31.2447 29.3847 31.1906 29.5891 31.0824C29.8056 30.9742 30.016 30.8419 30.2204 30.6856C30.3527 30.5894 30.515 30.4571 30.7074 30.2887C30.9118 30.1204 31.0802 29.9761 31.2124 29.8559C31.2605 29.8198 31.3086 29.7897 31.3567 29.7657C31.4048 29.7296 31.4409 29.7236 31.465 29.7476C31.489 29.7717 31.477 29.8138 31.4289 29.8739C31.3808 29.922 31.3447 29.9581 31.3207 29.9821C31.2605 30.0422 31.1884 30.1084 31.1042 30.1805C31.0201 30.2527 30.9299 30.3308 30.8337 30.415C30.7495 30.4992 30.6593 30.5773 30.5631 30.6495C30.4789 30.7216 30.4008 30.7818 30.3286 30.8299C30.2685 30.878 30.1843 30.9441 30.0761 31.0283C29.9679 31.1004 29.8416 31.1786 29.6973 31.2627C29.5651 31.3349 29.4148 31.401 29.2464 31.4612C29.0901 31.5213 28.9217 31.5513 28.7414 31.5513C28.4768 31.5513 28.2664 31.4852 28.1101 31.3529C27.9658 31.2207 27.8936 31.0223 27.8936 30.7577C27.8936 30.4932 27.9718 30.2166 28.1281 29.928C28.2844 29.6274 28.4648 29.3328 28.6692 29.0442L28.579 29.1705C28.3386 29.4109 28.0439 29.6755 27.6952 29.9641C27.3585 30.2406 27.0038 30.5052 26.6311 30.7577C26.2703 30.9982 25.9036 31.2026 25.5308 31.371C25.158 31.5273 24.8274 31.6054 24.5388 31.6054C24.2622 31.6054 24.0518 31.5393 23.9075 31.407C23.7632 31.2627 23.7091 31.0523 23.7451 30.7757C23.7932 30.5232 23.9015 30.2587 24.0698 29.9821C24.2381 29.7056 24.4786 29.3749 24.7913 28.9901ZM27.9838 26.4649C28.1522 26.3206 28.3265 26.1883 28.5069 26.0681C28.6993 25.9358 28.8797 25.8036 29.048 25.6713C29.3246 25.4909 29.5651 25.3105 29.7695 25.1302C29.9859 24.9378 30.1423 24.7935 30.2384 24.6973C30.6112 24.2884 30.7254 24.054 30.5812 23.9938C30.485 23.9578 30.3467 24.0119 30.1663 24.1562C29.9859 24.3005 29.7995 24.4748 29.6072 24.6792C29.3426 24.9558 29.0721 25.2444 28.7955 25.545C28.5309 25.8336 28.2604 26.1342 27.9838 26.4469V26.4649Z" fill="black"/>
<path d="M43.0217 30.7971H49.355C51.4085 30.7971 53.3619 29.1183 53.2844 27.0663C53.1989 24.8061 51.1876 23.718 48.9265 23.7714L42.8851 23.9143C41.1467 23.9554 39.9211 26.2304 39.8626 27.9683C39.8025 29.75 41.2391 30.7971 43.0217 30.7971Z" fill="white"/>
<rect x="41.8032" y="25.1047" width="11.33" height="4.42808" rx="2.21404" fill="white"/>
<path d="M42.1364 27.3188C42.1364 28.3486 42.9975 29.1993 44.0794 29.1993C45.1613 29.1993 46.0224 28.3486 46.0224 27.3188C46.0224 26.2889 45.1613 25.4383 44.0794 25.4383C42.9975 25.4383 42.1364 26.2889 42.1364 27.3188Z" stroke="white" stroke-width="0.6671"/>
<path d="M48.9132 27.3188C48.9132 28.3486 49.7743 29.1993 50.8562 29.1993C51.9382 29.1993 52.7993 28.3486 52.7993 27.3188C52.7993 26.2889 51.9382 25.4383 50.8562 25.4383C49.7743 25.4383 48.9132 26.2889 48.9132 27.3188Z" stroke="black" stroke-width="0.6671"/>
<path d="M42.1364 27.3188C42.1364 28.3486 42.9975 29.1993 44.0794 29.1993C45.1613 29.1993 46.0224 28.3486 46.0224 27.3188C46.0224 26.2889 45.1613 25.4383 44.0794 25.4383C42.9975 25.4383 42.1364 26.2889 42.1364 27.3188Z" stroke="black" stroke-width="0.6671"/>
<path d="M10.9763 30.7971H4.64307C2.58957 30.7971 0.636119 29.1183 0.713692 27.0663C0.799134 24.8061 2.81043 23.718 5.07158 23.7714L11.1129 23.9143C12.8514 23.9554 14.0769 26.2304 14.1355 27.9683C14.1955 29.75 12.759 30.7971 10.9763 30.7971Z" fill="white"/>
<rect width="11.33" height="4.42808" rx="2.21404" transform="matrix(-1 0 0 1 12.1948 25.1047)" fill="white"/>
<path d="M11.8612 27.3188C11.8612 28.3486 11.0001 29.1993 9.91817 29.1993C8.83625 29.1993 7.97515 28.3486 7.97515 27.3188C7.97515 26.2889 8.83625 25.4383 9.91817 25.4383C11.0001 25.4383 11.8612 26.2889 11.8612 27.3188Z" stroke="white" stroke-width="0.6671"/>
<path d="M5.08434 27.3188C5.08434 28.3486 4.22324 29.1993 3.14132 29.1993C2.0594 29.1993 1.1983 28.3486 1.1983 27.3188C1.1983 26.2889 2.0594 25.4383 3.14132 25.4383C4.22324 25.4383 5.08434 26.2889 5.08434 27.3188Z" stroke="black" stroke-width="0.6671"/>
<path d="M11.8632 27.3188C11.8632 28.3486 11.002 29.1993 9.92013 29.1993C8.83821 29.1993 7.9771 28.3486 7.9771 27.3188C7.9771 26.2889 8.83821 25.4383 9.92013 25.4383C11.002 25.4383 11.8632 26.2889 11.8632 27.3188Z" stroke="black" stroke-width="0.6671"/>
</svg>
