<svg width="27" height="38" viewBox="0 0 27 38" fill="none" xmlns="http://www.w3.org/2000/svg">
<path d="M5.84378 9.65588C5.84378 5.43374 9.27789 1.99963 13.5 1.99963C17.7214 1.99963 21.155 5.43243 21.1563 9.65347C21.1389 13.7961 17.9106 17.1377 13.796 17.2934H13.796H13.7959H13.7959H13.7958H13.7957H13.7957H13.7956H13.7956H13.7955H13.7954H13.7954H13.7953H13.7952H13.7952H13.7951H13.7951H13.795H13.7949H13.7949H13.7948H13.7948H13.7947H13.7946H13.7946H13.7945H13.7944H13.7944H13.7943H13.7943H13.7942H13.7941H13.7941H13.794H13.7939H13.7939H13.7938H13.7937H13.7937H13.7936H13.7936H13.7935H13.7934H13.7934H13.7933H13.7932H13.7932H13.7931H13.793H13.793H13.7929H13.7928H13.7928H13.7927H13.7926H13.7925H13.7925H13.7924H13.7923H13.7923H13.7922H13.7921H13.7921H13.792H13.7919H13.7919H13.7918H13.7917H13.7916H13.7916H13.7915H13.7914H13.7914H13.7913H13.7912H13.7911H13.7911H13.791H13.7909H13.7908H13.7908H13.7907H13.7906H13.7906H13.7905H13.7904H13.7903H13.7902H13.7902H13.7901H13.79H13.7899H13.7899H13.7898H13.7897H13.7896H13.7896H13.7895H13.7894H13.7893H13.7892H13.7892H13.7891H13.789H13.7889H13.7888H13.7888H13.7887H13.7886H13.7885H13.7884H13.7883H13.7883H13.7882H13.7881H13.788H13.7879H13.7878H13.7878H13.7877H13.7876H13.7875H13.7874H13.7873H13.7872H13.7872H13.7871H13.787H13.7869H13.7868H13.7867H13.7866H13.7865H13.7865H13.7864H13.7863H13.7862H13.7861H13.786H13.7859H13.7858H13.7857H13.7856H13.7855H13.7854H13.7853H13.7853H13.7852H13.7851H13.785H13.7849H13.7848H13.7847H13.7846H13.7845H13.7844H13.7843H13.7842H13.7841H13.784H13.7839H13.7838H13.7837H13.7836H13.7835H13.7834H13.7833H13.7832H13.7831H13.783H13.7829H13.7828H13.7827H13.7826H13.7825H13.7824H13.7823H13.7821H13.782H13.7819H13.7818H13.7817H13.7816H13.7815H13.7814H13.7813H13.7811H13.7808H13.7806H13.7804H13.7802H13.78H13.7798H13.7795H13.7793H13.7791H13.7789H13.7787H13.7785H13.7782H13.778H13.7778H13.7776H13.7774H13.7772H13.777H13.7768H13.7765H13.7763H13.7761H13.7759H13.7757H13.7755H13.7753H13.7751H13.7749H13.7747H13.7745H13.7743H13.774H13.7738H13.7736H13.7734H13.7732H13.773H13.7728H13.7726H13.7724H13.7722H13.772H13.7718H13.7716H13.7714H13.7712H13.771H13.7708H13.7706H13.7704H13.7702H13.77H13.7698H13.7696H13.7694H13.7692H13.769H13.7688H13.7686H13.7684H13.7682H13.7681C13.5864 17.2739 13.4027 17.2762 13.2349 17.2909C9.0279 17.1043 5.84378 13.7652 5.84378 9.65588Z" fill="white" stroke="black" stroke-width="2.5"/>
<path d="M4.48863 34.0876L4.48521 34.0851C2.32865 32.5443 1.25 30.5517 1.25 28.5051C1.25 26.4579 2.32935 24.4452 4.50361 22.8846C6.94784 21.1517 10.2093 20.25 13.524 20.25C16.8401 20.25 20.0912 21.1524 22.5148 22.884C24.6634 24.4192 25.7328 26.4111 25.75 28.4687C25.7484 30.5349 24.6688 32.5273 22.5104 34.0883C20.0773 35.8387 16.8181 36.75 13.5 36.75C10.1814 36.75 6.92183 35.8385 4.48863 34.0876Z" fill="white" stroke="black" stroke-width="2.5"/>
</svg>
