<svg width="33" height="28" viewBox="0 0 33 28" fill="none" xmlns="http://www.w3.org/2000/svg">
<path d="M16.0991 27.1533C15.4989 27.1533 14.9259 26.9689 14.4417 26.6199C11.1541 24.2558 3.29676 18.375 1.3256 14.8123C-1.25259 10.1565 0.295687 4.17698 4.77002 1.48356C6.21599 0.614296 7.85294 0.15332 9.51717 0.15332C12.0067 0.15332 14.3462 1.14113 16.0991 2.89942C17.852 1.14113 20.1914 0.15332 22.681 0.15332C24.3452 0.15332 25.9822 0.614296 27.4281 1.48356C31.9025 4.17698 33.4507 10.1565 30.8794 14.8123C28.9082 18.375 21.0508 24.2558 17.7633 26.6199C17.2722 26.9689 16.6993 27.1533 16.0991 27.1533ZM9.51717 2.12893C8.23489 2.12893 6.97308 2.48454 5.8545 3.15625C2.27367 5.31625 1.04596 10.1236 3.12625 13.8772C4.95417 17.1831 13.1798 23.2548 15.6557 25.0328C15.9149 25.2172 16.2764 25.2172 16.5356 25.0328C19.0115 23.2482 27.2372 17.1765 29.0651 13.8772C31.1454 10.1236 29.9177 5.30966 26.3368 3.15625C25.2251 2.48454 23.9633 2.12893 22.681 2.12893C20.437 2.12893 18.3362 3.18259 16.9175 5.01332L16.0991 6.08015L15.2806 5.01332C13.8619 3.18259 11.768 2.12893 9.51717 2.12893Z" fill="#8C8C8C"/>
</svg>
