<svg width="31" height="31" viewBox="0 0 31 31" fill="none" xmlns="http://www.w3.org/2000/svg">
<path d="M0 15.5V25C0 28.3137 2.68629 31 6 31H15.5H25C28.3137 31 31 28.3137 31 25V15.5V6C31 2.68629 28.3137 0 25 0H15.5H6C2.68629 0 0 2.68629 0 6V15.5ZM18.104 5.52188C19.1309 5.73888 19.8594 6.63787 19.8555 7.69188C19.8516 8.277 19.6424 8.7575 19.1967 9.21087C18.7666 9.641 18.2784 9.84637 17.67 9.84637C17.0577 9.8425 16.5811 9.64487 16.1394 9.20312C15.6937 8.7575 15.4961 8.28863 15.4922 7.67637C15.4884 6.82388 15.9417 6.09538 16.7245 5.704C17.1624 5.48313 17.6196 5.42113 18.104 5.52188ZM14.3917 17.4763C16.1549 18.7356 17.6196 19.7741 17.6467 19.7858C17.6739 19.7974 18.7511 19.1929 20.0376 18.445L22.0996 17.2448C22.2615 17.1505 22.4665 17.1772 22.599 17.3096C22.7191 17.4336 23.4321 18.1776 24.1761 18.9681C25.0494 19.8887 25.5362 21.1092 25.5362 22.3781V22.9671C25.5362 24.386 24.386 25.5363 22.9671 25.5363H15.5H7.68412C6.45784 25.5363 5.46375 24.5422 5.46375 23.3159C5.46375 21.8927 6.0095 20.5236 6.9886 19.4907L8.28475 18.1234C9.83475 16.4881 11.1213 15.159 11.1445 15.1667C11.1677 15.1745 12.6286 16.213 14.3917 17.4763Z" fill="white"/>
</svg>
