<svg width="25" height="21" viewBox="0 0 25 21" fill="none" xmlns="http://www.w3.org/2000/svg">
<path d="M12.2492 20.6435C11.7903 20.6435 11.3522 20.5025 10.982 20.2357C8.46842 18.4281 2.46089 13.9319 0.953788 11.2079C-1.01743 7.64817 0.166342 3.07639 3.5873 1.01707C4.69285 0.35245 5.94442 0 7.21685 0C9.12028 0 10.909 0.75525 12.2492 2.0996C13.5894 0.75525 15.3781 0 17.2816 0C18.554 0 19.8056 0.35245 20.9111 1.01707C24.3321 3.07639 25.5158 7.64817 23.5498 11.2079C22.0427 13.9319 16.0352 18.4281 13.5216 20.2357C13.1462 20.5025 12.7081 20.6435 12.2492 20.6435ZM7.21685 1.5105C6.23646 1.5105 5.27171 1.78239 4.41647 2.29596C1.67866 3.94744 0.739978 7.62299 2.33052 10.4929C3.7281 13.0205 10.0172 17.6628 11.9102 19.0222C12.1084 19.1632 12.3848 19.1632 12.583 19.0222C14.476 17.6578 20.7651 13.0155 22.1627 10.4929C23.7532 7.62299 22.8145 3.94241 20.0767 2.29596C19.2267 1.78239 18.262 1.5105 17.2816 1.5105C15.5659 1.5105 13.9597 2.3161 12.875 3.71583L12.2492 4.5315L11.6234 3.71583C10.5387 2.3161 8.93776 1.5105 7.21685 1.5105Z" fill="#8C8C8C"/>
</svg>
