<svg width="26" height="22" viewBox="0 0 26 22" fill="none" xmlns="http://www.w3.org/2000/svg">
<path d="M1.59547 0.0606575C1.0572 0.190313 0.526788 0.594995 0.25569 1.07433C-0.0193379 1.56545 0.00030695 1.0154 0.00030695 8.91654C0.00030695 16.7863 -0.0154089 16.2559 0.247832 16.7509C0.408919 17.0613 0.782171 17.4306 1.0847 17.5917C1.57975 17.851 1.06506 17.8353 9.29231 17.8353H16.7573L18.8397 19.9176C19.987 21.061 20.9338 22 20.9495 22C20.9692 22 20.981 21.061 20.981 19.9176V17.8353H22.1518C23.4523 17.8353 23.6487 17.8078 24.0574 17.5878C24.3638 17.4267 24.741 17.0534 24.8982 16.7509C25.1614 16.2519 25.1457 16.7823 25.1457 8.93619C25.1457 1.05076 25.1653 1.62439 24.8864 1.09398C24.7056 0.752155 24.3874 0.437838 24.0456 0.257105C23.5191 -0.0218506 24.4306 -0.0022068 12.5534 0.00172234C3.43815 0.00565147 1.79191 0.0135098 1.59547 0.0606575ZM23.4916 1.20006C23.7627 1.33757 23.9866 1.61653 24.0416 1.89548C24.0731 2.03693 24.0849 4.1625 24.077 9.05406L24.0652 16.0083L23.9788 16.1694C23.9316 16.2559 23.8216 16.3934 23.7313 16.4759C23.413 16.7627 23.4719 16.7548 21.5821 16.7666L19.8809 16.7784V18.0828V19.3872L18.5725 18.0789L17.2681 16.7745H9.64199C1.10435 16.7745 1.76048 16.798 1.42652 16.4877C1.33223 16.4012 1.21436 16.2559 1.16721 16.1655L1.08077 16.0083L1.06899 9.0187C1.0572 1.25899 1.04148 1.78547 1.32437 1.45544C1.40295 1.36115 1.55618 1.24328 1.66619 1.1922L1.86657 1.0979H12.5769H23.2834L23.4916 1.20006Z" fill="#8C8C8C"/>
</svg>
